<svg xmlns="http://www.w3.org/2000/svg" xmlns:xlink="http://www.w3.org/1999/xlink" viewBox="0 0 243.81 184.62"><defs><style>.cls-1{isolation:isolate;}.cls-2{fill:url(#linear-gradient);}.cls-3{mix-blend-mode:multiply;fill:url(#linear-gradient-2);}.cls-4{fill:#ebecf0;}.cls-5{fill:#344563;}.cls-6{fill:#a5adba;}.cls-7{fill:#0065ff;}.cls-10,.cls-12,.cls-13,.cls-8,.cls-9{fill:none;stroke-miterlimit:10;stroke-width:2px;}.cls-12,.cls-8{stroke:#0065ff;}.cls-10,.cls-9{stroke:#253858;}.cls-10{stroke-dasharray:9.47 5.68;}.cls-11{fill:#253858;}.cls-12{stroke-dasharray:10 6;}.cls-13{stroke:#ff5630;}.cls-14{fill:#ff5630;}</style><linearGradient id="linear-gradient" x1="14.8" y1="199.42" x2="229.01" y2="-14.8" gradientUnits="userSpaceOnUse"><stop offset="0" stop-color="#c1c7d0"/><stop offset="1" stop-color="#fafbfc"/></linearGradient><linearGradient id="linear-gradient-2" x1="44.68" y1="105.43" x2="187.13" y2="-37.01" gradientUnits="userSpaceOnUse"><stop offset="0" stop-color="#ebecf0" stop-opacity="0.1"/><stop offset="1" stop-color="#ebecf0"/></linearGradient></defs><title>Asset 464</title><g class="cls-1"><g id="Layer_2" data-name="Layer 2"><g id="Software"><rect class="cls-2" width="243.81" height="184.62"/><path class="cls-3" d="M243.81,36.75c-69.18-6-108.85.91-132.52,8.71-4.66,1.53-10.66,3.75-20.52,6.35C55.15,61.23,22.18,61.75,0,60.75V19.67H243.81Z"/><rect class="cls-4" width="243.81" height="19.67"/><circle class="cls-5" cx="15.69" cy="9.76" r="5.11"/><circle class="cls-6" cx="32.37" cy="9.76" r="5.11"/><circle class="cls-7" cx="49.05" cy="9.76" r="5.11"/><path class="cls-8" d="M68.45,145.46v-40a3.67,3.67,0,0,1,3.67-3.67H180.64"/><line class="cls-9" x1="125.54" y1="64.14" x2="125.54" y2="69.14"/><line class="cls-10" x1="125.54" y1="74.82" x2="125.54" y2="147.73"/><line class="cls-9" x1="125.54" y1="150.57" x2="125.54" y2="155.57"/><polygon class="cls-11" points="103.53 156.21 125.54 125.07 147.56 156.21 103.53 156.21"/><rect class="cls-7" x="52.88" y="125.07" width="31.14" height="31.14"/><rect class="cls-7" x="109.97" y="47.72" width="31.14" height="31.14" rx="15.57" ry="15.57"/><path class="cls-12" d="M125.54,64.14h52a4.11,4.11,0,0,1,4.11,4.11V94.6"/><line class="cls-13" x1="68.45" y1="64.14" x2="109.97" y2="64.14"/><rect class="cls-14" x="52.88" y="48.57" width="31.14" height="31.14" rx="15.57" ry="15.57"/><rect class="cls-14" x="165.55" y="86.27" width="31.14" height="31.14"/></g></g></g></svg>