<svg xmlns="http://www.w3.org/2000/svg" xmlns:xlink="http://www.w3.org/1999/xlink" viewBox="0 0 232.2123 217.5708">
  <defs>
    <style>
      .cls-1 {
        fill: #253858;
      }

      .cls-2 {
        fill: #0065ff;
      }

      .cls-3 {
        fill: #2684ff;
      }

      .cls-4 {
        fill: url(#New_Gradient_Swatch_6);
      }

      .cls-5 {
        fill: #ffc400;
      }
    </style>
    <linearGradient id="New_Gradient_Swatch_6" data-name="New Gradient Swatch 6" x1="154.0825" y1="509.3955" x2="271.8362" y2="509.3955" gradientTransform="matrix(0.9594, 0.2819, -0.2819, 0.9594, 101.9778, -369.8275)" gradientUnits="userSpaceOnUse">
      <stop offset="0" stop-color="#ffab00"/>
      <stop offset="1" stop-color="#ffe380"/>
    </linearGradient>
  </defs>
  <title>Integration Puzzle</title>
  <g id="Layer_2" data-name="Layer 2">
    <g id="Objects">
      <path class="cls-1" d="M66.9563,140.1651a14.8526,14.8526,0,0,0,22.1509,11.19,2.1245,2.1245,0,0,1,3.1954,1.8334v31.4381h0A92.3025,92.3025,0,0,1,0,92.324v-.0107H31.4251a2.1178,2.1178,0,0,0,1.8608-3.1517,14.862,14.862,0,1,1,25.7557-.0432,2.1243,2.1243,0,0,0,1.8336,3.1949H92.3026v31.4255a2.1177,2.1177,0,0,1-3.1532,1.86,14.8581,14.8581,0,0,0-22.1932,14.5666Z"/>
      <path class="cls-2" d="M117.66,47.8467a14.8547,14.8547,0,0,1-22.1632,11.19,2.1242,2.1242,0,0,0-3.1944,1.834V92.3132H60.8752a2.1243,2.1243,0,0,1-1.8336-3.1949,14.8588,14.8588,0,1,0-25.7557.0432,2.1178,2.1178,0,0,1-1.8608,3.1517H0v-.0107A92.3026,92.3026,0,0,1,92.3026,0h0V31.44a2.1177,2.1177,0,0,0,3.1524,1.86A14.8593,14.8593,0,0,1,117.66,47.8467Z"/>
      <path class="cls-3" d="M184.6159,92.3132H153.1884a2.1243,2.1243,0,0,0-1.8336,3.1949,14.8588,14.8588,0,1,1-25.7556-.0432,2.1178,2.1178,0,0,0-1.8608-3.1517H92.3026V60.8707a2.1242,2.1242,0,0,1,3.1944-1.834,14.8536,14.8536,0,1,0-.042-25.7359,2.1177,2.1177,0,0,1-3.1524-1.86V0h.0107a92.3026,92.3026,0,0,1,92.3026,92.3026Z"/>
      <path class="cls-4" d="M232.2123,151.2523l-.003.01a92.3026,92.3026,0,0,1-114.578,62.5412l-.01-.003,8.8618-30.1632a2.1245,2.1245,0,0,0-2.5491-2.66,14.8589,14.8589,0,1,1,7.3009-24.7,2.1177,2.1177,0,0,0,3.55-.8955l8.8583-30.1512,30.161,8.8612A2.1178,2.1178,0,0,1,174.7,137.64a14.862,14.862,0,1,0,24.699,7.3015,2.1243,2.1243,0,0,1,2.66-2.5485Z"/>
      <path class="cls-5" d="M198.022,90.9943l23.3467-10.9192a.5666.5666,0,0,1,.681.8692L207.1463,99.4073l4.2672,3.4445a.5666.5666,0,0,1-.1159.9542L187.951,114.7251a.5666.5666,0,0,1-.681-.8692L202.1734,95.393l-4.2672-3.4445A.5666.5666,0,0,1,198.022,90.9943Z"/>
      <path class="cls-5" d="M205.8015,121.0093l12.61,2.51a.249.249,0,0,1,.0149.4851l-11.4132,3.0086.7,2.655a.249.249,0,0,1-.2894.3077l-12.61-2.51a.249.249,0,0,1-.0149-.4851l11.4131-3.0086-.7-2.6553A.249.249,0,0,1,205.8015,121.0093Z"/>
    </g>
  </g>
</svg>
