<svg xmlns="http://www.w3.org/2000/svg" xmlns:xlink="http://www.w3.org/1999/xlink" viewBox="0 0 223.14 190.03"><defs><style>.cls-1{fill:url(#linear-gradient);}.cls-2,.cls-7{fill:#c1c7d0;}.cls-3{fill:url(#linear-gradient-2);}.cls-4{fill:#091e42;opacity:0.1;}.cls-5{fill:url(#linear-gradient-3);}.cls-6{fill:#0065ff;}.cls-7{opacity:0.5;}.cls-8{fill:#4c9aff;}.cls-9{fill:#57d9a3;}.cls-10{fill:#fff;stroke:#2684ff;stroke-width:2px;}.cls-10,.cls-12{stroke-miterlimit:10;}.cls-11,.cls-12{fill:none;}.cls-11{stroke:#57d9a3;stroke-linecap:round;stroke-linejoin:round;stroke-width:1.67px;}.cls-12{stroke:#4c9aff;stroke-width:4px;}</style><linearGradient id="linear-gradient" x1="4300.04" y1="811.99" x2="4175.1" y2="936.93" gradientTransform="translate(-4126 -840.42)" gradientUnits="userSpaceOnUse"><stop offset="0.48" stop-color="#dfe1e5"/><stop offset="1" stop-color="#fff"/></linearGradient><linearGradient id="linear-gradient-2" x1="4300.04" y1="690.05" x2="4175.1" y2="814.98" gradientTransform="translate(-4126 -596.52)" gradientUnits="userSpaceOnUse"><stop offset="0" stop-color="#dfe1e5"/><stop offset="1" stop-color="#dfe1e5" stop-opacity="0"/></linearGradient><linearGradient id="linear-gradient-3" x1="30.07" y1="173.48" x2="193.07" y2="10.48" gradientUnits="userSpaceOnUse"><stop offset="0.05" stop-color="#dfe1e5"/><stop offset="0.8" stop-color="#f4f5f7"/></linearGradient></defs><title>Ticket</title><g id="Layer_2" data-name="Layer 2"><g id="Software"><rect id="_Rectangle_" data-name="&lt;Rectangle&gt;" class="cls-1" x="18.81" width="185.52" height="68.09" rx="3.18" ry="3.18" transform="translate(223.14 68.09) rotate(180)"/><path class="cls-2" d="M28.19,0H22a3.18,3.18,0,0,0-3.18,3.18V64.91A3.18,3.18,0,0,0,22,68.09h6.19Z"/><rect class="cls-2" x="43" y="44.59" width="95.15" height="13.42" rx="1.62" ry="1.62"/><rect id="_Rectangle_2" data-name="&lt;Rectangle&gt;" class="cls-3" x="18.81" y="121.95" width="185.52" height="68.09" rx="3.18" ry="3.18" transform="translate(223.14 311.98) rotate(180)"/><path class="cls-2" d="M27.54,121.95H22a3.18,3.18,0,0,0-3.18,3.18v61.73A3.18,3.18,0,0,0,22,190h5.55Z"/><rect class="cls-4" x="18.81" y="135.72" width="185.52" height="17.37"/><rect id="_Rectangle_3" data-name="&lt;Rectangle&gt;" class="cls-5" y="37.97" width="223.14" height="108.02" rx="4.39" ry="4.39"/><path class="cls-6" d="M11.89,38H4.39A4.39,4.39,0,0,0,0,42.37V141.6A4.39,4.39,0,0,0,4.39,146h7.49Z"/><rect class="cls-6" x="25.09" y="49.52" width="26.03" height="26.03" rx="3.28" ry="3.28"/><rect class="cls-7" x="43" y="12.49" width="20.94" height="20.94" rx="2.64" ry="2.64"/><rect id="_Rectangle_4" data-name="&lt;Rectangle&gt;" class="cls-6" x="172.33" y="49.52" width="39.86" height="39.86" rx="5.02" ry="5.02"/><path class="cls-8" d="M182.95,85.34a23.61,23.61,0,0,0-6.43,4,5,5,0,0,0,.84.08h30a23.62,23.62,0,0,0-6.48-4,6,6,0,0,1-3.16-3H203a1.71,1.71,0,0,0,1.5-2.52,9.66,9.66,0,0,1-1.08-4.46V67a11.9,11.9,0,0,0-3.07-8.12,11.44,11.44,0,0,0-8.48-3.69,11,11,0,0,0-6,1.85l0,0q-.32.21-.62.44l-.53.42-.12.11a11.39,11.39,0,0,0-2.66,3.33c-.1.18-.18.36-.27.54l-.12.26A11.75,11.75,0,0,0,180.36,67v8.45a9.6,9.6,0,0,1-1.09,4.46,1.71,1.71,0,0,0,1.5,2.52h5.31A6,6,0,0,1,182.95,85.34Z"/><rect class="cls-9" x="25.87" y="116.41" width="123.41" height="17.4" rx="2.1" ry="2.1"/><rect class="cls-7" x="43" y="164.53" width="95.15" height="13.42" rx="1.62" ry="1.62"/><line class="cls-10" x1="66.63" y1="56.49" x2="149.28" y2="56.49"/><line class="cls-10" x1="66.63" y1="68.09" x2="114.23" y2="68.09"/><polyline class="cls-11" points="44.28 94.22 38.15 100.35 31.89 94.09"/><polyline class="cls-11" points="44.23 86.39 38.1 92.52 31.84 86.25"/><polyline class="cls-12" points="31.66 61.53 36.88 66.75 45.62 58"/></g></g></svg>