<svg xmlns="http://www.w3.org/2000/svg" xmlns:xlink="http://www.w3.org/1999/xlink" viewBox="0 0 243.81 184.62"><defs><style>.cls-1{isolation:isolate;}.cls-2{fill:url(#linear-gradient);}.cls-3{fill:#0065ff;}.cls-4{mix-blend-mode:multiply;fill:url(#linear-gradient-2);}.cls-5{fill:#ebecf0;}.cls-6{fill:#253858;}.cls-7{fill:#c1c7d0;}.cls-8{fill:#f4f5f7;}.cls-13,.cls-14,.cls-9{fill:none;stroke-miterlimit:10;stroke-width:2px;}.cls-9{stroke:#c1c7d0;}.cls-10{fill:#00b8d9;}.cls-11{fill:#fff;}.cls-12{fill:#42526e;}.cls-13{stroke:#4c9aff;}.cls-14{stroke:#a5adba;}</style><linearGradient id="linear-gradient" x1="14.8" y1="199.42" x2="229.01" y2="-14.8" gradientUnits="userSpaceOnUse"><stop offset="0" stop-color="#c1c7d0"/><stop offset="1" stop-color="#fafbfc"/></linearGradient><linearGradient id="linear-gradient-2" x1="44.68" y1="105.43" x2="187.13" y2="-37.01" gradientUnits="userSpaceOnUse"><stop offset="0" stop-color="#ebecf0" stop-opacity="0.1"/><stop offset="1" stop-color="#ebecf0"/></linearGradient></defs><title>Help Desk Window</title><g class="cls-1"><g id="Layer_2" data-name="Layer 2"><g id="Software"><rect class="cls-2" width="243.81" height="184.62"/><rect class="cls-3" x="87.49" y="-67.82" width="68.82" height="243.81" transform="translate(175.99 -67.82) rotate(90)"/><path class="cls-4" d="M243.81,36.75c-69.18-6-108.85.91-132.52,8.71-4.66,1.53-10.66,3.75-20.52,6.35C55.15,61.23,22.18,61.75,0,60.75V19.67H243.81Z"/><rect class="cls-5" width="243.81" height="19.67"/><circle class="cls-6" cx="15.69" cy="9.76" r="5.11"/><circle class="cls-7" cx="32.37" cy="9.76" r="5.11"/><circle class="cls-3" cx="49.05" cy="9.76" r="5.11"/><rect class="cls-8" x="41.66" y="42.38" width="152.91" height="22.74" rx="2" ry="2"/><line class="cls-9" x1="48.97" y1="46.25" x2="48.97" y2="61.24"/><circle class="cls-9" cx="182.34" cy="52.61" r="5.66"/><line class="cls-9" x1="186.07" y1="56.88" x2="189.74" y2="60.55"/><circle class="cls-10" cx="104.42" cy="120.59" r="5.39"/><circle class="cls-11" cx="104.42" cy="138.13" r="5.39"/><circle class="cls-12" cx="104.42" cy="155.66" r="5.39"/><line class="cls-13" x1="41.66" y1="124.96" x2="76.81" y2="124.96"/><line class="cls-13" x1="41.66" y1="133.74" x2="76.81" y2="133.74"/><line class="cls-13" x1="41.66" y1="142.52" x2="76.81" y2="142.52"/><line class="cls-13" x1="41.66" y1="151.29" x2="76.81" y2="151.29"/><line class="cls-13" x1="41.66" y1="160.07" x2="76.81" y2="160.07"/><line class="cls-13" x1="41.66" y1="116.18" x2="76.81" y2="116.18"/><line class="cls-14" x1="118.11" y1="124.96" x2="176.68" y2="124.96"/><line class="cls-13" x1="118.11" y1="133.74" x2="194.56" y2="133.74"/><line class="cls-14" x1="118.11" y1="142.52" x2="176.68" y2="142.52"/><line class="cls-13" x1="118.11" y1="151.29" x2="194.56" y2="151.29"/><line class="cls-14" x1="118.11" y1="160.07" x2="176.68" y2="160.07"/><line class="cls-13" x1="118.11" y1="116.18" x2="194.56" y2="116.18"/></g></g></g></svg>