<svg fill="none" height="246" viewBox="0 0 463 246" width="463" xmlns="http://www.w3.org/2000/svg" xmlns:xlink="http://www.w3.org/1999/xlink"><linearGradient id="a"><stop offset="0" stop-color="#b0bfde"/><stop offset="1" stop-color="#c4d1e1"/></linearGradient><linearGradient id="b" gradientUnits="userSpaceOnUse" x1="384.144" x2="383.952" xlink:href="#a" y1="23.6171" y2="1.72857"/><linearGradient id="c" gradientUnits="userSpaceOnUse" x1="383.979" x2="383.786" xlink:href="#a" y1="23.6048" y2="1.72931"/><linearGradient id="d" gradientUnits="userSpaceOnUse" x1="384.623" x2="384.43" xlink:href="#a" y1="23.6273" y2="1.72538"/><linearGradient id="e" gradientUnits="userSpaceOnUse" x1="395.047" x2="394.855" xlink:href="#a" y1="23.5349" y2="1.63348"/><linearGradient id="f" gradientUnits="userSpaceOnUse" x1="385.313" x2="385.12" xlink:href="#a" y1="23.612" y2="1.71864"/><linearGradient id="g" gradientUnits="userSpaceOnUse" x1="386.459" x2="386.266" xlink:href="#a" y1="23.6087" y2="1.70896"/><linearGradient id="h" gradientUnits="userSpaceOnUse" x1="387.653" x2="387.46" xlink:href="#a" y1="23.5965" y2="1.69849"/><linearGradient id="i" gradientUnits="userSpaceOnUse" x1="388.769" x2="388.576" xlink:href="#a" y1="23.5745" y2="1.68715"/><linearGradient id="j" gradientUnits="userSpaceOnUse" x1="389.822" x2="389.629" xlink:href="#a" y1="23.5892" y2="1.6799"/><linearGradient id="k" gradientUnits="userSpaceOnUse" x1="390.83" x2="390.638" xlink:href="#a" y1="23.5666" y2="1.67027"/><linearGradient id="l" gradientUnits="userSpaceOnUse" x1="391.812" x2="391.619" xlink:href="#a" y1="23.549" y2="1.66288"/><linearGradient id="m" gradientUnits="userSpaceOnUse" x1="392.772" x2="392.58" xlink:href="#a" y1="23.5619" y2="1.65285"/><linearGradient id="n" gradientUnits="userSpaceOnUse" x1="393.721" x2="393.528" xlink:href="#a" y1="23.5543" y2="1.64451"/><linearGradient id="o" gradientUnits="userSpaceOnUse" x1="394.666" x2="394.473" xlink:href="#a" y1="23.5279" y2="1.63737"/><linearGradient id="p" gradientUnits="userSpaceOnUse" x1="395.609" x2="395.416" xlink:href="#a" y1="23.5187" y2="1.62995"/><linearGradient id="q" gradientUnits="userSpaceOnUse" x1="396.565" x2="396.372" xlink:href="#a" y1="23.5232" y2="1.61959"/><linearGradient id="r" gradientUnits="userSpaceOnUse" x1="397.551" x2="397.358" xlink:href="#a" y1="23.5076" y2="1.61271"/><linearGradient id="s" gradientUnits="userSpaceOnUse" x1="398.576" x2="398.383" xlink:href="#a" y1="23.4936" y2="1.60619"/><linearGradient id="t" gradientUnits="userSpaceOnUse" x1="399.668" x2="399.475" xlink:href="#a" y1="23.4906" y2="1.59555"/><linearGradient id="u" gradientUnits="userSpaceOnUse" x1="400.912" x2="400.72" xlink:href="#a" y1="23.4845" y2="1.58234"/><linearGradient id="v" gradientUnits="userSpaceOnUse" x1="403.31" x2="403.117" xlink:href="#a" y1="23.4623" y2="1.56109"/><linearGradient id="w" gradientUnits="userSpaceOnUse" x1="405.169" x2="404.976" xlink:href="#a" y1="23.4465" y2="1.54406"/><linearGradient id="x" gradientUnits="userSpaceOnUse" x1="415.876" x2="415.72" xlink:href="#a" y1="41.1802" y2="23.4858"/><linearGradient id="y" gradientUnits="userSpaceOnUse" x1="408.703" x2="408.548" xlink:href="#a" y1="41.2264" y2="23.5473"/><linearGradient id="z" gradientUnits="userSpaceOnUse" x1="409.475" x2="409.319" xlink:href="#a" y1="41.2124" y2="23.5394"/><linearGradient id="A" gradientUnits="userSpaceOnUse" x1="410.354" x2="410.199" xlink:href="#a" y1="41.2033" y2="23.5317"/><linearGradient id="B" gradientUnits="userSpaceOnUse" x1="411.172" x2="411.017" xlink:href="#a" y1="41.2042" y2="23.5253"/><linearGradient id="C" gradientUnits="userSpaceOnUse" x1="411.932" x2="411.776" xlink:href="#a" y1="41.1935" y2="23.5187"/><linearGradient id="D" gradientUnits="userSpaceOnUse" x1="412.648" x2="412.493" xlink:href="#a" y1="41.1932" y2="23.5137"/><linearGradient id="E" gradientUnits="userSpaceOnUse" x1="413.339" x2="413.183" xlink:href="#a" y1="41.2033" y2="23.5084"/><linearGradient id="F" gradientUnits="userSpaceOnUse" x1="414.008" x2="413.853" xlink:href="#a" y1="41.1771" y2="23.5009"/><linearGradient id="G" gradientUnits="userSpaceOnUse" x1="414.664" x2="414.508" xlink:href="#a" y1="41.1876" y2="23.4963"/><linearGradient id="H" gradientUnits="userSpaceOnUse" x1="415.31" x2="415.154" xlink:href="#a" y1="41.1943" y2="23.4913"/><linearGradient id="I" gradientUnits="userSpaceOnUse" x1="415.952" x2="415.797" xlink:href="#a" y1="41.1763" y2="23.4853"/><linearGradient id="J" gradientUnits="userSpaceOnUse" x1="416.601" x2="416.445" xlink:href="#a" y1="41.169" y2="23.4797"/><linearGradient id="K" gradientUnits="userSpaceOnUse" x1="417.252" x2="417.097" xlink:href="#a" y1="41.1717" y2="23.4735"/><linearGradient id="L" gradientUnits="userSpaceOnUse" x1="417.917" x2="417.762" xlink:href="#a" y1="41.165" y2="23.4674"/><linearGradient id="M" gradientUnits="userSpaceOnUse" x1="418.617" x2="418.461" xlink:href="#a" y1="41.1585" y2="23.4617"/><linearGradient id="N" gradientUnits="userSpaceOnUse" x1="419.363" x2="419.207" xlink:href="#a" y1="41.1538" y2="23.4546"/><linearGradient id="O" gradientUnits="userSpaceOnUse" x1="420.209" x2="420.054" xlink:href="#a" y1="41.1429" y2="23.4481"/><linearGradient id="P" gradientUnits="userSpaceOnUse" x1="421.836" x2="421.681" xlink:href="#a" y1="41.1268" y2="23.4342"/><linearGradient id="Q" gradientUnits="userSpaceOnUse" x1="423.131" x2="422.975" xlink:href="#a" y1="41.1158" y2="23.4249"/><linearGradient id="R" gradientUnits="userSpaceOnUse" x1="423.304" x2="423.148" xlink:href="#a" y1="41.1176" y2="23.4136"/><linearGradient id="S" gradientUnits="userSpaceOnUse" x1="423.358" x2="423.202" xlink:href="#a" y1="41.1156" y2="23.422"/><linearGradient id="T" gradientUnits="userSpaceOnUse" x1="423.335" x2="423.18" xlink:href="#a" y1="41.114" y2="23.4289"/><linearGradient id="U" gradientUnits="userSpaceOnUse" x1="423.297" x2="423.142" xlink:href="#a" y1="41.115" y2="23.4327"/><linearGradient id="V" gradientUnits="userSpaceOnUse" x1="426.536" x2="426.44" xlink:href="#a" y1="53.4195" y2="42.574"/><linearGradient id="W" gradientUnits="userSpaceOnUse" x1="423.464" x2="423.368" xlink:href="#a" y1="53.4538" y2="42.6024"/><linearGradient id="X" gradientUnits="userSpaceOnUse" x1="423.728" x2="423.633" xlink:href="#a" y1="53.4505" y2="42.5998"/><linearGradient id="Y" gradientUnits="userSpaceOnUse" x1="424.102" x2="424.007" xlink:href="#a" y1="53.4228" y2="42.5927"/><linearGradient id="Z" gradientUnits="userSpaceOnUse" x1="424.446" x2="424.351" xlink:href="#a" y1="53.4427" y2="42.5928"/><linearGradient id="aa" gradientUnits="userSpaceOnUse" x1="424.776" x2="424.681" xlink:href="#a" y1="53.4299" y2="42.5887"/><linearGradient id="ab" gradientUnits="userSpaceOnUse" x1="425.092" x2="424.996" xlink:href="#a" y1="53.4176" y2="42.5845"/><linearGradient id="ac" gradientUnits="userSpaceOnUse" x1="425.398" x2="425.303" xlink:href="#a" y1="53.4143" y2="42.5822"/><linearGradient id="ad" gradientUnits="userSpaceOnUse" x1="425.698" x2="425.603" xlink:href="#a" y1="53.4229" y2="42.5818"/><linearGradient id="ae" gradientUnits="userSpaceOnUse" x1="425.995" x2="425.899" xlink:href="#a" y1="53.4401" y2="42.5805"/><linearGradient id="af" gradientUnits="userSpaceOnUse" x1="426.289" x2="426.193" xlink:href="#a" y1="53.4293" y2="42.577"/><linearGradient id="ag" gradientUnits="userSpaceOnUse" x1="426.584" x2="426.489" xlink:href="#a" y1="53.4264" y2="42.5746"/><linearGradient id="ah" gradientUnits="userSpaceOnUse" x1="426.883" x2="426.787" xlink:href="#a" y1="53.4231" y2="42.5719"/><linearGradient id="ai" gradientUnits="userSpaceOnUse" x1="427.189" x2="427.093" xlink:href="#a" y1="53.4213" y2="42.5688"/><linearGradient id="aj" gradientUnits="userSpaceOnUse" x1="427.508" x2="427.413" xlink:href="#a" y1="53.4111" y2="42.5653"/><linearGradient id="ak" gradientUnits="userSpaceOnUse" x1="427.85" x2="427.754" xlink:href="#a" y1="53.4074" y2="42.5627"/><linearGradient id="al" gradientUnits="userSpaceOnUse" x1="428.232" x2="428.137" xlink:href="#a" y1="53.3985" y2="42.5606"/><linearGradient id="am" gradientUnits="userSpaceOnUse" x1="428.975" x2="428.879" xlink:href="#a" y1="53.3979" y2="42.5527"/><linearGradient id="an" gradientUnits="userSpaceOnUse" x1="429.569" x2="429.474" xlink:href="#a" y1="53.3907" y2="42.5507"/><linearGradient id="ao" gradientUnits="userSpaceOnUse" x1="429.649" x2="429.553" xlink:href="#a" y1="53.3947" y2="42.5457"/><linearGradient id="ap" gradientUnits="userSpaceOnUse" x1="429.674" x2="429.578" xlink:href="#a" y1="53.3933" y2="42.5452"/><linearGradient id="aq" gradientUnits="userSpaceOnUse" x1="429.664" x2="429.568" xlink:href="#a" y1="53.3926" y2="42.5462"/><linearGradient id="ar" gradientUnits="userSpaceOnUse" x1="429.632" x2="429.537" xlink:href="#a" y1="53.3919" y2="42.5486"/><linearGradient id="as" gradientUnits="userSpaceOnUse" x1="429.583" x2="429.487" xlink:href="#a" y1="53.3949" y2="42.5427"/><linearGradient id="at" gradientUnits="userSpaceOnUse" x1="429.517" x2="429.421" xlink:href="#a" y1="53.3924" y2="42.5525"/><linearGradient id="au" gradientUnits="userSpaceOnUse" x1="429.437" x2="429.341" xlink:href="#a" y1="53.3919" y2="42.5532"/><linearGradient id="av" gradientUnits="userSpaceOnUse" x1="429.341" x2="429.246" xlink:href="#a" y1="53.3939" y2="42.554"/><linearGradient id="aw" gradientUnits="userSpaceOnUse" x1="429.231" x2="429.136" xlink:href="#a" y1="53.3953" y2="42.5565"/><linearGradient id="ax" gradientUnits="userSpaceOnUse" x1="429.105" x2="429.01" xlink:href="#a" y1="53.3968" y2="42.5512"/><linearGradient id="ay" gradientUnits="userSpaceOnUse" x1="428.961" x2="428.866" xlink:href="#a" y1="53.3986" y2="42.5542"/><linearGradient id="az" gradientUnits="userSpaceOnUse" x1="428.797" x2="428.702" xlink:href="#a" y1="53.3985" y2="42.562"/><linearGradient id="aA" gradientUnits="userSpaceOnUse" x1="428.611" x2="428.515" xlink:href="#a" y1="53.4013" y2="42.5631"/><linearGradient id="aB" gradientUnits="userSpaceOnUse" x1="428.395" x2="428.299" xlink:href="#a" y1="53.4028" y2="42.5652"/><linearGradient id="aC" gradientUnits="userSpaceOnUse" x1="428.139" x2="428.043" xlink:href="#a" y1="53.406" y2="42.5629"/><linearGradient id="aD" gradientUnits="userSpaceOnUse" x1="427.825" x2="427.73" xlink:href="#a" y1="53.4081" y2="42.5561"/><linearGradient id="aE" gradientUnits="userSpaceOnUse" x1="427.418" x2="427.323" xlink:href="#a" y1="53.4137" y2="42.5809"/><linearGradient id="aF" gradientUnits="userSpaceOnUse" x1="425.493" x2="425.398" xlink:href="#a" y1="53.4295" y2="42.5871"/><linearGradient id="aG"><stop offset="0" stop-color="#12c0ae"/><stop offset="1" stop-color="#28acbd"/></linearGradient><linearGradient id="aH" gradientUnits="userSpaceOnUse" x1="45.3183" x2="65.0419" xlink:href="#aG" y1="138.095" y2="138.095"/><linearGradient id="aI" gradientUnits="userSpaceOnUse" x1="61.1164" x2="64.0095" xlink:href="#aG" y1="136.557" y2="136.557"/><linearGradient id="aJ" gradientUnits="userSpaceOnUse" x1="36.9882" x2="41.986" xlink:href="#aG" y1="134.706" y2="134.706"/><linearGradient id="aK" gradientUnits="userSpaceOnUse" x1="42.2734" x2="44.1051" xlink:href="#aG" y1="134.173" y2="134.173"/><linearGradient id="aL"><stop offset="0" stop-color="#f95830"/><stop offset="1" stop-color="#e04037"/></linearGradient><linearGradient id="aM" gradientUnits="userSpaceOnUse" x1="287.52" x2="317.685" xlink:href="#aL" y1="193.185" y2="193.185"/><linearGradient id="aN" gradientUnits="userSpaceOnUse" x1="287.52" x2="317.685" xlink:href="#aL" y1="198.242" y2="198.242"/><path d="m103.018 33.6973h-84.9555v97.2627h84.9555z" fill="#edf4fc"/><path d="m69.4441 44.1641h-38.9314v1.5827h38.9314z" fill="#d9e1e4"/><path d="m43.1157 40.7422h-12.603v1.5827h12.603z" fill="#d9e1e4"/><g fill="#bac2c6"><path d="m92.8129 118.043h-60.8207v-68.9776h60.8207zm-60.7187-.051h60.6677v-68.8245h-60.6677z"/><path d="m92.8127 108.138h-60.7697v.051h60.7697z"/><path d="m92.8127 98.2842h-60.7697v.051h60.7697z"/><path d="m92.8127 88.4814h-60.7697v.0511h60.7697z"/><path d="m92.8127 78.627h-60.7697v.051h60.7697z"/><path d="m92.8127 68.7734h-60.7697v.0511h60.7697z"/><path d="m92.8127 58.9189h-60.7697v.0511h60.7697z"/><path d="m72.5564 49.1162h-.051v68.9268h.051z"/><path d="m52.2996 49.1162h-.0511v68.9268h.0511z"/><path d="m31.987 49.1062-3.1389 3.1409.0361.0361 3.1389-3.1409z"/><path d="m31.9981 58.9591-3.1407 3.1395.0361.0362 3.1406-3.1396z"/><path d="m32.0049 68.8126-3.1406 3.1395.036.0362 3.1407-3.1396z"/><path d="m31.9751 78.628-3.1406 3.1396.036.0361 3.1407-3.1396z"/><path d="m31.981 88.4786-3.1407 3.1396.0361.0361 3.1407-3.1396z"/><path d="m31.9883 98.3312-3.1406 3.1398.036.036 3.1407-3.1397z"/><path d="m31.9942 108.184-3.1407 3.139.0361.036 3.1406-3.139z"/><path d="m26.0735 111.611-.3062.153-.051-.204.4082-.205h.2041v1.787h-.2551z"/><path d="m28.1655 112.274c0 .612-.2041.919-.6123.919-.3572 0-.5613-.307-.6123-.919 0-.613.2551-.92.6123-.92.4082 0 .6123.307.6123.92zm-.9695 0c0 .459.1531.714.3572.714.2551 0 .3572-.306.3572-.766 0-.459-.1021-.714-.3572-.714-.2041.051-.3572.306-.3572.766z"/><path d="m25.563 103.39v-.153l.2041-.205c.4592-.459.6633-.663.6633-.919 0-.204-.1021-.357-.3572-.357-.153 0-.3061.102-.3571.153l-.1021-.153c.1021-.102.3062-.204.5103-.204.4081 0 .5612.255.5612.51 0 .307-.2551.613-.6123.97l-.153.154h.8163v.204z"/><path d="m28.1655 102.471c0 .612-.2041.919-.6123.919-.3572 0-.5613-.307-.6123-.919 0-.613.2551-.919.6123-.919.4082 0 .6123.357.6123.919zm-.9695.051c0 .459.1531.715.3572.715.2551 0 .3572-.307.3572-.766 0-.46-.1021-.715-.3572-.715-.2041 0-.3572.255-.3572.766z"/><path d="m25.6143 93.3318c.051.051.2041.1021.4082.1021.3061 0 .4081-.2042.4081-.3574 0-.2553-.2041-.3574-.4592-.3574h-.153v-.2042h.153c.1531 0 .4082-.1021.4082-.3064 0-.1531-.102-.2552-.3061-.2552-.1531 0-.2551.051-.3572.1021l-.051-.1532c.102-.0511.2551-.1532.4592-.1532.3572 0 .5102.2043.5102.4085s-.102.3574-.3061.4084c.2041.0511.4082.2043.4082.4595 0 .3064-.2041.5617-.6633.5617-.2041 0-.3572-.0511-.4592-.1022z"/><path d="m28.1655 92.7188c0 .6127-.2041.919-.6123.919-.3572 0-.5613-.3063-.6123-.919 0-.6127.2551-.919.6123-.919.4082 0 .6123.3063.6123.919zm-.9695 0c0 .4595.1531.7148.3572.7148.2551 0 .3572-.3063.3572-.7658s-.1021-.7148-.3572-.7148c-.2041.051-.3572.3063-.3572.7658z"/><path d="m26.3286 83.8348v-.5105h-.8164v-.1532l.8164-1.1232h.2041v1.1232h.2551v.2042h-.2551v.5106h-.2041zm0-.6637v-.6127c0-.1021 0-.2042 0-.2553-.051.1021-.1021.2043-.1531.2553l-.4592.6127z"/><path d="m28.1655 82.9151c0 .6127-.2041.919-.6123.919-.3572 0-.5613-.3063-.6123-.919 0-.6127.2551-.919.6123-.919.4082 0 .6123.3574.6123.919zm-.9695.0511c0 .4595.1531.7148.3572.7148.2551 0 .3572-.3064.3572-.7659s-.1021-.7148-.3572-.7148c-.2041 0-.3572.2553-.3572.7659z"/><path d="m26.6347 72.5004h-.6633l-.051.4595h.1531c.153 0 .2551.0511.4082.1021.153.1021.2551.2553.2551.4595 0 .3574-.2551.6127-.6633.6127-.2041 0-.3572-.051-.4592-.1021l.051-.2042c.051.051.2041.1021.3572.1021.204 0 .4081-.1532.4081-.4085 0-.2552-.153-.4084-.5102-.4084-.102 0-.2041 0-.2551 0l.102-.868h.8674z"/><path d="m28.1655 73.1641c0 .6127-.2041.9191-.6123.9191-.3572 0-.5613-.3064-.6123-.9191 0-.6126.2551-.919.6123-.919.4082 0 .6123.3574.6123.919zm-.9695 0c0 .4596.1531.7148.3572.7148.2551 0 .3572-.3063.3572-.7658s-.1021-.7148-.3572-.7148c-.2041.051-.3572.3063-.3572.7658z"/><path d="m26.5837 62.6469c-.051 0-.102 0-.2041 0-.3572.051-.5612.3574-.6123.6127.1021-.1021.2551-.2043.4082-.2043.3062 0 .5613.2043.5613.5617 0 .3063-.2041.6126-.6123.6126-.3572 0-.6123-.3063-.6123-.7658 0-.3574.1021-.6127.3062-.8169.153-.1532.3571-.2553.5612-.2553h.1531v.2553zm-.051 1.0722c0-.2553-.1531-.4085-.3572-.4085-.1531 0-.2551.1021-.3571.2042 0 .0511-.0511.0511-.0511.1022 0 .3063.1531.5105.4082.5105.2041 0 .3572-.1531.3572-.4084z"/><path d="m28.1655 63.3614c0 .6127-.2041.919-.6123.919-.3572 0-.5613-.3063-.6123-.919 0-.6127.2551-.919.6123-.919.4082.051.6123.3574.6123.919zm-.9695.0511c0 .4595.1531.7147.3572.7147.2551 0 .3572-.3063.3572-.7658s-.1021-.7148-.3572-.7148c-.2041 0-.3572.2553-.3572.7659z"/><path d="m26.7368 52.7432v.1531l-.7654 1.6338h-.2551l.7654-1.5827h-.8674v-.2042z"/><path d="m28.1655 53.6104c0 .6127-.2041.9191-.6123.9191-.3572 0-.5613-.3064-.6123-.9191 0-.6127.2551-.919.6123-.919.4082 0 .6123.3574.6123.919zm-.9695 0c0 .4595.1531.7148.3572.7148.2551 0 .3572-.3063.3572-.7658s-.1021-.7148-.3572-.7148c-.2041.051-.3572.3063-.3572.7658z"/></g><path d="m92.8132 58.9697h-60.7697v9.854h60.7697z" fill="#fff" opacity=".34"/><path d="m92.8132 78.6279h-60.7697v9.854h60.7697z" fill="#fff" opacity=".34"/><path d="m92.8132 98.335h-60.7697v9.854h60.7697z" fill="#fff" opacity=".34"/><path d="m59.3409 58.9697h-27.2979v1.5828h27.2979z" fill="#acd5f4"/><path d="m78.9341 63.1055h-46.8911v1.5827h46.8911z" fill="#b0bfde"/><path d="m48.7789 67.2402h-16.7359v1.5828h16.7359z" fill="#d1dbea"/><path d="m81.3323 78.626h-49.2893v1.5827h49.2893z" fill="#acd5f4"/><path d="m52.2995 82.7627h-20.2565v1.5828h20.2565z" fill="#b0bfde"/><path d="m72.5561 86.8984h-40.5131v1.5828h40.5131z" fill="#d1dbea"/><path d="m52.2995 98.4873h-20.2565v1.5827h20.2565z" fill="#acd5f4"/><path d="m72.5561 102.623h-40.5131v1.583h40.5131z" fill="#b0bfde"/><path d="m65.4638 106.759h-33.4208v1.583h33.4208z" fill="#d1dbea"/><path d="m126.489 183.038c30.513 1.481 125.162 5.769 182.717 5.514 106.794-.408 193.025 15.47 135.265 24.558-16.174 2.553 28.676 25.988-84.24 24.15-99.14-1.583-199.403-16.236-247.978-22.822-48.5235-6.638-70.668-14.653-80.9239-18.278-9.0312-3.217-11.5824-18.33 95.1599-13.122z" fill="#e4efff"/><path d="m412.326 127.54c-1.021 1.225-1.684 3.063-1.684 5.157 0 3.114 1.48 5.718 3.47 6.433 1.02-1.225 1.684-3.064 1.684-5.157 0-3.114-1.48-5.718-3.47-6.433z" fill="#e4efff"/><path d="m411.357 139.947c-1.582-1.94-3.674-3.012-5.46-3.012.102 1.48.714 3.165 1.888 4.595 1.582 1.94 3.674 3.012 5.459 3.012-.051-1.481-.714-3.166-1.887-4.595z" fill="#e4efff"/><path d="m413.805 146.431c-.918-1.072-2.296-1.94-3.877-2.349-2.603-.664-5.154.051-6.634 1.583.919 1.072 2.245 1.94 3.878 2.348 2.603.664 5.205 0 6.633-1.582z" fill="#e4efff"/><path d="m419.52 143.061c-2.398.715-4.184 2.451-4.745 4.391 1.531.868 3.623 1.123 5.664.511 2.398-.715 4.184-2.451 4.745-4.391-1.531-.919-3.623-1.124-5.664-.511z" fill="#e4efff"/><path d="m418.602 136.066c-1.837 1.072-3.01 2.808-3.266 4.595 1.429.307 3.062.102 4.542-.766 1.836-1.072 3.01-2.808 3.214-4.646-1.429-.255-3.061 0-4.49.817z" fill="#e4efff"/><path d="m414.163 138.467h-.307v24.354h.307z" fill="#e4efff"/><path d="m415.596 140.39-1.721 1.443.197.235 1.721-1.443z" fill="#e4efff"/><path d="m406.56 153.324c1.735 1.226 3.827 1.532 5.562.97-.357-1.429-1.275-2.808-2.653-3.778-1.735-1.225-3.827-1.48-5.562-.919.357 1.43 1.276 2.808 2.653 3.727z" fill="#e4efff"/><path d="m413.806 155.111.153-.255-2.041-.97-.153.306z" fill="#e4efff"/><path d="m413.856 148.78.256.153 1.173-1.94-.255-.153z" fill="#e4efff"/><path d="m413.153 144.231-.196.236 1.019.85.196-.236z" fill="#e4efff"/><path d="m413.649 146.357-.108.288.382.144.109-.287z" fill="#e4efff"/><path d="m416.663 149.75c1.582-1.941 3.674-3.013 5.459-3.013-.102 1.481-.714 3.166-1.888 4.595-1.581 1.941-3.673 3.013-5.459 3.013.051-1.481.663-3.115 1.888-4.595z" fill="#e4efff"/><path d="m414.214 156.233c.918-1.072 2.296-1.94 3.878-2.348 2.602-.664 5.153.051 6.633 1.583-.919 1.072-2.245 1.94-3.878 2.348-2.653.664-5.204 0-6.633-1.583z" fill="#e4efff"/><path d="m414.061 155.162-.205-.204 1.021-.868.204.204z" fill="#e4efff"/><path d="m414.356 156.197-.383.144.108.287.383-.143z" fill="#e4efff"/><path d="m412.632 159.297c-.511-.868-1.327-1.685-2.398-2.195-1.735-.817-3.623-.715-4.848.204.51.868 1.327 1.685 2.398 2.195 1.684.817 3.572.664 4.848-.204z" fill="#e4efff"/><path d="m427.684 170.427c-5.51 3.982-12.348 4.748-18.368 2.655-.154-6.382 2.653-12.662 8.112-16.696 5.511-3.982 12.348-4.748 18.369-2.655.153 6.382-2.653 12.662-8.113 16.696z" fill="#d1dbea"/><path d="m433.679 155.208-23.414 17.09.181.247 23.414-17.089z" fill="#fff"/><path d="m429.175 153.951-.409 4.884.305.026.41-4.885z" fill="#fff"/><path d="m425.29 155.671-.508 6.055.305.025.508-6.054z" fill="#fff"/><path d="m421.622 154.525-.849 10.124.305.026.849-10.125z" fill="#fff"/><path d="m417.617 157.757-.824 9.819.305.026.824-9.82z" fill="#fff"/><path d="m413.276 165.006-.46 5.495.305.026.46-5.495z" fill="#fff"/><path d="m434.216 159.807-4.797-1.072.051-.306 4.797 1.072z" fill="#fff"/><path d="m432.889 163.381-7.45-1.736.051-.306 7.501 1.685z" fill="#fff"/><path d="m421.502 164.245-.069.299 9.347 2.157.069-.299z" fill="#fff"/><path d="m427.072 169.661-9.643-2.195.102-.307 9.592 2.196z" fill="#fff"/><path d="m421.715 172.266-8.266-1.889.102-.307 8.215 1.889z" fill="#fff"/><path d="m411.51 179.312-.46-.103c8.317-38.241 24.084-54.426 24.288-54.579l.357.357c-.204.153-15.92 16.236-24.185 54.325z" fill="#b0bfde"/><path d="m408.805 175.329h-.459c.102-22.567 9.949-42.785 10.051-42.938l.409.204c-.102.153-9.899 20.218-10.001 42.734z" fill="#b0bfde"/><path d="m417.428 176.758h-.459c.102-10.875 4.133-18.023 7.5-22.158 3.674-4.442 7.348-6.382 7.399-6.382l.204.408c-.153.051-14.491 7.659-14.644 28.132z" fill="#b0bfde"/><path d="m437.327 121.668c3.266 1.941 5.256 4.596 4.49 5.923-.765 1.327-4.082.817-7.296-1.123-3.266-1.94-5.256-4.595-4.49-5.923.765-1.327 4.082-.817 7.296 1.123z" fill="#b0bfde"/><path d="m436.358 123.302c1.02.613 1.684 1.43 1.429 1.889-.255.409-1.276.256-2.347-.357-1.021-.613-1.684-1.43-1.429-1.889.306-.409 1.326-.256 2.347.357z" fill="#0c1153"/><path d="m419.367 131.165c1.377.817 2.194 1.889 1.888 2.451-.307.561-1.684.357-3.062-.46s-2.194-1.889-1.837-2.45c.255-.562 1.633-.358 3.011.459z" fill="#b0bfde"/><path d="m418.959 131.828c.408.255.714.613.612.766s-.561.102-.969-.153-.715-.613-.612-.766c.102-.153.51-.102.969.153z" fill="#0c1153"/><path d="m433.041 147.401c1.429 1.481 2.092 3.114 1.48 3.676s-2.194-.153-3.623-1.583c-1.428-1.48-2.092-3.114-1.48-3.676.562-.613 2.195.102 3.623 1.583z" fill="#b0bfde"/><path d="m432.327 148.065c.459.459.663.97.459 1.174s-.714-.051-1.173-.511c-.46-.459-.664-.97-.46-1.174.204-.153.715.051 1.174.511z" fill="#0c1153"/><path d="m389.212 178.954c8.163 1.225 7.143 6.586 7.755 7.811 4.184 8.68 5.103 11.029 14.797 8.833 4.847-1.072 3.827 6.791 15.256 5.208 8.47-1.174 12.45 4.544 16.481 4.187 6.582-.613 12.756-10.671 10.052-13.53-1.531-1.634-14.389-2.86-6.939-5.923 9.286-3.829 5.612-6.586.357-5.616-2.092.408-21.43 2.604-17.859.051 13.063-9.344 4.133-8.782-4.286-5.106-4.643 2.042-8.623.204-9.133-1.225-1.378-3.676-10.613-4.289-15.052-5.361-19.236-4.748-28.982 8.067-11.429 10.671z" fill="#e4efff"/><path d="m444.931 186.255c-4.899-1.532-9.746-1.225-13.777-.204 9.848-5.974 21.481-14.551 11.736-16.542-3.062-.613-7.96 1.225-13.522 4.288 6.48-6.688 10.256-12.355 6.786-13.785-3.214-1.327-10.46 3.982-18.266 11.13 4.643-6.177 7.5-11.692 5.919-14.5-1.327-2.348-4.695-.102-8.777 4.238.511-4.085-.408-6.688-3.061-6.382-2.5.255-4.898 4.85-6.786 10.415-1.48-8.424-6.531-14.142-12.399-13.172l-2.909 33.289c.103.561.256 1.123.358 1.634 0 0 41.329 15.572 59.137 5.156 2.041-1.225.051-4.186-4.439-5.565z" fill="#b0bfde"/><path d="m411.407 162.412c.051-.051.102-.051.102-.102h-.051c-.561-.205-.969-.664-.816-.971.102-.306.663-.357 1.275-.153.051 0 .102.051.153.051v-.051c-.102-.612.103-1.174.409-1.225s.663.408.765 1.021v.153l.051-.051c.51-.408 1.021-.51 1.225-.255s-.051.766-.511 1.174c-.051.051-.102.051-.102.102h.051c.562.205.97.664.817.97-.102.307-.664.358-1.276.154-.051 0-.102-.051-.153-.051v.051c.102.612-.102 1.174-.408 1.225s-.663-.409-.765-1.021c0-.051 0-.102 0-.153l-.051.051c-.511.408-1.021.51-1.225.255s0-.766.51-1.174zm1.378.408c.357-.051.561-.357.51-.715-.051-.357-.357-.561-.714-.51s-.562.357-.511.715c.051.357.358.561.715.51z" fill="#fff"/><path d="m50.4631 223.73c14.0317-.613 26.4305.255 34.5944 1.634 8.2659 1.429 12.2968 3.37 11.2763 5.565-1.0715 2.195-6.8883 4.442-14.746 6.688-7.9087 2.196-17.8584 4.442-28.5224 6.025-20.7669 3.217-40.4622 1.481-45.66662-4.952-5.3065-6.382 14.33782-13.888 43.06432-14.96z" fill="#e4efff"/><path d="m88.7308 113.653c-21.8383-2.911-41.9929 12.508-44.9012 34.361-2.9084 21.852 12.5009 42.019 34.3392 44.93 21.8382 2.91 41.9932-12.509 44.9012-34.362 2.908-21.852-12.501-42.019-34.3392-44.929z" fill="#d1dbea"/><path d="m122.866 147.198-4.133 5.719-7.296 10.926-2.704-7.761-5.919 2.962-2.806-7.046-3.6231 3.523-1.5307-.613-4.7963-2.604.3062 5.361 3.6737 2.042-8.8782 15.624-3.2145 1.48-1.8879-6.484-.4592-10.518-5.0514-.868-1.6838-4.084 3.8778-7.505 4.3371-.409 2.3981 2.093 6.429-.714-6.3269-4.698-5.6127-1.736-.051-1.787 5.9188-2.45-1.8879-3.932 6.2759-4.339 5.7148 2.91 10.3072-1.787s4.337-1.634 9.184-3.421c4.949 5.667 8.266 12.56 9.439 20.116z" fill="#b0bfde"/><path d="m62.6577 119.22-2.7553 3.574-4.8473 6.637c-.102.204-.153.409-.051.613l2.143 4.748c.1021.204.3062.357.5103.357s.4082-.051.5612-.204l2.8064-3.523 3.9288 6.28-10.1028 6.893-5.2044-.204c-.2551 0-.4592.102-.5613.357l-1.5307 3.012c-.1021.205-.1021.409 0 .613l2.8573 4.799-5.2044-3.267-1.3266-2.094c1.6838-12.355 8.8782-22.567 18.7768-28.591z" fill="#b0bfde"/><path d="m55.1061 167.518-2.6022-7.301 4.7452-7.761 9.4395 11.181-11.5314 17.462-1.2756-4.493 1.2245-8.782c.0511-.102 0-.204 0-.306z" fill="#b0bfde"/><path d="m69.1374 131.319-3.2145-9.956c6.8882-2.451 11.3273-2.604 13.0111-2.553l-3.0615 8.373z" fill="#b0bfde"/><path d="m271.244 79.0867 1.837-7.3521-3.725-1.8381c0-1.0721-.051-2.1443-.204-3.2676l3.674-1.9401-2.092-7.2501-4.592.3064c-.459-.8169-1.021-1.6339-1.582-2.3997l2.398-3.8293-5.408-5.2588-4.082 2.706c-.766-.4595-1.531-.868-2.296-1.2253l.153-4.7994-7.348-1.838-2.194 4.4419c-.867 0-1.684 0-2.551.0511l-2.245-4.2377-7.245 2.0933.306 4.7993c-.817.4085-1.582.868-2.347 1.3785l-3.929-2.4507-5.205 5.412 2.5 3.7272c-.561.8679-1.071 1.7359-1.53 2.6549l-4.235-.1532-1.837 7.3522 3.623 1.787c-.103 1.1232-.103 2.2975 0 3.4718l-3.317 1.787 2.092 7.2501 3.572-.2553c.561 1.1743 1.224 2.2975 1.939 3.3187l-1.786 2.8592 5.408 5.2588 2.756-1.8381c1.122.7659 2.347 1.4296 3.571 1.9913l-.102 3.1144 7.348 1.8381 1.428-2.8592c1.378.051 2.756.051 4.133-.1532l1.429 2.7571 7.245-2.0934-.204-3.3186c1.174-.6127 2.296-1.3786 3.368-2.1444l2.806 1.7359 5.256-5.412-2.041-3.0634c.612-1.0211 1.173-2.1444 1.633-3.2676zm-23.267.6127c-5.51 1.5828-11.225-1.6338-12.807-7.1479s1.633-11.2325 7.144-12.8152c5.51-1.5828 11.225 1.6338 12.807 7.1479 1.581 5.5141-1.633 11.2835-7.144 12.8152z" fill="#e1eefe"/><path d="m240.783 54.3238c-8.521 2.3997-13.42 11.2835-11.022 19.81 2.399 8.5264 11.277 13.4279 19.798 11.0282 8.521-2.3996 13.419-11.2835 11.021-19.81-2.449-8.5264-11.276-13.4279-19.797-11.0282zm7.857 27.6216c-6.735 1.9402-13.776-1.9912-15.664-8.7306-1.939-6.7395 1.99-13.7853 8.725-15.6744 6.735-1.9402 13.777 1.9912 15.664 8.7307 1.939 6.7394-1.99 13.7853-8.725 15.6743z" fill="#d1dbea"/><path d="m324.819 48.8102 1.837-7.4032-3.724-1.838c0-1.0722-.051-2.1955-.205-3.2677l3.674-1.9401-2.041-7.3011-4.592.3063c-.459-.8679-1.02-1.6338-1.582-2.3996l2.398-3.8803-5.459-5.3099-4.082 2.757c-.765-.4595-1.531-.8679-2.347-1.2253l.153-4.7994-7.399-1.838-2.194 4.493c-.867 0-1.734 0-2.602.051l-2.296-4.2887-7.296 2.0933.306 4.8504c-.817.4084-1.582.868-2.347 1.3785l-3.929-2.4507-5.307 5.4631 2.5 3.7271c-.561.868-1.071 1.7359-1.53 2.6549l-4.286-.1531-1.837 7.4032 3.623 1.787c-.103 1.1743-.103 2.2975 0 3.4718l-3.317 1.736 2.092 7.3011 3.623-.2553c.561 1.1743 1.224 2.2975 1.939 3.3697l-1.786 2.8592 5.459 5.3099 2.756-1.8381c1.122.7659 2.347 1.4296 3.622 1.9913l-.102 3.1144 7.399 1.838 1.428-2.8591c1.378.051 2.807.051 4.184-.1532l1.48 2.7571 7.297-2.0934-.205-3.3697c1.225-.6127 2.348-1.3785 3.368-2.1954l2.806 1.787 5.307-5.4631-2.041-3.0634c.612-1.0722 1.174-2.1444 1.633-3.3187zm-22.705 2.9103c-6.787 1.9401-13.879-1.9912-15.818-8.7818-1.939-6.7905 1.99-13.8874 8.776-15.8276 6.787-1.9401 13.879 1.9913 15.818 8.7818 1.939 6.8416-1.99 13.9385-8.776 15.8276z" fill="#d1dbea"/><path d="m293.593 21.7498c-9.745 2.7571-15.409 12.9684-12.654 22.7202 2.756 9.7518 12.96 15.4191 22.706 12.6621 9.746-2.7571 15.409-12.9174 12.654-22.7202-2.806-9.7519-12.96-15.4192-22.706-12.6621zm8.981 31.7062c-7.705 2.1954-15.767-2.2976-17.961-10.0071-2.194-7.7606 2.296-15.7765 10.001-17.972 7.704-2.1954 15.766 2.2976 17.96 10.0071 2.245 7.7096-2.245 15.7766-10 17.972z" fill="#b0bfde"/><path d="m314.36 74.3379h-224.2003v126.3141h224.2003z" fill="#316091"/><path d="m314.411 74.2871h-224.2001v3.2676h224.2001z" fill="#acd5f4"/><path d="m99.599 75.8193h-5.4086v.3064h5.4086z" fill="#86bbd8"/><path d="m106.538 75.8193h-5.408v.3064h5.408z" fill="#86bbd8"/><path d="m113.478 75.8193h-5.409v.3064h5.409z" fill="#86bbd8"/><path d="m120.366 75.8193h-5.409v.3064h5.409z" fill="#86bbd8"/><path d="m127.305 75.8193h-5.409v.3064h5.409z" fill="#86bbd8"/><path d="m134.244 75.8193h-5.408v.3064h5.408z" fill="#86bbd8"/><path d="m141.183 75.8193h-5.408v.3064h5.408z" fill="#86bbd8"/><path d="m148.123 75.8193h-5.409v.3064h5.409z" fill="#86bbd8"/><path d="m92.8125 75.4102h-1.0205v1.1232h1.0205z" fill="#86bbd8"/><path d="m314.41 77.1973h-224.1996v3.9313h224.1996z" fill="#316091"/><path d="m313.594 78.0654h-14.236v2.4507h14.236z" fill="#194866"/><path d="m297.522 79.0352h-.562v.5105h.562z" fill="#596273"/><path d="m295.838 79.0352h-7.501v.5105h7.501z" fill="#194866"/><path d="m96.2314 78.626h-1.0205v1.1232h1.0205z" fill="#86c0f0"/><path d="m92.8125 78.626h-1.0205v1.1232h1.0205z" fill="#86c0f0"/><path d="m98.4765 78.626h-1.0204v1.1232h1.0204z" fill="#86c0f0"/><path d="m165.574 83.6807h-46.841v1.4806h46.841z" fill="#3dc7c9"/><path d="m130.367 89.1953h-7.756v1.4807h7.756z" fill="#2c7eea"/><path d="m130.367 94.709h-7.756v1.4806h7.756z" fill="#2c7eea"/><path d="m130.367 100.274h-7.756v1.481h7.756z" fill="#2c7eea"/><path d="m169.298 89.1953h-23.777v1.4807h23.777z" fill="#3dc7c9"/><path d="m169.298 94.709h-23.777v1.4806h23.777z" fill="#3dc7c9"/><path d="m169.298 100.274h-23.777v1.481h23.777z" fill="#3dc7c9"/><path d="m139.194 89.1953h-5.46v1.4807h5.46z" fill="#f1fafc"/><path d="m139.194 94.709h-5.46v1.4806h5.46z" fill="#f1fafc"/><path d="m139.194 100.274h-5.46v1.481h5.46z" fill="#f1fafc"/><path d="m142.97 89.1953h-1.429v1.4807h1.429z" fill="#e9d6b8"/><path d="m142.97 94.709h-1.429v1.4806h1.429z" fill="#e9d6b8"/><path d="m142.97 100.274h-1.429v1.481h1.429z" fill="#e9d6b8"/><path d="m120.366 89.1953h-1.428v1.4807h1.428z" fill="#e9d6b8"/><path d="m120.366 94.709h-1.428v1.4806h1.428z" fill="#e9d6b8"/><path d="m120.366 100.274h-1.428v1.481h1.428z" fill="#e9d6b8"/><path d="m134.602 111.303h-11.991v1.48h11.991z" fill="#2c7eea"/><path d="m169.298 111.303h-18.165v1.48h18.165z" fill="#3dc7c9"/><path d="m144.857 111.303h-6.888v1.48h6.888z" fill="#f1fafc"/><path d="m148.582 111.303h-1.429v1.48h1.429z" fill="#e9d6b8"/><path d="m226.19 122.331h-56.178v1.481h56.178z" fill="#3dc7c9"/><path d="m165.573 122.331h-26.941v1.481h26.941z" fill="#f1fafc"/><path d="m208.586 111.303h-18.164v1.48h18.164z" fill="#3dc7c9"/><path d="m184.095 111.303h-9.694v1.48h9.694z" fill="#f1fafc"/><path d="m187.871 111.303h-1.429v1.48h1.429z" fill="#e9d6b8"/><path d="m211.853 111.303h-1.429v1.48h1.429z" fill="#e9d6b8"/><path d="m120.366 111.303h-1.428v1.48h1.428z" fill="#e9d6b8"/><path d="m134.602 133.41h-11.991v1.481h11.991z" fill="#2c7eea"/><path d="m120.366 133.41h-1.428v1.481h1.428z" fill="#f1fafc"/><path d="m138.327 133.41h-1.429v1.481h1.429z" fill="#f1fafc"/><path d="m125.468 155.518h-11.99v1.48h11.99z" fill="#2c7eea"/><path d="m111.233 155.518h-1.48v1.48h1.48z" fill="#f1fafc"/><path d="m129.143 155.518h-1.429v1.48h1.429z" fill="#f1fafc"/><path d="m130.367 127.896h-1.429v1.481h1.429z" fill="#e9d6b8"/><path d="m135.98 116.816h-7.042v1.481h7.042z" fill="#2c7eea"/><path d="m166.134 116.816h-27.502v1.481h27.502z" fill="#e9d6b8"/><path d="m209.811 89.1953h-23.777v1.4807h23.777z" fill="#3dc7c9"/><path d="m209.811 94.709h-23.777v1.4806h23.777z" fill="#3dc7c9"/><path d="m209.811 100.274h-23.777v1.481h23.777z" fill="#3dc7c9"/><path d="m252.672 89.1953h-41.585v1.4807h41.585z" fill="#3dc7c9"/><path d="m267.979 94.709h-56.892v1.4806h56.892z" fill="#3dc7c9"/><path d="m278.235 100.274h-67.148v1.481h67.148z" fill="#3dc7c9"/><path d="m179.707 89.1953h-5.46v1.4807h5.46z" fill="#f1fafc"/><path d="m179.707 94.709h-5.46v1.4806h5.46z" fill="#f1fafc"/><path d="m179.707 100.274h-5.46v1.481h5.46z" fill="#f1fafc"/><path d="m183.483 89.1953h-1.429v1.4807h1.429z" fill="#e9d6b8"/><path d="m183.483 94.709h-1.429v1.4806h1.429z" fill="#e9d6b8"/><path d="m183.483 100.274h-1.429v1.481h1.429z" fill="#e9d6b8"/><path d="m259.56 89.1953h-1.48v1.4807h1.48z" fill="#e9d6b8"/><path d="m273.541 94.709h-1.48v1.4806h1.48z" fill="#e9d6b8"/><path d="m283.031 100.274h-1.429v1.481h1.429z" fill="#e9d6b8"/><path d="m165.574 105.788h-46.841v1.481h46.841z" fill="#7ec8ef"/><path d="m120.876 167.26h-7.755v1.48h7.755z" fill="#2c7eea"/><path d="m138.99 178.289h-7.756v1.481h7.756z" fill="#2c7eea"/><path d="m205.576 178.289h-51.432v1.481h51.432z" fill="#3dc7c9"/><path d="m194.708 172.774h-75.414v1.481h75.414z" fill="#f1fafc"/><path d="m147.817 178.289h-5.46v1.481h5.46z" fill="#f1fafc"/><path d="m151.593 178.289h-1.429v1.481h1.429z" fill="#e9d6b8"/><path d="m110.876 167.26h-1.48v1.48h1.48z" fill="#e9d6b8"/><path d="m124.04 167.26h-1.429v1.48h1.429z" fill="#e9d6b8"/><path d="m145.164 183.803h-3.521v1.48h3.521z" fill="#2c7eea"/><path d="m139.398 183.803h-1.429v1.48h1.429z" fill="#e9d6b8"/><path d="m148.378 183.803h-1.428v1.48h1.428z" fill="#e9d6b8"/><path d="m155.011 194.883h-3.52v1.48h3.52z" fill="#2c7eea"/><path d="m149.246 194.883h-1.429v1.48h1.429z" fill="#e9d6b8"/><path d="m158.226 194.883h-1.429v1.48h1.429z" fill="#e9d6b8"/><path d="m128.989 178.289h-1.429v1.481h1.429z" fill="#e9d6b8"/><path d="m264.611 189.317h-116.641v1.481h116.641z" fill="#f1fafc"/><path d="m208.791 178.289h-1.429v1.481h1.429z" fill="#e9d6b8"/><path d="m183.228 138.924h-64.495v1.48h64.495z" fill="#7ec8ef"/><path d="m214.2 144.438h-95.467v1.48h95.467z" fill="#7ec8ef"/><path d="m151.134 149.952h-32.401v1.481h32.401z" fill="#7ec8ef"/><path d="m96.5382 83.6816h-3.5206v1.4807h3.5206z" fill="#2c7eea"/><path d="m96.5377 89.1953h-3.5206v1.4807h3.5206z" fill="#2c7eea"/><path d="m96.5377 94.709h-3.5206v1.4806h3.5206z" fill="#2c7eea"/><path d="m96.5377 100.274h-3.5206v1.481h3.5206z" fill="#2c7eea"/><path d="m96.5377 105.788h-3.5206v1.481h3.5206z" fill="#2c7eea"/><path d="m96.5377 111.303h-3.5206v1.48h3.5206z" fill="#2c7eea"/><path d="m96.5377 116.816h-3.5206v1.481h3.5206z" fill="#2c7eea"/><path d="m96.5377 122.331h-3.5206v1.481h3.5206z" fill="#2c7eea"/><path d="m96.5377 127.896h-3.5206v1.481h3.5206z" fill="#2c7eea"/><path d="m96.5377 133.41h-3.5206v1.481h3.5206z" fill="#2c7eea"/><path d="m96.5377 138.924h-3.5206v1.48h3.5206z" fill="#2c7eea"/><path d="m96.5377 144.438h-3.5206v1.48h3.5206z" fill="#2c7eea"/><path d="m96.5377 149.952h-3.5206v1.481h3.5206z" fill="#2c7eea"/><path d="m96.5377 155.518h-3.5206v1.48h3.5206z" fill="#2c7eea"/><path d="m96.5377 161.032h-3.5206v1.481h3.5206z" fill="#2c7eea"/><path d="m96.5377 166.546h-3.5206v1.481h3.5206z" fill="#2c7eea"/><path d="m96.5377 172.06h-3.5206v1.48h3.5206z" fill="#2c7eea"/><path d="m408.142 95.4248h-213.434v105.6362h213.434z" fill="#fff"/><path d="m302.726 110.64h-103.324v57.949h103.324z" fill="#acd5f4"/><path d="m302.726 168.997h-103.324v28.337h103.324z" fill="#effaff"/><path d="m404.111 110.64h-99.293v27.264h99.293z" fill="#74b2e8"/><path d="m405.999 80.9756h-209.148c-1.174 0-2.143.919-2.143 1.9912v12.5089h213.434v-12.5089c0-1.0722-.97-1.9912-2.143-1.9912z" fill="#acd5f4"/><path d="m199.249 84.9073c0 .7148-.561 1.2764-1.276 1.2764-.714 0-1.275-.5616-1.275-1.2764s.561-1.2764 1.275-1.2764c.664 0 1.276.5616 1.276 1.2764z" fill="#86bbd8"/><path d="m203.024 84.9063c0 .7148-.561 1.2764-1.275 1.2764-.715 0-1.276-.5616-1.276-1.2764s.561-1.2764 1.276-1.2764c.714 0 1.275.5616 1.275 1.2764z" fill="#86bbd8"/><path d="m206.852 84.9063c0 .7148-.562 1.2764-1.276 1.2764s-1.276-.5616-1.276-1.2764.562-1.2764 1.276-1.2764c.663 0 1.276.5616 1.276 1.2764z" fill="#86bbd8"/><path d="m379.109 88.0215h-166.797v5.6162h166.797z" fill="#fff"/><path d="m198.433 92.6168-2.041-2.0423 2.041-2.0423.714.7659-1.276 1.2764 1.276 1.2764z" fill="#86bbd8"/><path d="m201.341 90.0645h-3.776v1.0721h3.776z" fill="#86bbd8"/><path d="m207.005 92.6158-.714-.7659 1.276-1.2764-1.276-1.2764.714-.7659 2.041 2.0423z" fill="#86bbd8"/><path d="m207.872 90.0635h-3.775v1.0722h3.775z" fill="#86bbd8"/><path d="m397.682 88.0215h-16.379v5.0035h16.379z" fill="#74b2e8"/><path d="m237.467 102.062h-16.583v1.787h16.583z" fill="#acd5f4"/><path d="m256.447 102.062h-16.583v1.787h16.583z" fill="#acd5f4"/><path d="m275.479 102.062h-16.583v1.787h16.583z" fill="#acd5f4"/><path d="m294.511 102.062h-16.583v1.787h16.583z" fill="#acd5f4"/><path d="m313.492 102.062h-16.582v1.787h16.582z" fill="#acd5f4"/><path d="m403.295 99.0488h-26.788v1.3272h26.788z" fill="#acd5f4"/><path d="m403.295 102.266h-21.073v1.327h21.073z" fill="#acd5f4"/><path d="m216.904 100.529h-17.502v4.8h17.502z" fill="#74b2e8"/><path d="m241.651 172.929h-37.401v1.838h37.401z" fill="#74b2e8"/><path d="m294.971 176.911h-90.721v1.379h90.721z" fill="#acd5f4"/><path d="m283.082 180.179h-79.189v1.378h79.189z" fill="#acd5f4"/><path d="m221.751 185.693h-18.165v4.953h18.165z" fill="#74b2e8"/><path d="m217.618 187.479h-9.95v1.379h9.95z" fill="#fff"/><path d="m346.964 116.154h-38.064v1.838h38.064z" fill="#fff"/><path d="m400.284 120.137h-91.384v1.378h91.384z" fill="#acd5f4"/><path d="m388.395 123.404h-79.495v1.379h79.495z" fill="#acd5f4"/><path d="m327.064 128.919h-18.164v4.952h18.164z" fill="#fff"/><path d="m322.932 130.705h-9.95v1.379h9.95z" fill="#d0dee6"/><path d="m353.342 168.997h-48.626v28.337h48.626z" fill="#effaff"/><path d="m337.27 172.929h-27.911v1.838h27.911z" fill="#74b2e8"/><path d="m341.147 176.911h-31.788v1.379h31.788z" fill="#acd5f4"/><path d="m336.963 180.179h-27.757v1.378h27.757z" fill="#acd5f4"/><path d="m327.064 185.693h-18.164v4.953h18.164z" fill="#74b2e8"/><path d="m322.932 187.479h-9.95v1.379h9.95z" fill="#fff"/><path d="m353.342 140.202h-48.626v28.388h48.626z" fill="#74b2e8"/><path d="m404.264 168.997h-48.626v28.337h48.626z" fill="#effaff"/><path d="m388.141 172.929h-27.911v1.838h27.911z" fill="#74b2e8"/><path d="m392.018 176.911h-31.788v1.379h31.788z" fill="#acd5f4"/><path d="m387.835 180.179h-27.757v1.378h27.757z" fill="#acd5f4"/><path d="m377.936 185.693h-18.165v4.953h18.165z" fill="#74b2e8"/><path d="m373.854 187.479h-9.949v1.379h9.949z" fill="#fff"/><path d="m404.264 140.202h-48.626v28.388h48.626z" fill="#74b2e8"/><path d="m322.217 148.371v13.122h16.532v-13.122zm15.359 11.998h-14.185v-10.824h14.185z" fill="#acd5f4"/><path d="m329.055 152.201c0 .765-.613 1.327-1.327 1.327-.765 0-1.327-.613-1.327-1.327 0-.766.613-1.328 1.327-1.328s1.327.613 1.327 1.328z" fill="#acd5f4"/><path d="m336.861 155.314-3.265-2.502-4.286 3.523-3.113-1.225-2.143.97v3.574h12.807z" fill="#acd5f4"/><path d="m372.936 148.371v13.122h16.531v-13.122zm15.358 11.998h-14.185v-10.824h14.185z" fill="#acd5f4"/><path d="m379.824 152.201c0 .765-.612 1.327-1.326 1.327-.766 0-1.327-.613-1.327-1.327 0-.766.612-1.328 1.327-1.328.714 0 1.326.613 1.326 1.328z" fill="#acd5f4"/><path d="m387.631 155.314-3.266-2.502-4.337 3.523-3.061-1.225-2.143.97v3.574h12.807z" fill="#acd5f4"/><path d="m257.978 141.478v-1.43c0-.459-.357-.817-.816-.817h-11.583c-.459 0-.816.358-.816.817v3.166 4.238c0 .459.357.816.816.816h11.583c.459 0 .816-.357.816-.816v-1.43l4.388 2.195v-3.318-.562-.562-4.441z" fill="#fff"/><path d="m247.876 138.874c1.53 0 2.806-1.225 2.806-2.808 0-1.532-1.225-2.808-2.806-2.808-1.531 0-2.807 1.225-2.807 2.808.051 1.583 1.276 2.808 2.807 2.808z" fill="#fff"/><path d="m253.896 138.874c1.531 0 2.807-1.225 2.807-2.808 0-1.532-1.225-2.808-2.807-2.808-1.531 0-2.806 1.225-2.806 2.808s1.224 2.808 2.806 2.808z" fill="#fff"/><path d="m125.162 73.5732s14.95.0511 20.715.1021c3.98.0511 4.338-5.6162 2.756-6.4842-4.796-2.6039-19.696-3.9313-19.696-3.9313l-10.153 9.2923c0 .051.612 0 6.378 1.0211z" fill="#2c7eea"/><path d="m139.244 43.0936s3.827-1.0722 5.511 3.9313c2.551 7.7096 2.347 14.7554 1.99 16.2871-.153.7148-.664 3.0634-4.95 3.1655-1.734.0511-1.02-3.6761-1.02-3.6761s-1.123-3.1655-2.296-8.5264c-1.225-5.412.765-11.1814.765-11.1814z" fill="#e8502e"/><path d="m142.255 43.5013-9.848-3.1655-7.449-.5106-8.164 2.4507s-2.653 1.8381-.204 7.7606c2.5 5.9226 1.53 15.2149 1.53 15.2149l21.073.6638s.409-8.5776 1.786-17.1551c.357-1.8891.357-4.1356 1.276-5.2588z" fill="#ff6440"/><path d="m127.815 65.5574h1.072c1.122-8.2712 1.071-16.8487-.153-25.1199-.306.2042-.663.4085-.97.5616.256 8.4754-.204 16.8998.051 24.5583z" fill="#e8502e"/><path d="m131.999 42.6327c-.153 1.1232-1.072 2.1443-2.041 2.1954-.919 0-1.837 0-2.806 0-.97-.0511-1.888-1.0211-2.041-2.1954-.204-1.8891-.46-3.7782-.664-5.6163-.153-1.1232.511-3.3697 1.99-4.0335 1.378-.6126 2.909-.6126 4.286 0 1.48.6638 2.143 2.9103 1.99 4.0335-.255 1.8891-.459 3.7272-.714 5.6163z" fill="#e2c59c"/><path d="m128.427 44.9816-1.735 2.8591-3.265-4.0334.51-2.1444 1.072-.868v1.6338z" fill="#e8502e"/><path d="m128.683 44.9816 1.734 2.8591 3.011-3.7781-.459-2.2976-.766-.9701-.306 1.8891z" fill="#e8502e"/><path d="m128.121 29.3584c-.765 0-1.479.4085-1.888 1.0211h-.714c-.969 0-1.735.7659-1.735 1.736v4.2887h1.225v-1.7359c0-.6637.561-1.2254 1.224-1.2254h.715-1.123.765c1.225 0 2.246-1.0211 2.246-2.2465v-1.838z" fill="#163f59"/><path d="m125.978 37.9873c0 .5616-.459 1.0722-1.072 1.0722h-.102c-.561 0-1.071-.4595-1.071-1.0722v-1.2764c0-.5617.459-1.0722 1.071-1.0722h.102c.409 0 .817.2553.97.6126z" fill="#e2c59c"/><path d="m127.203 31.0433v-1.6849h.714 1.837 1.122c1.225 0 2.245 1.0211 2.245 2.2465v1.6849h-.714-1.837-1.122c-1.276 0-2.245-.9701-2.245-2.2465z" fill="#163f59"/><path d="m132.764 39.5704c0 .8679-.663 2.3996-1.786 2.8591-1.53.6127-3.316.6127-4.847 0-1.122-.4595-1.786-1.9912-1.786-2.8591 0-2.5018 0-5.0547 0-7.5564 0-.868.868-1.6338 1.99-1.6849h4.49c1.123 0 1.99.7659 1.99 1.6849-.051 2.5528-.051 5.0546-.051 7.5564z" fill="#e9d6b8"/><path d="m129.396 29.3584c.766 0 1.48.4085 1.837 1.0211h.766c.969 0 1.735.7659 1.735 1.736v4.2887h-1.225v-1.7359c0-.6637-.561-1.2254-1.225-1.2254h.409-1.99c-1.225 0-2.245-1.0211-2.245-2.2465v-1.838z" fill="#163f59"/><path d="m131.54 36.6601c0-.5616.459-1.0722 1.071-1.0722h.102c.561 0 1.072.4595 1.072 1.0722v1.2764c0 .5616-.46 1.0722-1.072 1.0722h-.102c-.408 0-.816-.2553-.969-.6127z" fill="#e9d6b8"/><path d="m127.56 31.5028c.051-.1532.051-.3064.051-.4595v-1.6849h-.714-.868c-1.224 0-2.245 1.0211-2.245 2.2465v1.6849h.459.256.867c.153 0 .306 0 .459-.0511.153-.868.868-1.5317 1.735-1.7359z" fill="#163f59"/><path d="m107.967 102.165c-.255.255-.051 1.021-.051 1.021s4.031.459 5.306.153c.357-.102.919-.357 1.429-.664.102-.051.255-.357.357-.408.153-.102.255.051.408 0 .357-.204.612-.409.612-.409.358-1.838-.102-2.6034-.102-2.6034s-3.418-1.1233-4.081-.3574c-1.531 1.8378-3.368 2.6548-3.878 3.2678z" fill="#161711"/><path d="m145.572 100.123.255 3.063 3.061.307s.204-.409.46-.358c.204 0 .459.46.765.511.663.051 1.327.153 1.633.153.561.051 6.123.613 6.123.613s.204-.613.051-.868c-.051-.102-.562-.358-.919-.511-1.531-.613-5.868-2.399-6.531-3.9822-.765-1.9402-4.898 1.0722-4.898 1.0722z" fill="#161711"/><path d="m140.979 61.6773-10.307 4.1867s7.297 1.0211 11.838.1021c3.112-.6127-1.429-4.4419-1.531-4.2888z" fill="#e9d6b8"/><path d="m117.61 68.0601s-.969 9.3945-.867 14.347c.102 3.7271.102 10.9261-.765 17.0529-.052.3574-4.848.1021-4.848.1021s-1.735-23.2818-2.245-27.1111c-.459-3.8292 1.021-6.5863 8.725-4.3909z" fill="#2c7eea"/><path d="m147.714 70.3574s-1.53 2.4508-5.765 3.0124c-1.531.2042 2.449 27.2642 2.449 27.2642l6.225-1.9912-1.225-29.9192z" fill="#1f6cd1"/><path d="m130.468 73.3699s-8.164 1.1743-13.623 1.736c-1.99.2042-3.725-5.412-3.98-5.6163-1.48-1.5317-2.908-1.3274-2.857-1.3785 1.173-1.2764 7.296-2.4507 13.674-3.9824 6.378-1.4807 7.348-.5616 7.348-.5616z" fill="#1f6cd1"/><path d="m123.733 64.0771c-6.378 1.4807-12.501 2.706-13.675 3.9824-.051.0511 1.378-.1531 2.858 1.3786.051.051.408 1.838.714 2.5017-1.02-1.8891 13.981-7.1989 17.195-8.5264-.612-.2042-2.398-.4085-7.092.6637z" fill="#2c7eea"/><path d="m116.743 73.2672-.663 18.2783-.613 4.2377-.051-4.2377.102-2.6039-1.428-4.1356-.766-9.4966 1.123.4085-.153-4.1867z" fill="#1f6cd1"/><path d="m147.51 68.0596 1.531.4084.561 21.9544-3.214 7.8627 1.53-5.3609-.612-11.0283s-2.245 5.361-2.245 5.0546c0-.2552 1.888-11.5898 1.888-11.5898s-2.092 1.7359-1.888 1.6848c.204-.1021 1.276-7.9137 2.449-8.9859z" fill="#2c7eea"/><path d="m121.335 42.3787s-3.266-2.5528-6.48 2.1954c-4.694 6.9948-6.735 14.4491-7.501 16.5935-.561 1.6338-.255 6.331 1.684 8.2711.459.4595 3.266.1021 3.266.1021l1.837-1.2764-.766-1.4806-.051-1.1743s2.347-5.6163 5.205-10.9772c2.806-5.2588 2.806-12.2536 2.806-12.2536z" fill="#ff6440"/><path d="m113.273 63.7711 10.664.5616s-10.256 4.6972-10.613 3.8803c-1.888-4.5951-.051-4.4419-.051-4.4419z" fill="#e9d6b8"/><path d="m119.141 63.4645c.612-.3063.561-.3063.561-.3063s.562.6637 1.378.8169c.408.0511 1.735.1021 1.735.1021l1.939.0511.918-.0511s.51-.051.663 0c.409.2553.051.4595.051.4595l-3.52.5106 3.367.4085s.409.1021.46.3573c0 .2043-.102.2043-.102.2043l-3.929.4084 1.735.4085s.408.1532.459.3574c.051.2553.051.3063.051.3063l-3.623-.3574s-2.755-3.3697-2.143-3.6761z" fill="#e9d6b8"/><path d="m123.07 65.6094 2.347.4084s.561.0511.765.2043c.255.2042.102.4595.102.4595l-3.622-.3064z" fill="#e9d6b8"/><path d="m137.867 67.499v-.7148h-21.022v.6637l.051.1021c.357.5617 1.02.6638 1.735.6638h17.399c.714 0 1.377-.1021 1.735-.6638z" fill="#b6c2c9"/><path d="m134.295 66.9365h-13.878v.4595h13.878z" fill="#879ba6"/><path d="m137.867 66.8856.051-13.7853c0-.3574-.306-.6638-.663-.6638h-19.644c-.357 0-.663.3064-.663.6638l-.052 13.7853z" fill="#e4eef3"/><path d="m128.682 59.6358c0 .7148-.561 1.2764-1.276 1.2764-.714 0-1.275-.5616-1.275-1.2764s.561-1.2764 1.275-1.2764c.715 0 1.276.6127 1.276 1.2764z" fill="#b6c2c9"/><path d="m111.895 69.0808-.714-4.6462 1.225-1.2764 2.653.4595-.51 5.1567z" fill="#e8502e"/><path d="m144.551 65.7612.306-1.7359-3.419-3.0634-1.836.868 2.398 4.5951z" fill="#ff6440"/><path d="m266.397 30.2769-.051-2.5528-2.296-.1532c-.153-.8169-.51-1.5828-.919-2.2976l1.48-1.838-1.837-1.787-1.683 1.5317c-.715-.4595-1.48-.7658-2.297-.9701l-.255-2.3486-2.551.0511-.153 2.2975c-.816.1532-1.582.5106-2.296.9191l-1.837-1.4807-1.786 1.8381 1.531 1.6848c-.459.7148-.765 1.4807-.97 2.2976l-2.347.2553.051 2.5528 2.245.1532c.154.8169.511 1.5827.919 2.2975l-1.48 1.8381 1.837 1.7869 1.684-1.5317c.714.4595 1.48.7659 2.296.9701l.255 2.3486 2.551-.051.153-2.2465c.817-.1532 1.582-.5106 2.296-.9191l1.837 1.4807 1.786-1.838-1.531-1.6849c.46-.7148.766-1.4807.97-2.2976zm-9.031 2.1444c-1.837.051-3.419-1.4296-3.419-3.3187-.051-1.8381 1.429-3.4208 3.317-3.4208 1.837-.0511 3.418 1.4296 3.418 3.3187 0 1.838-1.479 3.3697-3.316 3.4208z" fill="#b0bfde"/><path d="m75.4136 30.7876v20.5759c0 1.5317 1.2245 2.757 2.7553 2.757h25.9711c1.531 0 2.755-1.2253 2.755-2.757v-6.1268l1.378-1.3786 2.755-2.757-2.755-2.7571-1.378-1.3785v-6.1268c0-1.5317-1.224-2.7571-2.755-2.7571h-25.9711c-1.5308-.051-2.7553 1.1743-2.7553 2.706z" fill="#2c7eea"/><path d="m83.9348 40.6413 4.0309 1.736v2.2464l-6.1229-3.0123v-1.8891l6.1229-3.0123v2.2465z" fill="#fff"/><path d="m90.466 46.2065h-1.6838l3.5717-13.1215h1.7348z" fill="#fff"/><path d="m99.1911 40.6409-4.0309-1.787v-2.2465l6.1738 3.0124v1.8891l-6.1738 3.0123v-2.1444z" fill="#fff"/><path d="m188.381 44.7256h-21.787c-1.327 0-2.398 1.0722-2.398 2.3997v16.9508c0 1.3274 1.071 2.3996 2.398 2.3996h7.245l1.225 1.2254 2.398 2.3996 2.398-2.3996 1.225-1.2254h7.245c1.327 0 2.398-1.0722 2.398-2.3996v-16.8998c.102-1.3785-1.02-2.4507-2.347-2.4507z" fill="#3dc7c9"/><path d="m173.329 62.1873c-.816-.2553-1.378-.7148-1.735-1.2764s-.51-1.2764-.51-2.1444v-1.5317c0-.4595-.102-.8679-.255-1.1232s-.408-.4085-.766-.4085v-1.4806c.358 0 .613-.1532.766-.4085s.255-.6637.255-1.1232v-1.5317c0-.8169.153-1.5317.51-2.1444.357-.5616.919-1.0211 1.735-1.2764l.408 1.1232c-.306.1532-.51.4085-.612.8169-.102.3574-.153.868-.153 1.4296v1.5317c0 .5106-.102.9701-.306 1.3275-.204.4084-.511.7148-.919.919.408.2042.715.5106.919.919.204.4085.306.8169.306 1.3275v1.5317c0 .5616.051 1.0722.153 1.4296s.306.6637.612.8169z" fill="#fff"/><path d="m180.88 61.0127c.307-.1531.511-.4084.613-.8169.102-.3574.204-.8679.204-1.4296v-1.5317c0-.5105.102-.97.306-1.3274.204-.4085.51-.7148.918-.919-.408-.2043-.714-.5106-.918-.9191-.204-.4084-.306-.8679-.306-1.3785v-1.5317c0-.5616-.051-1.0722-.204-1.4296-.102-.3574-.358-.6637-.613-.8169l.409-1.1232c.816.2552 1.377.7148 1.734 1.2764.358.5616.511 1.2764.511 2.1444v1.5317c0 .5105.102.8679.255 1.1232s.408.4085.765.4085v1.4806c-.357 0-.612.1532-.765.4085-.153.2552-.255.6637-.255 1.1232v1.5317c0 .8169-.153 1.5317-.511 2.1444-.357.5616-.918 1.0211-1.734 1.2764z" fill="#fff"/><path d="m379.518.61268c2.5-.204227 5.051-.357397 7.551-.5616233.408-.0510567.868-.0510567 1.276-.0510567l-7.552.561623c-.408 0-.867 0-1.275.051057z" fill="url(#b)"/><path d="m379.518.61268 7.551-.5616233c.306 0 .612-.0510567.97-.0510567l-7.552.561623c-.306 0-.663 0-.969.051057z" fill="url(#c)"/><path d="m380.487.561623 7.552-.561623h.306l-7.552.561623c-.102 0-.204 0-.306 0z" fill="url(#d)"/><path d="m380.793.561623 7.552-.561623c10.357.0510567 19.083 9.5476 20.715 21.8012l-7.551.5616c-1.633-12.3046-10.358-21.75012-20.716-21.801177z" fill="url(#e)"/><path d="m380.793.561623 7.552-.561623c.357 0 .714 0 1.071.0510567l-7.552.5616233c-.357-.051057-.714-.051057-1.071-.051057z" fill="url(#f)"/><path d="m381.865.561623 7.551-.561623c.408.0510567.817.0510567 1.225.15317l-7.552.561623c-.408-.051056-.816-.102113-1.224-.15317z" fill="url(#g)"/><path d="m383.089.714944 7.552-.561624c.408.051057.765.102114 1.173.204227l-7.551.561623c-.408-.102113-.765-.15317-1.174-.204226z" fill="url(#h)"/><path d="m384.263.918069 7.551-.561624c.357.102114.715.15317 1.072.255284l-7.552.561621c-.357-.10211-.714-.204225-1.071-.255281z" fill="url(#i)"/><path d="m385.334 1.1749 7.552-.561619c.357.102114.663.204227 1.02.30634l-7.551.561619c-.306-.10211-.663-.20422-1.021-.30634z" fill="url(#j)"/><path d="m386.355 1.48029 7.552-.510563c.357.102113.663.255283 1.02.357393l-7.552.56163c-.357-.15317-.663-.25529-1.02-.40846z" fill="url(#k)"/><path d="m387.375 1.88975 7.552-.56163c.306.15318.663.30635.97.45952l-7.552.56162c-.306-.20423-.663-.30634-.97-.45951z" fill="url(#l)"/><path d="m388.345 2.29697 7.552-.56162c.306.15317.663.30634.969.51057l-7.551.56162c-.357-.15317-.664-.3574-.97-.51057z" fill="url(#m)"/><path d="m389.314 2.80772 7.552-.56163c.306.20423.663.3574.969.56163l-7.552.56162c-.357-.20423-.663-.3574-.969-.56162z" fill="url(#n)"/><path d="m390.233 3.36924 7.551-.56162c.307.20422.613.40845.97.61268l-7.552.56162c-.306-.20423-.612-.40845-.969-.61268z" fill="url(#o)"/><path d="m391.202 4.0333 7.552-.56162c.306.20423.612.45951.969.71479l-7.551.56163c-.358-.25529-.664-.51057-.97-.7148z" fill="url(#p)"/><path d="m392.12 4.74815 7.552-.56163c.357.25529.663.56163.969.81691l-7.551.56162c-.307-.30634-.613-.56162-.97-.8169z" fill="url(#q)"/><path d="m393.141 5.56553 7.552-.56162c.357.30634.663.61268 1.02.97007l-7.551.56163c-.358-.30634-.715-.66374-1.021-.97008z" fill="url(#r)"/><path d="m394.11 6.53526 7.552-.56163c.357.3574.714.76585 1.071 1.17431l-7.551.56162c-.357-.40845-.714-.81691-1.072-1.1743z" fill="url(#s)"/><path d="m395.182 7.71006 7.551-.56162c.408.45951.766.97007 1.123 1.42958l-7.552.56163c-.357-.51057-.714-.97008-1.122-1.42959z" fill="url(#t)"/><path d="m396.355 9.13975 7.552-.56163c.51.66374.918 1.32748 1.378 2.09328l-7.552.5617c-.459-.7148-.918-1.42961-1.378-2.09335z" fill="url(#u)"/><path d="m397.733 11.2325 7.552-.5616c1.633 2.7571 2.857 5.9226 3.521 9.3434l-7.552.5616c-.663-3.4719-1.888-6.5863-3.521-9.3434z" fill="url(#v)"/><path d="m401.254 20.5255 7.551-.5616c.103.6126.205 1.1743.307 1.7869l-7.552.5617c-.102-.6127-.204-1.1743-.306-1.787z" fill="url(#w)"/><path d="m404.417 21.6986c2.5-.2042 5.051-.3574 7.551-.5616.255 0 .561-.0511.816-.0511 7.705.0511 14.083 7.7096 14.287 17.2061 0 .6638 0 1.3786-.051 2.0423l-7.551.5616c.051-.6637.051-1.3274.051-2.0422-.204-9.4455-6.582-17.1551-14.287-17.2061-.255.051-.51.051-.816.051z" fill="url(#x)"/><path d="m404.417 21.6986 7.551-.5616c.204 0 .408 0 .612-.0511l-7.551.5617c-.153.051-.357.051-.612.051z" fill="url(#y)"/><path d="m405.08 21.6983 7.551-.5616h.204.715l-7.552.5616c-.255 0-.459 0-.714 0-.102 0-.153 0-.204 0z" fill="url(#z)"/><path d="m405.998 21.6983 7.552-.5616c.306 0 .561.0511.867.1021l-7.552.5617c-.306-.0511-.612-.0511-.867-.1022z" fill="url(#A)"/><path d="m406.814 21.8009 7.552-.5616c.255.051.51.1021.765.1531l-7.5.5617c-.255-.0511-.51-.1022-.817-.1532z" fill="url(#B)"/><path d="m407.631 21.9542 7.551-.5616c.256.051.511.1021.715.2042l-7.552.5616c-.255-.1021-.459-.1531-.714-.2042z" fill="url(#C)"/><path d="m408.345 22.1075 7.552-.5616c.255.0511.459.1532.714.2042l-7.551.5616c-.256-.051-.46-.1021-.715-.2042z" fill="url(#D)"/><path d="m409.06 22.3624 7.551-.5616c.204.1021.459.1532.663.2553l-7.551.5616c-.204-.1021-.408-.2042-.663-.2553z" fill="url(#E)"/><path d="m409.723 22.6173 7.551-.5616c.204.1021.459.2042.664.3063l-7.552.5616c-.204-.1021-.408-.2042-.663-.3063z" fill="url(#F)"/><path d="m410.386 22.9239 7.552-.5616c.204.1021.459.2042.663.3574l-7.551.5616c-.205-.1531-.409-.2553-.664-.3574z" fill="url(#G)"/><path d="m411.05 23.2306 7.551-.5617c.205.1022.409.2553.664.3574l-7.552.5617c-.204-.1021-.459-.2043-.663-.3574z" fill="url(#H)"/><path d="m411.712 23.6388 7.552-.5617c.204.1532.459.3064.663.4596l-7.551.5616c-.255-.2042-.46-.3574-.664-.4595z" fill="url(#I)"/><path d="m412.376 24.047 7.552-.5616c.204.1531.459.3063.663.5105l-7.552.5616c-.255-.1531-.459-.3574-.663-.5105z" fill="url(#J)"/><path d="m412.989 24.5577 7.551-.5616c.204.2042.46.3574.664.5616l-7.552.5616c-.204-.2042-.408-.4084-.663-.5616z" fill="url(#K)"/><path d="m413.651 25.1192 7.552-.5616c.255.2042.459.4085.663.6638l-7.551.5616c-.204-.2553-.409-.4595-.664-.6638z" fill="url(#L)"/><path d="m414.366 25.7833 7.552-.5616c.255.2553.51.5105.714.8169l-7.551.5106c-.256-.2553-.46-.5106-.715-.7659z" fill="url(#M)"/><path d="m415.081 26.5489 7.551-.5616c.255.3063.51.6637.766.9701l-7.552.6127c-.255-.3574-.51-.6638-.765-1.0212z" fill="url(#N)"/><path d="m415.846 27.5704 7.551-.5616c.306.4595.664.919.919 1.3785l-7.552.5616c-.255-.4595-.561-.97-.918-1.3785z" fill="url(#O)"/><path d="m416.764 28.9483 7.552-.5616c1.122 1.8381 1.939 3.9824 2.398 6.28l-7.552.5616c-.459-2.2975-1.275-4.3909-2.398-6.28z" fill="url(#P)"/><path d="m419.162 35.2286 7.552-.5616c.102.5616.204 1.1743.255 1.7359l-7.552.5616c-.051-.5616-.102-1.1232-.255-1.7359z" fill="url(#Q)"/><path d="m419.468 37.0157 7.552-.5616c.051.4595.102.919.102 1.3785l-7.552.5617c-.051-.4596-.051-.9191-.102-1.3786z" fill="url(#R)"/><path d="m419.57 38.3946 7.552-.5616v.5106.6127l-7.552.5616c0-.2043 0-.4085 0-.6127s0-.3574 0-.5106z" fill="url(#S)"/><path d="m419.571 39.4659 7.551-.5616c0 .3574 0 .7659-.051 1.1232l-7.551.5617c.051-.3574.051-.7148.051-1.1233z" fill="url(#T)"/><path d="m419.52 40.5899 7.551-.5616v.3064l-7.551.5616c0-.1021 0-.2042 0-.3064z" fill="url(#U)"/><path d="m427.582 56.0094c-2.5.2042-5.052.3574-7.552.5616 3.317-.2553 5.919-3.625 5.817-7.8117-.102-4.2377-2.908-7.7095-6.327-7.8627l7.552-.5616c3.418.1531 6.276 3.625 6.327 7.8627.102 4.1866-2.45 7.6074-5.817 7.8117z" fill="url(#V)"/><path d="m419.52 40.8966 7.552-.5616h.153l-7.552.5616c-.051 0-.102 0-.153 0z" fill="url(#W)"/><path d="m419.673 40.8966 7.552-.5616c.153 0 .255 0 .408.051l-7.551.5616c-.154 0-.307 0-.409-.051z" fill="url(#X)"/><path d="m420.032 40.9474 7.551-.5617c.102 0 .255.0511.357.0511l-7.551.5616c-.102 0-.204 0-.357-.051z" fill="url(#Y)"/><path d="m420.388 40.9981 7.551-.5616c.102 0 .204.0511.357.1021l-7.551.5617c-.102-.0511-.255-.0511-.357-.1022z" fill="url(#Z)"/><path d="m420.745 41.1007 7.551-.5616c.102.051.204.051.306.1021l-7.551.5616c-.102-.0511-.204-.0511-.306-.1021z" fill="url(#aa)"/><path d="m421.051 41.2022 7.551-.5616c.102.0511.204.0511.306.1021l-7.551.5617c-.102 0-.204-.0511-.306-.1022z" fill="url(#ab)"/><path d="m421.357 41.3048 7.551-.5616c.103.051.205.1021.307.1531l-7.552.5617c-.102-.0511-.204-.1022-.306-.1532z" fill="url(#ac)"/><path d="m421.663 41.4591 7.552-.5616c.102.051.204.1021.306.1531l-7.552.5617c-.102-.0511-.204-.1022-.306-.1532z" fill="url(#ad)"/><path d="m421.97 41.6114 7.551-.5616c.102.0511.204.1021.306.1532l-7.551.5616c-.102-.0511-.204-.1021-.306-.1532z" fill="url(#ae)"/><path d="m422.275 41.8155 7.552-.5616c.102.0511.204.1532.306.2042l-7.551.5617c-.102-.1022-.205-.1532-.307-.2043z" fill="url(#af)"/><path d="m422.582 41.9689 7.551-.5617c.102.0511.204.1532.306.2043l-7.551.5616c-.102-.0511-.204-.1021-.306-.2042z" fill="url(#ag)"/><path d="m422.837 42.2247 7.551-.5616c.103.1021.205.1532.307.2553l-7.552.5616c-.102-.1021-.204-.2042-.306-.2553z" fill="url(#ah)"/><path d="m423.143 42.4796 7.552-.5616c.102.1021.204.2042.306.3063l-7.501.5616c-.102-.1021-.255-.2042-.357-.3063z" fill="url(#ai)"/><path d="m423.5 42.7853 7.552-.5617c.102.1021.204.2553.306.3574l-7.552.5617c-.102-.1532-.204-.2553-.306-.3574z" fill="url(#aj)"/><path d="m423.806 43.1427 7.552-.5616c.102.1531.255.3063.357.4595l-7.552.5616c-.102-.1532-.255-.3064-.357-.4595z" fill="url(#ak)"/><path d="m424.163 43.6026 7.552-.5616c.153.2042.306.4085.408.6127l-7.552.5616c-.102-.2042-.255-.4084-.408-.6127z" fill="url(#al)"/><path d="m424.571 44.2149 7.552-.5616c.51.868.867 1.8381 1.122 2.9102l-7.551.5617c-.204-1.0722-.612-2.0423-1.123-2.9103z" fill="url(#am)"/><path d="m425.694 47.1261 7.551-.5616c.051.2552.102.5105.102.8169l-7.551.5616c0-.3064-.051-.5616-.102-.8169z" fill="url(#an)"/><path d="m425.796 47.8917 7.551-.5616c0 .2042.051.4084.051.6127l-7.551.5616c0-.1532 0-.4085-.051-.6127z" fill="url(#ao)"/><path d="m425.847 48.5548 7.552-.5616v.2042.3063l-7.552.5617c0-.1022 0-.2043 0-.3064 0-.051 0-.1532 0-.2042z" fill="url(#ap)"/><path d="m425.847 49.0655 7.552-.5616v.5106l-7.552.5616c0-.1532 0-.3574 0-.5106z" fill="url(#aq)"/><path d="m425.847 49.5763 7.551-.5617c0 .1532 0 .3064-.051.4596l-7.551.5616c.051-.1532.051-.3064.051-.4595z" fill="url(#ar)"/><path d="m425.796 50.0353 7.552-.5617c0 .1532-.051.2553-.051.4085l-7.552.5616c.051-.1532.051-.3063.051-.4084z" fill="url(#as)"/><path d="m425.745 50.4444 7.551-.5616c0 .1532-.051.2553-.051.4085l-7.551.5616c0-.1532.051-.3063.051-.4085z" fill="url(#at)"/><path d="m425.694 50.8009 7.552-.5616c0 .1531-.051.2552-.102.3574l-7.552.5616c.051-.1021.051-.2042.102-.3574z" fill="url(#au)"/><path d="m425.592 51.2101 7.552-.5617c-.051.1022-.051.2553-.102.3574l-7.552.5617c.051-.1022.102-.2553.102-.3574z" fill="url(#av)"/><path d="m425.49 51.5675 7.551-.5616c-.051.1021-.051.2552-.102.3574l-7.551.5616c.051-.1021.102-.2042.102-.3574z" fill="url(#aw)"/><path d="m425.388 51.9249 7.551-.5616c-.051.1021-.102.2553-.153.3574l-7.551.5616c.051-.1021.102-.2042.153-.3574z" fill="url(#ax)"/><path d="m425.235 52.2823 7.551-.5616c-.051.1021-.102.2553-.153.3574l-7.551.5616c.051-.1021.102-.2042.153-.3574z" fill="url(#ay)"/><path d="m425.082 52.6388 7.551-.5617c-.051.1022-.102.2553-.153.3574l-7.551.5617c.051-.1021.102-.2043.153-.3574z" fill="url(#az)"/><path d="m424.929 52.9972 7.551-.5617c-.051.1022-.102.2553-.204.3574l-7.551.5617c.102-.1021.153-.2043.204-.3574z" fill="url(#aA)"/><path d="m424.724 53.3536 7.552-.5616c-.051.1532-.153.2553-.255.3574l-7.552.5616c.102-.1021.204-.2042.255-.3574z" fill="url(#aB)"/><path d="m424.52 53.7628 7.552-.5616c-.102.1531-.204.2553-.255.4084l-7.552.5617c.051-.1532.153-.2553.255-.4085z" fill="url(#aC)"/><path d="m424.214 54.171 7.552-.5616c-.102.1531-.204.3063-.358.4084l-7.551.5617c.153-.1532.255-.3064.357-.4085z" fill="url(#aD)"/><path d="m423.908 54.5802 7.551-.5616c-.153.1531-.306.3063-.459.4595l-7.551.5616c.153-.1532.306-.3064.459-.4595z" fill="url(#aE)"/><path d="m423.449 55.0392 7.552-.5617c-.919.868-2.092 1.4296-3.368 1.5317l-7.551.5617c1.224-.1021 2.398-.6638 3.367-1.5317z" fill="url(#aF)"/><path d="m380.793.561698c10.358.051056 19.083 9.547602 20.715 21.801202 1.174-.4085 2.45-.6637 3.725-.6127 7.705.0511 14.083 7.7096 14.287 17.2061 0 .6638 0 1.3786-.051 2.0423 3.419.1532 6.276 3.625 6.327 7.8627.102 4.3398-2.704 7.8117-6.225 7.8117-.204 0-.357 0-.561-.0511h-11.226l-12.245-.051h-5.511l-6.123-.0511-20.971-.1021c-6.888-.0511-12.603-6.9437-12.807-15.3681-.153-7.8627 4.541-14.3469 10.715-15.1638-.204-14.1937 8.674-25.375159 19.951-25.324102z" fill="#e4efff"/><path d="m155.522 163.891c-2.398.613-6.735 2.706-7.654 6.382-1.377 5.463 1.378 13.479-2.959 21.342-1.378 2.502 24.083 5.872 24.083 5.872l4.899-27.622s-6.123-5.974-7.399-6.382c-2.602-.868-6.225-.766-10.97.408z" fill="#bcd0e2"/><path d="m173.891 169.865c.867 2.195 3.112 15.368.612 18.431-.306.358 1.276.919 1.02 2.553-.051.255-.51 1.583-.51 1.583l-2.041.51-6.174-3.522 1.174-1.43h.561s.51-.511.357-1.072c-.153-.613 1.429-1.583 3.776-11.794.765-2.962 1.072-5.719 1.225-5.259z" fill="#b0bfde"/><path d="m171.543 187.684-1.836-.408-.715-.102c0 .51-.408.868-.408.868l1.429.051 1.632.357 1.99 1.123z" fill="#dbdac6"/><path d="m168.941 189.42s1.429 0 2.602.715c.919.561 1.735 1.787.919 2.45-.817.664-2.143 1.277-2.143 1.277s-3.215.051-1.378-4.442z" fill="#c4d1e1"/><path d="m172.462 192.636-.867-.204s-2.96-.255-3.368-.051c-.408.255-1.786 1.123-1.786 1.123l-.255.255s.663.409 1.531-.204c.867-.612.969-.153.969-.153l-.153.766v1.021l-.153.409s-.102.255-.051.306c.306.255.561.153.561.153l.919-1.583.255 1.685s.102.255.408.306c.255.052.255 0 .255 0l.204-.408c0 .102.051.204.153.306.204.154.511.154.511.154l-.102-1.787.357.919s.153.204.408.306c.306.051.357.102.357.102z" fill="#e4eef3"/><path d="m157.155 185.589s2.143 5.412 7.297 6.893c.867.255 1.428 1.225 1.02 1.531-.561.409-1.327.46-2.602.46-2.705 0-6.327-.868-8.878-3.319-3.725-3.625-4.95-5.259-4.542-7.097.358-1.838 7.705 1.532 7.705 1.532z" fill="#e9d6b8"/><path d="m148.583 168.435c-1.072 1.787-1.735 4.646-1.735 8.781 0 3.166 2.755 8.425 3.164 10.008.051.255.255 1.429.255 1.429l3.061 3.013 6.123-4.136-1.837-2.859-.561.051s-.357-1.583-.255-2.196c.102-.612-1.684-8.832-2.551-14.091-.562-3.013-4.541-1.736-5.664 0z" fill="#b0bfde"/><path d="m154.093 184.62 1.786-.561.714-.205c.051.511.46.817.46.817l-1.378.154-1.633.51-1.888 1.277z" fill="#bcd0e2"/><path d="m164.044 192.43 3.112-.868s.867 1.175.714 1.481 0 2.042 0 2.042l-1.53 1.277-1.225-.409s-.102-.51.357-.561c.408-.051-.306-.358-.51-.46-.204-.153-1.99-1.072-.918-2.502z" fill="#e9d6b8"/><path d="m158.992 164.555c-.153.511.102 1.021.561 1.225l3.572 1.277c.51.153 1.02-.102 1.224-.562l2.194-6.28c.153-.51-.102-1.021-.561-1.225l-3.572-1.277c-.51-.153-1.02.103-1.224.562z" fill="#e2c59c"/><path d="m167.003 167.618c-.204.663-.867 1.021-1.531.868l-5.306-1.481c-.664-.204-1.021-.868-.868-1.532l2.194-7.914c.204-.663.868-1.021 1.531-.868l5.307 1.481c.663.204 1.02.868.867 1.532z" fill="#e9d6b8"/><path d="m168.738 161.338s.918-.561 1.173-1.021c.153-.204.153-1.174-.357-1.685-.51-.51-1.174 0-1.174 0s.817.766.817 1.021c0 .205-.459 1.685-.459 1.685z" fill="#163f59"/><path d="m159.961 160.981s.051-3.268.408-4.085c.408-.868.663-1.429 1.786-1.225 1.684.306 1.582.664 2.5.357.919-.255 2.653-1.072 3.215-1.072.867.051 2.092.664 1.683 2.195-.255 1.124.358 1.634.307 1.634-.102.102-.409.153-1.021.307-1.684.357-2.602.255-3.674-.358-1.071-.612-3.01-1.838-3.469-1.072s-1.072 3.37-1.225 3.523c-.102.153-.357 0-.51-.204z" fill="#194866"/><path d="m160.982 163.789c-.051.204-.306.358-.51.307l-1.174-.307c-.204-.051-.357-.306-.306-.51l.561-2.094c.051-.204.306-.357.51-.306l1.174.306c.204.051.357.307.306.511z" fill="#e9d6b8"/><path d="m167.87 165.678c-.051.204-.306.357-.51.306l-1.173-.306c-.204-.051-.358-.306-.307-.511l.562-2.093c.051-.204.306-.357.51-.306l1.174.306c.204.051.357.306.306.511z" fill="#e9d6b8"/><path d="m160.267 161.797s-.867 3.114-1.122 4.135c-.255.919-.459 3.115 4.847 4.545 3.113.867 3.674-1.481 3.878-2.247.153-.562 0-2.502-.255-2.91l-.357 1.276s-.306-1.429-1.786-1.838c-2.398-.664-3.317.613-4.388.255-.868-.153-1.072-1.633-.817-3.216z" fill="#194866"/><path d="m163.89 166.598 1.633.459c.204.051.459-.051.51-.306l.051-.204-2.449-.664-.051.255c-.051.153.102.409.306.46z" fill="#e9d6b8"/><path d="m189.861 198.099c-.765 2.093-14.032 9.803-18.522 9.343l-13.419.664c-11.429-1.379-16.838-19.146-16.838-19.146.459-4.442 11.685 1.991 15.715 3.982 6.327 3.166 10.358 3.319 10.358 3.319 4.235.459 9.185-2.859 14.542-2.962 5.919-.051 9.338 1.532 8.164 4.8z" fill="#081832"/><path d="m160.675 196.006v-.561l23.114-.409v.562l-.051.102c-.306.51-.816.613-1.428.613l-20.104.357c-.612 0-1.123-.051-1.429-.562z" fill="#b6c2c9"/><path d="m166.237 196.006-.051.103c-.102.102-.204.204-.357.306l-3.521.051c-.561 0-1.122-.051-1.378-.46l-.051-.102v-.255l5.358-.102z" fill="#d8e5ed"/><path d="m180.87 195.18-11.529.21.007.408 11.529-.21z" fill="#879ba6"/><path d="m166.339 195.291 2.806-11.437c.051-.306.357-.561.664-.561l16.225-.307c.306 0 .459.256.408.511l-2.806 11.437z" fill="#d9e1e4"/><path d="m175.422 189.164c-.153.561.204 1.072.816 1.021.561 0 1.174-.511 1.327-1.072.153-.562-.204-1.073-.817-1.022-.612 0-1.173.511-1.326 1.073z" fill="#b6c2c9"/><path d="m155.879 211.067c1.582.256 2.806-1.582 2.806-1.582l4.133-3.268-.867-2.196-8.062 3.626c.051 0 .408 3.165 1.99 3.42z" fill="#e9d6b8"/><path d="m158.736 209.382s0 .205-.306 1.022c-.306.868-.663 1.123-1.071 1.276-1.531.459-2.654.204-6.378.919-3.725.715-4.797.153-5.919-1.532-1.072-1.736.051-3.063 1.837-3.165 2.602-.204 4.082.102 5.459-.102 1.429-.205 1.531-.562 2.347-1.073.766-.459 1.531 2.4.766 3.064-.664.561 2.704.664 3.265-.409z" fill="#194866"/><path d="m157.92 211.016c-1.531.46-2.653.204-6.378.919s-4.796.153-5.919-1.531c-.51-.817-.51-1.481-.255-2.043-.816.562-1.072 1.532-.357 2.706 1.071 1.736 2.194 2.247 5.919 1.532 3.724-.715 4.796-.511 6.378-.919.306-.102.612-.306.867-.766-.051.051-.153.102-.255.102z" fill="#fff"/><path d="m158.736 209.434c0-.051 0-.051 0-.051-.051 0-.051 0 0 .051-.051 0-.051 0 0 0z" fill="#e9d6b8"/><path d="m150.726 210.71c-.102.051-.204-.204-.255-.51-.051-.664-.205-1.277-.409-1.889-.102-.307-.102-.613 0-.613.153-.051.358.204.46.511.204.612.357 1.276.408 1.889 0 .255-.102.561-.204.612z" fill="#fff"/><path d="m151.848 210.505c-.102.051-.255-.205-.255-.511-.051-.613-.204-1.225-.408-1.787-.102-.306-.102-.561.051-.561s.357.204.459.51c.204.613.357 1.174.408 1.787-.051.255-.153.511-.255.562z" fill="#fff"/><path d="m153.073 210.454c-.153 0-.255-.204-.306-.51-.102-.613-.255-1.226-.51-1.838-.102-.307-.102-.562.051-.562s.357.255.459.511c.204.612.408 1.225.459 1.838.051.255-.051.51-.153.561z" fill="#fff"/><path d="m156.185 205.758s28.369-11.692 30.002-11.692c5.46-.051 4.235 5.514 1.429 8.118-3.266 3.063-28.216 8.73-28.216 8.73z" fill="#163f59"/><path d="m167.41 207.8-7.704-7.352 3.265-3.267 8.47 8.884z" fill="#e9d6b8"/><path d="m169.043 202.03s-19.695-18.074-21.073-18.635c-4.49-1.838-7.296 3.165-7.143 4.85.204 2.247 20.256 20.321 20.256 20.321z" fill="#194866"/><path d="m180.727 208.362c.46.408.562 1.685.562 1.685s-6.582 2.501-8.879 2.552c-.612 0-1.683-.204-2.704-.51-.153-.051-.561-.511-.765-.562-.306-.102-.408.205-.663.102-.715-.204-1.225-.408-1.225-.459-1.378-2.961-.918-4.391-.918-4.391s3.01.868 2.5.204c-1.123-1.429 2.041-2.91 2.755-2.144 2.806 3.063 8.011 2.297 9.337 3.523z" fill="#194866"/><path d="m181.085 208.975c-2.041.817-6.276 2.45-7.144 2.501-3.469.256-5.867-.97-7.5-1.684.153.408.306.867.561 1.378 0 .051.51.204 1.225.46.255.102.357-.205.663-.103.153.052.561.511.765.562 1.021.306 2.092.511 2.705.511 2.296-.051 8.878-2.553 8.878-2.553s0-.562-.153-1.072z" fill="#fff"/><path d="m176.441 207.084c.051.103-.204.256-.561.307-.765.153-1.48.357-2.245.664-.357.153-.663.204-.714.051-.051-.103.204-.358.561-.511.714-.306 1.48-.511 2.194-.664.357-.051.714 0 .765.153z" fill="#fff"/><path d="m174.961 206.523c.051.103-.204.307-.561.409-.714.204-1.429.51-2.143.868-.357.153-.663.204-.714.102-.051-.153.204-.409.51-.562.714-.357 1.429-.612 2.143-.817.357-.153.714-.102.765 0z" fill="#fff"/><path d="m173.533 206.063c.051.102-.204.307-.561.46-.715.255-1.378.613-2.092 1.021-.357.204-.612.255-.664.153-.051-.153.205-.408.511-.613.663-.408 1.377-.714 2.041-.97.408-.153.714-.153.765-.051z" fill="#fff"/><path d="m345.229 39.3132c0 2.6549 2.144 4.7482 4.746 4.7482l1.173-2.2465c2.654 0 4.746-3.9824 4.746-6.5863v-1.787c0-2.6549-2.143-4.7482-4.746-4.7482h-1.173c-2.653 0-4.746 2.1443-4.746 4.7482z" fill="#e8502e"/><path d="m354.975 33.2376c.306-.0511.663-.0511.969-.0511 0 .4085 0 .8169.051 1.2254.561 4.0335 4.133 6.8926 8.164 6.7905-.051 3.8293-2.959 7.199-6.99 7.8117-4.439.6127-8.521-2.3486-9.185-6.7395-.561-4.3398 2.552-8.3733 6.991-9.037z" fill="#e8502e"/><path d="m347.117 30.4287c0 .4595.051.868.102 1.3275.46 3.0634 2.348 5.3609 4.389 5.6673.051 1.3785.561 2.6039.663 3.6761.255 2.3996 2.908 2.6549 2.908 2.6549.357 2.1444-8.062 5.1057-7.909 4.7483.154-.3574 1.939-2.8592 2.552-5.1567.408-1.6339-.102-2.9613-.715-3.8293-1.122-1.3275-2.806-1.3275-2.806-1.3275-.153 0-.306-.051-.408-.1531-.102-.3064-.153-.6638-.153-.9701v-3.9314c.051-1.1232.561-2.0933 1.377-2.706z" fill="#e9d6b8"/><path d="m341.964 74.2869v-.0511l.051-.051c.663-3.3697 1.633-6.6374 3.214-9.5987 1.072-2.0933 3.266-4.0845 4.235-5.1056 2.501 1.3785 4.95.7148 7.246 2.5017.306.9701.561 1.9913.714 3.1145.357 2.0423.663 3.9314.919 5.6673 3.622.3574 12.5 1.0211 15.817 1.6849 1.99.4595 2.092 1.2253 2.398 1.4806-.153 3.2166-2.806 5.0546-4.388 7.6585-.306.4595-21.685.2553-25.206.2553-1.939-.0511-6.735-1.1233-5-7.5564z" fill="#194866"/><path d="m375.18 78.4731c.562-.6637.919-1.5317 1.327-2.2975.357-1.4296.357-2.3997-.102-2.7571-1.582-1.2764-6.939 1.4296-20.41 21.6481-2.959 4.3908-9.439 13.7344-7.96 12.1514 22.349-23.0776 24.186-25.3241 27.145-28.7449z" fill="#e2c59c"/><path d="m348.036 106.248 2.398-3.829c.255-.357.612-.562.97-.562l-1.837 2.962c-.357.561-.255 1.327.204 1.736.153.102.357.204.51.204l-.561.868c-.357.561-1.021.715-1.48.357-.459-.408-.561-1.174-.204-1.736z" fill="#163f59"/><path d="m356.557 56.0598 4.388-6.7395c1.276-1.9912.51-4.0335-1.684-4.493l-12.654-2.655c-1.429-.1531-3.674 1.8381-3.163 4.2378l2.704 7.8116z" fill="#e9d6b8"/><path d="m358.444 45.7467c-.357 6.0247 5.613 15.7765 5.613 15.7765s2.245.0511 2.5-1.0211c.255-1.3275-1.684-4.0846-4.235-11.9983-1.531-4.9525-3.827-3.7782-3.878-2.7571z" fill="#163f59"/><path d="m343.494 42.3251c-4.49 3.2166-7.551 12.4578-7.551 12.4578s1.02 2.1955 1.888 1.787c1.122-.5616 2.5-3.2165 6.378-9.5476 2.398-3.9313 0-5.2588-.715-4.6972z" fill="#163f59"/><path d="m347.168 58.9184c0 .919.969 2.3486 1.633 2.3486l6.684.2042c.663 0 2.347-1.1232 2.347-2.0423l-.051-3.0634c0-.919-.612-1.6338-1.276-1.6338l-8.623-2.0422c-.663 0-1.224.7658-1.224 1.6848z" fill="#0095ef"/><path d="m356.506 61.8293c0 .1021-.46.1531-1.072.1021l-6.582-.4085c-.561-.051-1.071-.1532-1.02-.2553v-.3574c0-.1021.459-.1531 1.071-.1021l6.582.4085c.562.051 1.072.1531 1.021.2553z" fill="#15100c"/><path d="m344.821 45.5425c.102-.4595.255-.868.459-1.1743 6.123 4.3398 10.46 2.5017 13.624 1.7869.051.2043.051.3574.051.5617.102 2.1443-.051 4.3398.051 6.4842.102 1.7359-2.348 3.2165-3.521 3.2676-4.337.2042-5.307-.0511-9.491-1.1743-1.122-.3064-3.214-2.1444-2.755-3.7271.561-2.0423 1.072-4.0335 1.582-6.0247z" fill="#0095ef"/><path d="m355.689 43.8568s4.541-.1532 5.307 2.0423c.816 2.1954-1.123 5.3609-1.123 5.3609s-1.173 4.0335-1.48 6.2289c-.306 2.1955 1.072 4.2377.664 3.8293-.102-.1021-1.123 0-2.756-.7659-1.632-.7658-.714-3.7271-.561-4.6972s.97-5.6673.765-6.4842c-.204-.8169-.816-5.5141-.816-5.5141z" fill="#194866"/><path d="m342.474 45.236s-.357-1.838.408-2.5528c1.123-1.0722 3.776-.919 4.592-.6637.868.2553 1.429.5105 1.429.5105s-3.011 1.2254-2.908 7.4543c0 1.0722.306 3.2166.663 4.9015.357 1.6338.51 4.9014.51 4.9014s-1.786.3574-1.888.6127-.204-1.9402-1.428-3.9824c-1.174-2.0934-1.378-11.1815-1.378-11.1815z" fill="#194866"/><path d="m346.454 41.8657c-1.683 1.3786-2.704 2.6039-2.449 9.8029.051 1.1743 0 3.3187.204 5.3099-.102-.2042-.204-.4084-.306-.6127-1.225-2.0933-1.429-11.1814-1.429-11.1814s-.204-1.6338.562-2.3486c.816-.7658 2.245-1.0722 3.418-.9701z" fill="#163f59"/><path d="m371.405 80.0053c.459-.7148.612-1.6338.918-2.3996.051-1.4807-.204-2.2976-.561-2.655-1.786-1.6338-5.817 1.4296-12.246 14.7043-3.266 6.6885-5.715 12.458-10.103 16.083-.663.51-.969 1.021-1.173 1.634-.664 1.889-.358 4.237-.256 4.135 3.011-2.859 14.849-17.9206 23.421-31.5017z" fill="#e9d6b8"/><path d="m346.658 110.078 2.092-4.034c.204-.408.561-.612.918-.612l-1.581 3.114c-.307.613-.153 1.379.357 1.685.153.102.357.153.51.153l-.459.919c-.306.613-.97.817-1.429.46-.561-.358-.714-1.073-.408-1.685z" fill="#194866"/><path d="m335.739 56.0605c-1.633-3.1145 1.582-7.0459 1.582-7.0459s1.071.1022 1.53.6638c.511.7148.409 2.2465-.153 5.7694-.357 2.1954-2.653 1.1743-2.959.6127z" fill="#163f59"/><path d="m337.065 53.353s.714.051 1.378-2.9613c.663-3.0123.051-6.5353.051-6.5353l-1.531 5.8716c-.051 0-.765 2.6549.102 3.625z" fill="#e9d6b8"/><path d="m338.495 43.8576c0-.3063-.256-.6127-.409-1.0211-.255-.6638-.765-1.5828-1.071-2.1444-.408-.6638-.714-1.4296-.714-1.4296-.154.8169.306 1.2254.357 1.5828.102.3574.102.2552-.46-.1532-.306-.2042-.408-1.1233-.561-1.6338-.153-.4595-.306-.6638-.306-.6638s0 .7659.153 1.5317c.204.9191.561 1.8891.663 2.0934.205.3574.715 1.0211 1.225 1.6848.153.2043.714 1.1743.51 2.3486-.153.5617.715-.919.613-2.1954z" fill="#e9d6b8"/><path d="m336.249 42.0189s-.867-1.1743-.969-1.4296c-.051-.2042-.154-1.1743-.154-1.1743s.358.4085.409.8169c.102.3064.714 1.787.714 1.787z" fill="#e9d6b8"/><path d="m375.843 72.2949h-18.675v.4085h18.675z" fill="#cdd5d7"/><path d="m365.383 72.2438c0 .3064.204.5617.46.5617h9.592c.255 0 .612-.2043.918-.9701l4.746-8.6286c0-.3574-.306-.6127-.562-.5616l-9.847.3063c-.255.0511-.459.2553-.612.6638z" fill="#cdd5d7"/><path d="m366.557 72.6523h-.102-9.337c.357.1532.918.3064 1.53.3064h7.807.102 7.807c.612 0 1.173-.1021 1.531-.3064z" fill="#b7bec0"/><path d="m366.812 44.1121h-.714v-.5105h-4.694v4.1356c0 .5616.408 1.0211.867 1.0211h2.909c.51 0 .867-.4595.867-1.0211v-.2553h.714c.358 0 .613-.3064.613-.7148v-1.8891c.102-.4085-.204-.7659-.562-.7659zm.102 2.6039c0 .0511-.051.1021-.102.1021h-.714v-2.0933h.714c.051 0 .102.0511.102.1021z" fill="#b0bfde"/><path d="m366.557 53.8127c.408-1.5827 1.123-3.2165.97-4.1356-.205-1.3274-.868-1.9401-.613-2.8591.051-.1022.051-.2043.051-.3064.051-.2553.102-.5616.102-.6637 0-.1532-.051-.5106.051-.3574.664 1.2253 1.327 2.706 1.327 3.0123 0 .7148-.204 4.5951-.612 5.9737-.408 1.5827-1.837 1.4806-1.276-.6638z" fill="#e9d6b8"/><path d="m367.833 49.3714s.306.1532.408-.1021c.204-.4085.255-1.2764.255-1.5828 0-.3574-.255-1.9912-.255-1.9912s-.306.5106-.204 1.1743c.102 1.0211-.204 2.5018-.204 2.5018z" fill="#e9d6b8"/><path d="m367.629 57.0283c-.511-.2042-1.072-.4595-1.582-.7148 1.122-4.1356 2.245-7.6074 2.245-7.6074z" fill="#e9d6b8"/><path d="m368.14 47.3797-.408-2.2975-.918-.2043-.306.1532-.051.2553.102.1532c-.153 0-.102.4084 0 .4084 0 0-.102.4595-.102.5616.051.2043.408.1532.612.5617.153.4084-.051.8679.153.919.255-.0511.918-.5106.918-.5106z" fill="#e9d6b8"/><path d="m367.833 55.9574c-.051-.3574-1.99-.4595-2.194.1531l-.204.4596s-1.786 3.9313.357 4.6461c-.102 0 2.194-.1532 2.041-5.2588z" fill="#163f59"/><path d="m205.32 235.114c.204-.255 0-.919 0-.919s-3.724-.256-4.898.102c-.306.102-.816.357-1.276.664-.102.051-.204.357-.306.408-.153.102-.255-.051-.357.051-.306.204-.561.409-.561.409-.255 1.736.204 2.399.204 2.399s3.112.817 3.776.153c1.735-1.735 3.01-2.655 3.418-3.267z" fill="#161711"/><path d="m217.107 235.982.663 2.757 2.807-.153s.153-.408.357-.408.459.357.765.357c.612-.051 1.225-.051 1.531-.051.51 0 5.664-.255 5.664-.255s.102-.613-.051-.766c-.103-.102-.562-.255-.868-.306-1.48-.358-5.715-1.43-6.48-2.758-1.02-1.787-4.388 1.583-4.388 1.583z" fill="#161711"/><path d="m216.699 142.957.663-3.37s2.399.204 2.858-1.123c.918-2.553.153-6.689-.408-7.812-1.582-3.268-2.296-9.037-9.797-4.442-2.857 1.736 1.531 10.16 1.888 11.947.306 1.838-.663 3.932-.663 3.932l1.734 1.327z" fill="#e9d6b8"/><path d="m203.331 174.663-.255 10.568s-3.98-4.391-4.388-9.394c-.358-4.953 4.388-1.532 4.643-1.174z" fill="#e9d6b8"/><path d="m208.586 196.617s1.123.409-1.377 15.93c-1.786 11.181-3.368 19.35-4.133 23.026-.307 1.43-.715 1.226-.715 1.226l-3.061.51-1.531-1.174 3.164-25.222z" fill="#163f59"/><path d="m227.975 167.771-6.327 12.1s12.042-8.731 11.277-13.53c-.715-4.748-4.95 1.43-4.95 1.43z" fill="#e9d6b8"/><path d="m203.28 146.224s-2.552 1.582-4.388 14.296c-1.837 12.713-.664 12.202-.664 12.202l.357 2.91 4.797.511 2.602-10.977z" fill="#007fcf"/><path d="m214.964 179.104s-5.612 29.562-10.511 42.888c-2.857 7.812-3.622-6.893-3.622-6.893l2.959-42.683 14.695-1.43c0 .051-1.633.613-3.521 8.118z" fill="#163f59"/><path d="m209.454 171.548s7.143 37.578 7.806 39.263c2.194 5.667 4.746-2.042 5.307-3.982.561-1.941 1.02-16.236.255-26.652-.714-10.365-.714-10.365-.714-10.365z" fill="#163f59"/><path d="m216.24 201.314s-.561 4.544-.969 10.364c-.306 4.238.306 16.338 1.479 24.712.051.51 5.307-1.328 5.307-1.328s.816-23.588 1.02-28.898c.204-5.259-3.673-8.73-6.837-4.85z" fill="#163f59"/><path d="m203.127 146.276 6.276-2.859 1.735-1.634 6.684-.153 1.173 1.94 5.205 2.247s1.276 1.991.153 9.496c-1.225 8.271-1.48 20.831-1.48 20.831l-19.644.97c.051-.102 1.735-26.856-.102-30.838z" fill="#0095ef"/><path d="m222.567 145.815s1.174-1.327 4.031 2.247c4.847 6.025 7.194 13.53 7.705 14.959.51 1.43 1.122 3.523-.817 5.923-1.531 1.838-1.99 2.451-1.99 2.451l-4.337-2.706.664-1.328.51-.663s-2.347-5.157-4.848-9.803c-2.602-4.698-.918-11.08-.918-11.08z" fill="#0095ef"/><path d="m217.669 131.674s-.867-.51-.969.153c-.154.664.306 2.094.714 2.196.408.153.51 1.889.51 1.889l-1.02 1.94h-5.256s-1.633-.715-1.786-1.889-1.428-9.446-1.428-9.446l3.724-1.94s1.939-.97 3.317-1.378c2.092-.613 2.551.51 2.5 1.123s.561.664 1.429.664c.867 0 1.888.664 1.428 1.021-.204.153.664.664.307 1.276-.46.868-2.092 1.175-2.194 2.604-.102.664-.358 2.808-1.276 1.787z" fill="#194866"/><path d="m70.4644 119.626-.8164-2.145s-.3571-1.021-1.1735-2.093c-.8164-1.021-1.9389-1.021-3.1125-.408-1.1225.612-1.4797 1.225-1.4797 1.225s.1531 1.634 1.4797 1.889c1.3267.255 3.6738 2.502 4.0309 2.093.4082-.357 1.0715-.561 1.0715-.561z" fill="#e9d6b8"/><path d="m63.9848 116.919-1.2246-2.246-1.0205-2.144.5613-.051.9184 1.429 2.5002 1.43-.6123.561z" fill="#e9d6b8"/><path d="m64.0869 113.549-.3061-2.093.4592-.153.7143 1.991 1.3777 1.787-1.2246.817z" fill="#e9d6b8"/><path d="m65.1582 111.252.1531 1.685-.051 1.123.6633 1.021 1.1735-.357-.7653-1.072-.5613-2.196z" fill="#e9d6b8"/><path d="m66.842 111.456-.2551 3.012.5613.715.7653-.204-.3571-1.379-.3062-1.787z" fill="#e9d6b8"/><path d="m69.8524 121.311c-.6123-1.225-2.041-1.481-2.041-1.481s-3.5207-.766-3.9289-1.48c-.4082-.715-1.7348-1.532-1.7348-1.532s-.4082-.613 1.0205-.306c.9184.204 1.6838.663 1.6838.663s2.143-.255 2.7553 0c1.1736.562 2.6022 3.574 2.6022 3.574s-.2551.715-.3571.562z" fill="#e9d6b8"/><path d="m45.3097 138.823s-.3061 4.187 12.1948 5.106c12.5009.97 12.2458-1.889 12.2458-1.889l1.0205-3.013-4.3881-8.322-4.0819 1.838v.715s-.6633.613-1.4797.408c-.8164-.204-4.5412-.102-11.4804-1.633-3.1635-.664-3.9799 5.973-4.031 6.79z" fill="#3dc7c9"/><path d="m49.3914 132.083c.1531.051.2552.051.4082.102-1.0715 1.685-1.6327 3.983-1.7348 4.442 0 0-.8164 4.085 11.4804 6.535 2.2451.46 4.0309.715 5.5106.868-1.7348.153-4.1329.205-7.5005-.051-12.5009-.97-12.1948-5.105-12.1948-5.105 0-.868.8164-7.506 4.0309-6.791z" fill="url(#aH)"/><path d="m66.1787 131.624s7.0924-5.565 1.6838-13.122c-1.5817-2.246.6633-.612 2.7553 1.072 2.092 1.736 5.5616 8.374 3.6227 13.582-1.9389 5.207-3.1125 6.994-5.3575 7.199-2.2451.204-2.7043-8.731-2.7043-8.731z" fill="#e9d6b8"/><path d="m61.6372 137.036-.4082-2.297-.102-.919c.6633 0 1.1735-.46 1.1735-.46l-.051 1.787.3571 2.094 1.3777 2.552z" fill="url(#aI)"/><path d="m50.3104 165.322-14.5929-.306-6.0718-20.372s-3.9289-12.304 3.6227-12.458c7.5515-.153 16.2256-.153 16.2256-.153s5.1024 4.391.8164 33.289z" fill="#3dc7c9"/><path d="m37.0441 116.767s7.7046 7.148 6.7352 9.599c-.0511.102-1.2756 1.276-1.3777 2.451-.102 1.123.4082 1.736.4082 2.195 0 .153.4082 1.072.4082 1.379.2041 1.276-.4592 2.297-1.0205 2.195-.6633-.153-3.4186-1.276-3.9288-1.532-.3572-.204-.6633-.204-.7144-.766-.153-1.123-.7653-3.063-1.3266-3.574-1.6328-1.582-6.327-3.114-5.0004-7.709.3572-1.276 5.1535-4.544 5.8168-4.238z" fill="#e9d6b8"/><path d="m41.993 134.586-.3571 2.501-4.6432-3.829.5102-.97z" fill="url(#aJ)"/><path d="m43.3706 132.953-.1531-.868.8674 1.481v2.655l-1.8369-1.583z" fill="url(#aK)"/><path d="m43.6768 126.264s-.3572.102-1.0715.153c-.2551.051-.9184.153-1.2246.255-1.3266.613-1.2246.664-2.143.919-1.0205.255-3.2655.306-3.2655.306s1.1225.409 1.5817.613c.8164.358 1.5818.204 2.143 0 2.5002-.817 2.5002-.613 2.7553-.817.051 0 .1021-.153 1.2246-1.429z" fill="#e2c59c"/><path d="m39.748 120.035c.1021.153 1.7349.97 2.041 1.123.3062.154.6633.307.7144.46.051.102-.0001.562-.0511.766-.051.153-.102.919-.7143.357-.5613-.561-1.99-2.706-1.99-2.706z" fill="#e9d6b8"/><path d="m30.768 120.852c.4592-2.4 3.6227-4.697 7.2965-4.544 0 0 .3061.562-.0511 1.532 0 0-2.5001-.46-4.1839 1.429-1.7859 1.992.4081 1.736.4081 2.604-.051.766-.102 1.43-.102 1.43l.6633 1.378-.4592.511s-1.3266-.919-1.2756-.358c.051.715.9695 1.481 1.0715 1.583s.3061.307.3061.409c0 .051.7144.612 1.5818 1.889-.2551.204-.8164.153-1.6328-.46-1.7348-1.378-4.1329-4.493-3.6227-7.403z" fill="#163f59"/><path d="m33.1661 124.63c-.4592.357-.5613 1.072-.1531 1.532.3572.459 1.0715.51 1.5308.153z" fill="#e9d6b8"/><path d="m41.0747 122.844s.7143-1.073.8674-1.124c.1021-.051.4082-.255.4592-.153.1021.102.1531.46-.102 1.124-.051.204-.2041-.103-1.2246.153z" fill="#e2c59c"/><path d="m49.953 228.122h-3.7758v5.718h3.7758z" fill="#2162a3"/><path d="m22.5531 228.122h-3.0614v5.718h3.0614z" fill="#2162a3"/><path d="m46.3811 235.526h2.7553v-.817l1.1736.817h6.9392s-.102-1.123-4.7962-1.327c-1.1736-.052-2.041-1.685-2.041-1.685s-.6123-.562-1.4797.714c-.2551.307-2.7553-.306-2.7553-.306s-.2041 1.685.2041 2.604z" fill="#081832"/><path d="m49.8508 164.812.3061 31.094-6.7862 4.799s-2.9084-10.007-3.3676-19.452c-.5102-9.446 9.8477-16.441 9.8477-16.441z" fill="#163f59"/><path d="m49.8513 164.812-14.4398 34.054-2.6023 3.625-10.1028 30.022-3.7757-1.583s.9184-15.93 3.2655-23.078c2.3981-7.301 4.8473-11.896 4.8473-11.896l9.1843-32.063z" fill="#194866"/><path d="m44.6978 232.717c-1.1736-6.076-1.99-17.87-2.092-21.801-.1531-7.25.3572-12.458.3572-12.458l7.2454-2.502v35.893z" fill="#163f59"/><path d="m22.9613 236.598h-1.8369l-.5612-.562-.2552-1.43-.6122.613-1.939-1.94c.3572-.919 1.6838-1.94 1.6838-1.94s1.3267 2.195 1.7349 2.144c1.5307-.255 1.5817.562 1.5817.562s-.6123 1.634.2041 2.553z" fill="#081832"/><path d="m21.0225 234.453c.3571.409.8674.817 1.4286.817 4.6432.153 4.7963 1.328 4.7963 1.328h-6.2249z" fill="#081832"/><path d="m0 177.371 14.4908-28.949s12.1948 0 16.3278-.409c11.6845-1.174 25.9712-8.424 25.9712-8.424l-11.4804 31.247s-22.8588 5.258-28.4204 5.207c-9.03129-.102-16.889 1.328-16.889 1.328z" fill="#e4eef3"/><path d="m30.6656 144.031-8.521 13.07-1.1736.154.3062 1.123-6.174-.46-1.3776-5.361 11.9907-17.665s3.7247-3.37 9.8476-2.502c4.4391.562-4.286 10.518-4.8983 11.641z" fill="#3dc7c9"/><path d="m20.9708 157.918 6.327 17.615s-1.3777.408-2.194-.306c-2.1941-1.941-5.9699-7.199-7.2965-10.059-1.7858-3.931-2.8063-8.22-2.8063-8.22z" fill="#e9d6b8"/><path d="m25.4102 175.431 4.8472 1.787.4593-3.472-1.0205.358-1.1736-.919-1.8368 1.633z" fill="#e9d6b8"/><path d="m338.545 36.8118v-7.6585h-7.654z" fill="#2c7eea"/><path d="m316.502 27.9282c0 1.6338 1.327 2.9613 2.96 2.9613h21.532c1.633 0 2.959-1.3275 2.959-2.9613v-17.7677c0-1.63381-1.326-2.96128-2.959-2.96128h-21.532c-1.633 0-2.96 1.32747-2.96 2.96128z" fill="#2c7eea"/><path d="m325.534 21.0862c-1.225 0-2.194-.9701-2.194-2.1955 0-1.2253.969-2.1954 2.194-2.1954 1.224 0 2.194.9701 2.194 2.1954 0 1.2254-.97 2.1955-2.194 2.1955zm0-3.2676c-.612 0-1.072.5105-1.072 1.0721 0 .6127.511 1.0722 1.072 1.0722s1.071-.5105 1.071-1.0722c.051-.5616-.459-1.0721-1.071-1.0721z" fill="#fff"/><path d="m332.831 17.1038c-1.224 0-2.194-.9701-2.194-2.1955 0-1.2253.97-2.1954 2.194-2.1954 1.225 0 2.194.9701 2.194 2.1954 0 1.2254-.969 2.1955-2.194 2.1955zm0-3.3187c-.612 0-1.071.5105-1.071 1.0722 0 .6127.51 1.0722 1.071 1.0722.613 0 1.072-.5106 1.072-1.0722.051-.5617-.459-1.0722-1.072-1.0722z" fill="#fff"/><path d="m332.83 25.1194c-1.224 0-2.194-.9701-2.194-2.1954 0-1.2254.97-2.1955 2.194-2.1955 1.225 0 2.194.9701 2.194 2.1955 0 1.2253-.969 2.1954-2.194 2.1954zm0-3.2676c-.612 0-1.071.5105-1.071 1.0722 0 .6126.51 1.0721 1.071 1.0721.613 0 1.072-.5105 1.072-1.0721.051-.6127-.459-1.0722-1.072-1.0722z" fill="#fff"/><path d="m331.065 14.9035-4.368 2.7352.568.9089 4.369-2.7352z" fill="#fff"/><path d="m327.272 19.2841-.568.9093 4.37 2.733.568-.9092z" fill="#fff"/><path d="m284.613 184.928-2.551-11.13c-3.521.817-6.786 2.348-9.541 4.544l6.99 8.986c1.531-1.123 3.214-1.94 5.102-2.4z" fill="#c3d80e"/><path d="m290.43 210.303 2.551 11.13c3.521-.817 6.735-2.348 9.541-4.544l-6.99-8.986c-1.531 1.124-3.214 1.94-5.102 2.4z" fill="#474ec9"/><path d="m279.562 187.378-6.99-8.986c-2.807 2.195-5.103 4.952-6.736 8.118l10.154 5.207c.817-1.736 2.092-3.216 3.572-4.339z" fill="#9fc400"/><path d="m299.104 203.563c-.868 1.685-2.092 3.166-3.572 4.34l6.991 8.986c2.806-2.195 5.102-4.952 6.735-8.118z" fill="#6e57da"/><path d="m275.939 191.667-10.154-5.208c-1.582 3.063-2.551 6.535-2.653 10.211l11.378.409c.102-1.889.612-3.727 1.429-5.412z" fill="#4db544"/><path d="m299.104 203.563 10.154 5.208c1.582-3.063 2.551-6.535 2.653-10.211l-11.378-.409c-.102 1.941-.613 3.779-1.429 5.412z" fill="#cc5073"/><path d="m274.51 197.641c0-.153 0-.307 0-.511l-11.378-.408v.919c0 3.369.663 6.586 1.888 9.496l10.511-4.442c-.664-1.582-1.021-3.267-1.021-5.054z" fill="#17d0b4"/><path d="m300.533 197.641v.306l11.378.307c0-.204 0-.409 0-.613 0-3.37-.663-6.586-1.888-9.496l-10.511 4.441c.664 1.532 1.021 3.268 1.021 5.055z" fill="url(#aM)"/><path d="m300.481 198.101 11.379.408c0-.102 0-.204 0-.306l-11.379-.307z" fill="#cc5073"/><path d="m300.481 198.101 11.379.408c0-.102 0-.204 0-.306l-11.379-.307z" fill="url(#aN)"/><path d="m287.521 184.621c1.276 0 2.5.204 3.674.511l3.214-10.926c-2.194-.664-4.49-1.021-6.888-1.021-1.888 0-3.674.204-5.459.612l2.551 11.131c.918-.205 1.888-.307 2.908-.307z" fill="#ffcf33"/><path d="m287.522 210.609c-1.276 0-2.501-.204-3.674-.51l-3.215 10.926c2.194.663 4.49 1.021 6.889 1.021 1.887 0 3.673-.204 5.459-.613l-2.551-11.13c-.918.204-1.888.306-2.908.306z" fill="#4777e6"/><path d="m275.53 202.696-10.51 4.442c1.377 3.319 3.52 6.229 6.122 8.629l7.654-8.476c-1.378-1.276-2.5-2.859-3.266-4.595z" fill="#4eb3d7"/><path d="m299.512 192.586 10.511-4.442c-1.378-3.318-3.521-6.229-6.123-8.628l-7.654 8.475c1.378 1.276 2.5 2.808 3.266 4.595z" fill="#f58620"/><path d="m278.796 207.239-7.653 8.476c2.704 2.45 5.918 4.288 9.49 5.31l3.215-10.927c-1.888-.561-3.623-1.531-5.052-2.859z" fill="#4e99ff"/><path d="m296.247 187.99 7.653-8.475c-2.704-2.451-5.919-4.289-9.49-5.31l-3.215 10.926c1.888.562 3.623 1.532 5.052 2.859z" fill="#ffa813"/><path d="m278.183 158.838h-25.971v25.988h25.971z" fill="#74b2e8"/><path d="m275.581 161.441h-20.818v20.832h20.818z" fill="#acd5f4"/><path d="m262.468 167.823c0 1.022-.817 1.838-1.837 1.838-1.021 0-1.837-.816-1.837-1.838 0-1.021.816-1.838 1.837-1.838 1.02 0 1.837.817 1.837 1.838z" fill="#74b2e8"/><path d="m267.418 171.703 3.317 4.187 3.316 4.237h-6.633-6.684l3.367-4.237z" fill="#74b2e8"/><path d="m261.142 174.205 2.347 2.961 2.347 2.962h-4.694-4.643l2.347-2.962z" fill="#74b2e8"/><path d="m343.545 209.332c2.807 2.757 7.348 2.655 10.154-.204s2.806-7.403.051-10.161c-2.806-2.757-7.347-2.654-10.154.205-2.857 2.859-2.857 7.403-.051 10.16z" fill="#181863"/><path d="m353.852 209.485c2.806 2.757 7.347 2.655 10.154-.204 2.806-2.859 2.806-7.403.051-10.16-2.807-2.757-7.348-2.655-10.154.204-2.858 2.859-2.857 7.403-.051 10.16z" fill="#181863"/><path d="m345.433 197.333c3.521 3.472 9.286 3.37 12.807-.255 3.572-3.625 3.572-9.343.051-12.815s-9.286-3.37-12.807.255c-3.572 3.625-3.572 9.344-.051 12.815z" fill="#181863"/><path d="m345.483 220.208s-.153 1.225-6.02.664c-5.868-.562-14.389-2.859-14.389-2.859h13.725s5.205.255 6.684 2.195z" fill="#e2c59c"/><path d="m329.666 218.88c-2.806-.204-4.082 1.174-5.255 1.532-1.123.357-2.296.97-2.296.97.714-1.175 1.632-1.123 2.092-1.481.459-.357.357-.153-.664-.306-.561-.102-1.632.868-2.398 1.378-.663.46-1.071.46-1.071.46s.816-.97 1.786-1.736c1.173-.919 2.602-1.634 2.959-1.736.612-.204 2.5-.153 3.827.102 1.53.255 3.061.919 1.02.817z" fill="#e2c59c"/><path d="m325.023 217.961s-2.194.408-2.602.664c-.255.204-1.429 1.276-1.429 1.276s.817-.102 1.327-.51c.459-.409 2.704-1.43 2.704-1.43z" fill="#e2c59c"/><path d="m343.086 217.45s5.408.664 4.847 3.88c-.306 1.838-1.582 2.4-3.215 2.145-3.01-.46-6.48-1.072-6.48-1.072l-1.224-5.106z" fill="#007fcf"/><path d="m343.239 219.747 2.449-17.767s.204-3.83 1.582-3.625c1.939.306 5 6.075 5.051 7.25.153 2.45-3.368 14.908-3.827 17.41-.306 1.736-1.837-.357-3.571-.664-3.215-.561-1.684-2.604-1.684-2.604z" fill="#007fcf"/><path d="m416.561 197.537 5.306-9.292 6.174.409 3.061.919-6.837 1.021-4.388 8.628z" fill="#e9d6b8"/><path d="m422.633 186.815.816.256.357 1.021 5.001.204 3.928 1.072s-.102.307-.306.409c-.765.306-3.878.255-3.878.255s.409-.817.051-1.021c-.357-.204-4.184-.306-5.153-.255-1.582.102-2.449.408-2.347.204.204-.358 1.531-2.145 1.531-2.145z" fill="#0095ef"/><path d="m390.283 214.999 14.491 1.634 12.858-22.772 4.337 2.145-13.011 27.621s-.969 1.736-5.358 1.328c-4.286-.358-21.532-1.379-23.471-2.093-4.592-1.685 10.613-3.881 10.154-7.863z" fill="#d1320b"/><path d="m346.862 198.354c2.806 2.757 7.347 2.655 10.153-.204 2.807-2.859 2.807-7.403.051-10.16-2.806-2.757-7.347-2.655-10.153.204-2.858 2.859-2.858 7.403-.051 10.16z" fill="#181863"/><path d="m339.106 198.662c2.143 2.093 5.613 2.093 7.705-.051l-.868-2.809c2.092-2.144 2.092-5.616-.051-7.709l-1.479-1.43c-2.143-2.093-5.613-2.093-7.705.051l-.97.97c-2.092 2.145-2.092 5.617.051 7.71z" fill="#181863"/><path d="m334.922 191.462c.357.357.765.664 1.174.97 2.908 2.042 6.275 2.4 8.163.97 1.174 1.072 2.399 1.838 3.572 2.4 1.276.663 3.47.51 3.47.51 2.041 1.43 3.214 7.199-1.429 9.497-2.755 1.378-3.266-1.889-2.908-4.136.153-1.072.255-2.246-.051-2.706-.97-1.634-1.735-1.634-2.96-1.889-1.99-.153-3.316 1.226-3.316 1.226-.153.153-.306.204-.46.204-.357-.153-.663-.409-.918-.664l-3.215-3.166c-.918-.867-1.275-2.042-1.122-3.216z" fill="#e9d6b8"/><path d="m352.832 200.142c2.449 3.267 7.143 3.931 10.511 1.429 3.367-2.502 4.082-7.199 1.632-10.517-2.449-3.268-7.143-3.932-10.511-1.43-3.316 2.553-4.082 7.25-1.632 10.518z" fill="#181863"/><path d="m404.978 192.636.153-7.403 1.48-1.787 4.031-2.348 2.959.51-5.204 3.983-.307 7.76z" fill="#e9d6b8"/><path d="m405.336 183.599 1.326-.97.408.307 3.674-2.4s3.368-.919 4.031-.153c.204.255-.306.664-1.072 1.225-.612.46-.969.613-.969.613s-.153-.562-1.48-.766c-.408-.051-3.061 1.685-3.98 2.144-1.632.817-2.296 1.992-2.347 1.89-.153-.205.409-1.89.409-1.89z" fill="#0095ef"/><path d="m375.69 226.998 3.266-.153 26.583-1.889s2.398.714 3.878-3.064c2.143-5.361-.918-32.165-.918-32.165l-3.929.102-1.939 25.273s-18.675-5.974-22.91-4.493c-4.949 1.736-7.807 4.084-14.032 10.568-2.755 2.86.868 5.31.868 5.31z" fill="#ff3d0d"/><path d="m345.739 199.785s4.49-5.616 8.215-2.246c3.725 3.369 16.838 13.887 20.818 15.112l.918 14.756c-10.817.715-19.695-4.8-20.41-5.923-2.398-3.574-11.021-17.206-9.541-21.699z" fill="#0095ef"/><path d="m358.75 217.96c-1.071-1.43-3.214-4.544-5.357-8.016-2.654-4.391-6.736-3.676-4.541.664 2.296 4.544 5.153 9.037 6.378 10.875.714 1.123 7.908 6.637 18.725 5.922l-1.071-1.48c-7.654-.766-13.419-6.995-14.134-7.965z" fill="#007fcf"/><path d="m352.168 223.832s1.633 1.736-5.714 1.021c-5.205-.511-5.103-.153-17.961-3.472l17.093.255c-.051 0 4.694 0 6.582 2.196z" fill="#e9d6b8"/><path d="m334.157 222.402c-3.521-.255-5.103 1.225-6.531 1.634-1.429.408-2.858 1.072-2.858 1.021.868-1.328 1.99-1.277 2.602-1.685.613-.408.409-.204-.816-.357-.714-.103-2.041.97-2.959 1.531-.817.511-1.327.511-1.327.511s.97-1.072 2.194-1.94c1.48-1.021 3.266-1.838 3.674-1.94.765-.205 3.112-.103 4.796.204 1.888.408 3.776 1.225 1.225 1.021z" fill="#e9d6b8"/><path d="m328.34 221.278s-2.704.409-3.214.715c-.357.204-1.786 1.43-1.786 1.43s1.02-.051 1.633-.511c.612-.51 3.367-1.634 3.367-1.634z" fill="#e2c59c"/><path d="m348.29 220.921-2.449-20.065s1.582-1.991 2.96-1.276c1.479.714 4.439 2.757 4.439 2.757s2.449 6.943 3.112 13.07c1.123 10.109.561 10.365-3.112 11.233-3.878.919-10.868 0-10.868 0l-1.531-5.719z" fill="#0095ef"/><path d="m336.299 225.721v-.817h-32.043v.766l.102.153c.409.664 1.174.817 1.99.817h27.86c.867 0 1.581-.102 1.989-.817z" fill="#d1dbea"/><path d="m328.595 225.875.102.153c.102.153.306.307.459.409h4.898c.817 0 1.531-.102 1.939-.664l.102-.102v-.358h-7.5z" fill="#b6c2c9"/><path d="m324.257 225.109h-16.021v.562h16.021z" fill="#b6c2c9"/><path d="m328.391 224.905-4.133-15.777c-.102-.408-.51-.766-.969-.766h-22.502c-.408 0-.663.358-.561.766l4.133 15.777z" fill="#cdd5d7"/><path d="m315.686 216.633c.204.817-.255 1.481-1.071 1.481-.817 0-1.633-.664-1.837-1.481s.255-1.481 1.071-1.481c.817.051 1.633.664 1.837 1.481z" fill="#b6c2c9"/></svg>