<svg xmlns="http://www.w3.org/2000/svg" enable-background="new 0 0 350 250" viewBox="0 0 350 250" id="exam-schedule"><rect width="350" height="250" fill="#FFF" opacity="0"></rect><linearGradient id="a" x1="324.811" x2="34.648" y1="225.226" y2="51.966" gradientUnits="userSpaceOnUse"><stop offset="0" stop-color="#00a9bb"></stop><stop offset="1" stop-color="#00797f"></stop></linearGradient><path fill="url(#a)" d="M11.77,125.88c-7.94-23.38,0.56-84.83,52.26-94.72c68.88-13.18,65.22,75.49,129.79,75.49
		s115.56-38.79,138.36,4.12c19.17,36.08,8.96,72.38-56.46,99.11C237.96,225.31,56.61,257.9,11.77,125.88z"></path><linearGradient id="b" x1="250.619" x2="291.853" y1="146.921" y2="208.197" gradientUnits="userSpaceOnUse"><stop offset="0" stop-color="#089"></stop><stop offset="1" stop-color="#00a4b4"></stop></linearGradient><path fill="url(#b)" d="M304.24,190.9c-2.31-1.99-5.2-2.44-7.54-2.41c-1.6,0.02-2.9,0.25-3.57,0.39
			c-0.35-2.07-0.75-4.1-1.24-6.08c-0.94-3.81-2.13-7.38-3.55-10.67c0.4,0.52,0.84,1.05,1.34,1.55c0.9,1.02,2,1.97,3.31,2.67
			c3.79,2.1,8.45,1.42,10.63,0.81c0.7-0.19,1.07-1.03,0.81-1.89c-0.35-1.31-1.18-3.35-2.4-5.32c-0.58-0.99-1.4-1.96-2.26-2.8
			c-0.88-0.84-1.79-1.58-2.9-2.07c-2.96-1.34-5.86-0.8-8.03,0.01c-1.5,0.56-2.65,1.23-3.23,1.6c-2.57-4.48-5.7-8.33-9.33-11.44
			c-0.73-0.63-1.5-1.23-2.28-1.81c0.03,0.01,0.05,0.02,0.07,0.03c0.31,0.12,0.63,0.24,0.96,0.35c0.32,0.12,0.63,0.26,0.96,0.37
			c1.3,0.48,2.77,0.77,4.28,0.84c4.36,0.29,8.43-2.23,10.12-3.71c0.56-0.47,0.46-1.45-0.24-2.19c-1.94-2.39-7.48-6.55-12.43-6.15
			c-0.81,0.03-1.58,0.23-2.29,0.5c-0.71,0.27-1.34,0.61-1.92,1c-1.15,0.78-2.06,1.74-2.77,2.66c-0.97,1.26-1.58,2.43-1.88,3.05
			c-2.08-1.1-4.27-2.06-6.58-2.84c-3.38-1.21-6.87-1.85-10.22-2.24c0.66-0.1,1.35-0.22,2.04-0.36c1.35-0.25,2.73-0.71,4.02-1.48
			c0.48-0.29,0.93-0.6,1.35-0.95c0.42-0.32,0.81-0.66,1.18-1.02c0.73-0.72,1.36-1.51,1.89-2.31c1.06-1.6,1.71-3.22,2.04-4.29
			c0.22-0.69-0.36-1.48-1.3-1.75c-0.36-0.1-0.77-0.22-1.23-0.33c-0.45-0.1-0.94-0.15-1.47-0.22c-1.05-0.12-2.22-0.2-3.42-0.19
			c-0.6,0.01-1.21,0.04-1.82,0.1c-0.6,0.11-1.19,0.24-1.77,0.41c-1.16,0.34-2.26,0.82-3.22,1.48c-1.29,0.88-2.19,2.01-2.79,3.24
			c-0.61,1.21-0.98,2.47-1.2,3.62c-0.3,1.56-0.34,2.88-0.33,3.57c-5.27-0.18-10.48,0.14-15.49,0.99c-5.04,0.86-10.2,2.31-15.34,4.32
			l0.96,2.45c4.97-1.95,9.96-3.35,14.83-4.18c4.96-0.84,10.13-1.16,15.34-0.95c2.68,0.17,5.59,0.41,8.54,0.92
			c-0.15,0.67-0.39,1.97-0.47,3.56c-0.13,2.33,0.09,5.2,1.11,7.47c0.35,0.89,0.78,1.64,1.25,2.26c0.45,0.64,1.03,1.05,1.46,1.56
			c0.46,0.46,0.94,0.82,1.38,1.09c0.22,0.14,0.44,0.25,0.64,0.35c0.18,0.13,0.34,0.23,0.49,0.32c0.38,0.23,0.98-0.11,1.34-0.75
			c0.54-0.98,1.34-2.53,1.89-4.32c0.27-0.9,0.48-1.86,0.55-2.84c0.08-1.01-0.02-1.98-0.34-2.91c-0.43-1.26-1.21-2.38-2.14-3.3
			c-0.51-0.43-1.06-0.81-1.62-1.14c0.33,0.11,0.66,0.2,0.99,0.32c4.99,1.68,9.41,4.17,13.15,7.4c0.11,0.1,0.22,0.2,0.33,0.3
			c-0.48,0.51-1.35,1.49-2.22,2.78c-1.33,1.94-2.59,4.38-3.13,6.86c-0.18,0.9-0.22,1.71-0.16,2.44c0.01,0.79,0.13,1.49,0.31,2.11
			c0.09,0.31,0.21,0.58,0.3,0.88c0.09,0.3,0.19,0.58,0.3,0.83c0.22,0.51,0.45,0.93,0.66,1.25c0.27,0.4,0.94,0.53,1.58,0.16
			c1.94-1.11,6.07-3.58,7.09-7.49c0.17-0.66,0.27-1.35,0.25-2.01c-0.03-0.64-0.14-1.29-0.31-1.91c-0.15-0.57-0.34-1.13-0.56-1.66
			c1.84,2.2,3.49,4.64,4.94,7.32c1.17,2.17,2.22,4.51,3.14,7c-0.66,0.22-1.89,0.67-3.28,1.41c-2.07,1.1-4.4,2.73-5.83,4.92
			c-2.1,3.23-1.68,6.93-1.4,8.82c0.1,0.59,0.77,0.97,1.49,0.86c2.22-0.38,6.82-1.38,9.24-4.77c1.18-1.69,1.59-3.75,1.57-5.63
			c0.16,0.57,0.31,1.15,0.45,1.73c1.14,4.67,1.89,9.6,2.29,14.87c-0.7,0.03-2,0.12-3.54,0.46c-2.28,0.49-5.02,1.49-6.92,3.39
			c-2.04,2.01-2.82,4.68-3.14,6.78c5.92-2.49,11.37-5.06,16.38-7.71c-0.1-2.18-0.25-4.31-0.47-6.38c0.63,1.74,1.58,3.55,3.03,5
			c3.44-1.89,6.67-3.82,9.67-5.79C306.04,192.87,305.27,191.78,304.24,190.9z"></path><linearGradient id="c" x1="247.763" x2="296.018" y1="115.168" y2="73.232" gradientUnits="userSpaceOnUse"><stop offset="0" stop-color="#008595"></stop><stop offset="1" stop-color="#0097a6"></stop></linearGradient><path fill="url(#c)" d="M271.32,105.53c-0.83-0.47-1.73-0.88-2.7-1.19c-0.98-0.32-2.03-0.53-3.12-0.55
			c-1.46-0.04-2.86,0.26-4.13,0.72c-0.64,0.23-1.27,0.48-1.87,0.75l0.81-0.64c3.37-2.94,7.24-6.47,10.65-10.46
			c-2.91,0.62-5.9,1.3-8.95,2c0.68,0.83,1.3,1.46,1.68,1.83c-1.74,1.67-3.46,3.21-5.06,4.61l-4.54,3.59l-3.48,2.4
			c0.41-0.48,0.81-0.99,1.17-1.54c0.71-1.12,1.29-2.32,1.42-3.75c0.19-1.73-0.19-3.41-0.79-4.9c-3.11,0.72-6.28,1.44-9.51,2.14
			c-0.03,0.15-0.08,0.28-0.1,0.43c-0.45,2.6,0.3,5.42,1.2,7.57c0.6,1.45,1.26,2.58,1.64,3.16c-8.53,5.01-18.01,8.86-28.21,11.42
			l0.64,2.55c10.58-2.66,20.43-6.67,29.27-11.91c0.39-0.24,0.79-0.47,1.18-0.7c0.74-0.44,1.47-0.87,2.24-1.36l3.98-2.75
			c0.38,0.58,1.15,1.65,2.26,2.77c0.82,0.83,1.83,1.68,3.02,2.37c1.17,0.66,2.52,1.13,4.03,1.22c1.12,0.07,2.25-0.08,3.35-0.37
			c0.55-0.14,1.09-0.32,1.61-0.53c0.51-0.23,1-0.48,1.48-0.74c1.9-1.06,3.49-2.34,4.45-3.23c0.6-0.6,0.67-1.5,0.15-2.01
			C274.28,107.62,272.97,106.47,271.32,105.53z M272.65,93.8c0.53,0.44,1.22,0.96,2.06,1.47c1.98,1.22,4.75,2.38,7.7,1.83
			c3.87-0.65,7.02-3.96,8.69-6.23C285.33,91.37,279.17,92.44,272.65,93.8z"></path><linearGradient id="d" x1="246.174" x2="344.089" y1="126.248" y2="129.057" gradientUnits="userSpaceOnUse"><stop offset="0" stop-color="#008898"></stop><stop offset="1" stop-color="#00a4b5"></stop></linearGradient><path fill="url(#d)" d="M340.81,142.23c0.03-4.08-0.44-8.19-1.36-12.33c-0.93-0.15-1.86-0.3-2.79-0.45
			c0.85-0.06,1.73-0.17,2.61-0.35c-0.84-3.56-2.01-7.13-3.49-10.7c-0.04,0.03-0.08,0.05-0.12,0.07c-2.54,1.67-3.86,4.31-4.54,6.54
			c-0.47,1.52-0.64,2.83-0.71,3.52c-6.23-0.85-12.46-1.55-18.69-2.1c2.09-0.3,4.35-0.99,6.18-2.28c3.59-2.59,4.61-7.23,4.87-9.46
			c0.09-0.72-0.51-1.38-1.33-1.47c-1.27-0.13-3.25-0.29-5.38,0.01c-2.13,0.3-4.39,0.96-6.19,2.31c-2.43,1.82-3.57,4.54-4.1,6.8
			c-0.37,1.56-0.46,2.88-0.48,3.57c-5.25-0.38-10.5-0.65-15.73-0.81c-0.97-0.02-1.94-0.03-2.91-0.05c2.02-0.46,4.16-1.31,5.86-2.69
			c3.41-2.82,4.11-7.51,4.22-9.75c0.04-0.73-0.6-1.34-1.43-1.38c-1.28-0.04-3.27-0.1-5.39,0.37c-2.11,0.45-4.33,1.27-6.04,2.74
			c-2.3,1.99-3.24,4.78-3.62,7.08c-0.25,1.57-0.25,2.89-0.22,3.58c-6.44,0.03-12.76,0.24-18.96,0.63c0.74-0.22,1.49-0.49,2.23-0.83
			c1.34-0.59,2.63-1.31,3.71-2.36c3.19-3.08,3.54-7.81,3.48-10.06c-0.02-0.73-0.71-1.29-1.54-1.26c-1.29,0.04-3.29,0.21-5.37,0.75
			c-2.08,0.59-4.24,1.64-5.83,3.24c-2.15,2.18-2.86,5.05-3.04,7.37c-0.12,1.59-0.01,2.91,0.08,3.59c-11.69,0.97-22.9,2.6-33.54,4.88
			l0.55,2.57c13.5-2.89,27.95-4.72,43.13-5.49c0.01,0.71,0.08,1.99,0.39,3.48c0.48,2.29,1.51,5.06,3.71,7.01
			c1.63,1.44,3.66,2.23,5.59,2.65c0.96,0.21,1.89,0.32,2.73,0.38c0.84,0.07,1.59,0.13,2.18,0.13c0.76,0.01,1.37-0.56,1.37-1.29
			c-0.01-2.24-0.41-6.98-3.67-9.97c-1.64-1.45-3.77-2.23-5.79-2.65c5.92-0.18,11.94-0.2,18.06-0.06c0.17,0,0.33,0.02,0.5,0.02
			c-0.05,0.7-0.09,2,0.11,3.55c0.3,2.29,1.12,5.14,3.17,7.26c3.04,3.15,7.93,3.74,10.29,3.94c0.76,0.07,1.42-0.46,1.47-1.19
			c0.15-2.22,0.09-7.02-2.95-10.18c-1.54-1.59-3.63-2.54-5.64-3.11c6.18,0.3,12.38,0.74,18.58,1.35c-0.09,0.7-0.22,1.99-0.13,3.53
			c0.14,2.32,0.76,5.22,2.67,7.46c2.83,3.34,7.69,4.24,10.03,4.64c0.76,0.11,1.45-0.38,1.54-1.1c0.3-2.23,0.54-6.96-2.27-10.37
			c-1.42-1.69-3.41-2.76-5.36-3.46c6.13,0.7,12.27,1.54,18.39,2.54c-0.14,0.68-0.35,1.97-0.36,3.55
			C339.52,138,339.81,140.22,340.81,142.23z"></path><linearGradient id="e" x1="252.291" x2="332.621" y1="124.729" y2="99.835" gradientUnits="userSpaceOnUse"><stop offset="0" stop-color="#00647b"></stop><stop offset="1" stop-color="#009dad"></stop></linearGradient><path fill="url(#e)" d="M331.04,108.73c-3.02-5.13-6.5-8.97-10.41-11.76c-1.9,1.13-3.83,2.24-5.84,3.34
			c1.32-1.28,2.5-2.96,3-4.93c0.02-0.07,0.03-0.14,0.04-0.2c-3.13-1.77-6.5-2.96-10.1-3.69c-0.08,0.21-0.17,0.41-0.23,0.63
			c-0.72,2.63-0.15,5.49,0.61,7.68c0.51,1.49,1.11,2.65,1.45,3.26c-1.73,0.88-3.48,1.76-5.3,2.63l-6.95,3.18
			c-0.94,0.41-1.9,0.8-2.85,1.19c0.5-0.37,0.99-0.78,1.45-1.24c0.92-0.92,1.69-2.09,2.16-3.41c1.4-3.92-0.27-8.35-1.2-10.39
			c-0.3-0.66-1.04-0.97-1.64-0.69c-0.93,0.43-2.34,1.19-3.68,2.33c-1.37,1.09-2.71,2.52-3.43,4.43c-0.99,2.57-0.7,5.48-0.16,7.74
			c0.37,1.53,0.85,2.75,1.12,3.39l-2.38,0.96c-0.75,0.29-1.51,0.56-2.28,0.82c-0.44,0.15-0.87,0.3-1.29,0.46l-7.22,2.54
			c-0.84,0.28-1.68,0.55-2.53,0.82c0.53-0.32,1.05-0.69,1.55-1.12c0.98-0.88,1.86-1.95,2.46-3.22c1.76-3.78,0.51-8.34-0.23-10.46
			c-0.24-0.69-0.95-1.06-1.58-0.83c-0.98,0.35-2.47,0.99-3.92,2c-1.44,1.05-2.94,2.3-3.83,4.15c-1.22,2.47-1.18,5.39-0.83,7.68
			c0.24,1.6,0.64,2.88,0.86,3.52c-5.28,1.58-10.7,3.04-16.27,4.38c1.7-0.91,3.42-2.22,4.49-4.09c2.06-3.59,1.18-8.24,0.61-10.41
			c-0.19-0.7-0.87-1.13-1.53-0.96c-2.04,0.52-6.19,1.99-8.25,5.59c-1.38,2.45-1.59,5.27-1.4,7.61c0.12,1.58,0.41,2.86,0.59,3.53
			c-9.4,2.08-19.26,3.83-29.71,5.27l0.36,2.6c13.8-1.91,26.59-4.34,38.67-7.36c0.15,0.69,0.47,1.94,1.05,3.35
			c0.89,2.15,2.39,4.66,4.9,6.1c1.85,1.05,4.01,1.45,5.95,1.35c1.94-0.09,3.7-0.51,4.82-0.84c0.72-0.21,1.13-0.95,0.92-1.64
			c-0.66-2.15-2.45-6.54-6.13-8.54c-1.24-0.68-2.58-1.02-3.89-1.15c-0.64-0.08-1.28-0.12-1.89-0.13c5.35-1.45,10.56-3.01,15.66-4.71
			l0.4-0.14c0.2,0.67,0.61,1.91,1.32,3.32c1.05,2.07,2.74,4.45,5.35,5.66c3.87,1.78,8.69,0.6,10.84-0.34
			c0.71-0.28,1.06-1.05,0.79-1.73c-0.83-2.08-2.99-6.3-6.81-7.97c-1.94-0.88-4.05-1.04-5.94-0.88l1.3-0.46
			c0.42-0.15,0.85-0.3,1.28-0.45c0.79-0.28,1.58-0.55,2.38-0.86l3.56-1.44c0.83-0.34,1.67-0.68,2.5-1.01
			c1.54-0.62,3.09-1.24,4.64-1.91c0.25,0.65,0.77,1.85,1.61,3.19c1.23,1.97,3.12,4.18,5.85,5.15c2.02,0.72,4.21,0.64,6.16,0.27
			c1.96-0.36,3.62-1.17,4.68-1.69c0.69-0.35,0.97-1.15,0.63-1.79c-1.03-1.99-3.6-5.98-7.59-7.29c-0.67-0.22-1.35-0.35-2.03-0.42
			c-0.69-0.09-1.37-0.11-2.04-0.08c-0.66,0.03-1.31,0.11-1.93,0.22l1.66-0.76c4.73-2.27,9.15-4.57,13.32-6.94
			c0.32,0.61,0.97,1.76,1.94,3.01c1.43,1.83,3.57,3.84,6.42,4.53C328.39,109.01,329.74,108.97,331.04,108.73z"></path><linearGradient id="f" x1="257.041" x2="330.956" y1="134.528" y2="166.22" gradientUnits="userSpaceOnUse"><stop offset="0" stop-color="#00667d"></stop><stop offset="1" stop-color="#00a6b7"></stop></linearGradient><path fill="url(#f)" d="M328.63,174.79c1.62-2.01,3.06-4.05,4.34-6.11c-1.09-0.74-2.18-1.47-3.28-2.18
			c1.26,0.44,2.66,0.76,4.1,0.83c2.08-3.56,3.68-7.17,4.82-10.83c-1.74-0.53-3.64-0.84-5.5-0.49c-2.95,0.54-5.17,2.46-6.67,4.24
			c-1.02,1.21-1.69,2.33-2.03,2.94c-5.06-3.07-10.25-5.93-15.58-8.56c0.64,0.14,1.31,0.25,1.99,0.32c1.38,0.15,2.83,0.1,4.25-0.29
			c4.2-1.17,6.87-5.02,7.97-7c0.35-0.63,0.07-1.46-0.65-1.85c-2.2-1.19-7.1-3.26-11.36-1.98c-2.85,0.83-4.87,3.04-6.15,4.97
			c-0.87,1.32-1.42,2.51-1.68,3.15c-4.52-2.07-9.12-4-13.81-5.77c-0.89-0.34-1.79-0.66-2.69-0.98c0.67,0.07,1.36,0.1,2.06,0.09
			c1.39,0,2.82-0.21,4.18-0.77c4.04-1.65,6.26-5.78,7.13-7.87c0.28-0.67-0.1-1.47-0.85-1.77c-1.17-0.45-3.02-1.05-5.1-1.34
			c-2.07-0.3-4.39-0.17-6.42,0.68c-2.74,1.15-4.48,3.56-5.54,5.63c-0.72,1.41-1.12,2.67-1.31,3.33c-5.67-1.85-11.4-3.45-17.19-4.81
			c2-0.01,4.2-0.32,6.16-1.41c3.81-2.05,5.55-6.44,6.17-8.61c0.2-0.7-0.27-1.44-1.05-1.65c-1.2-0.35-3.12-0.73-5.22-0.75
			c-2.1-0.02-4.37,0.26-6.3,1.41c-2.6,1.51-4.04,4.07-4.85,6.25c-0.55,1.48-0.8,2.76-0.92,3.45c-10.5-2.13-21.17-3.45-31.93-3.94
			l-0.12,2.62c13.77,0.62,27.39,2.63,40.71,5.97c-0.19,0.67-0.52,1.94-0.67,3.51c-0.23,2.33-0.09,5.2,1.28,7.67
			c1.02,1.84,2.58,3.16,4.14,4.09c1.55,0.97,3.11,1.59,4.14,1.92c0.66,0.21,1.38-0.17,1.61-0.86c0.69-2.14,1.83-6.72-0.17-10.49
			c-1-1.93-2.7-3.29-4.41-4.26c5.48,1.55,10.9,3.33,16.25,5.34c0.15,0.06,0.29,0.11,0.44,0.17c-0.27,0.64-0.74,1.87-1.07,3.41
			c-0.5,2.27-0.71,5.2,0.39,7.78c1.61,3.85,5.59,5.99,7.55,6.93c0.64,0.29,1.39,0,1.7-0.66c0.93-2.04,2.59-6.47,1.04-10.45
			c-0.78-2.01-2.3-3.56-3.88-4.73c5.44,2.24,10.76,4.7,15.95,7.37c-0.34,0.6-0.95,1.77-1.46,3.27c-0.75,2.2-1.29,5.08-0.5,7.77
			c0.58,2.02,1.79,3.67,3.11,4.94c1.29,1.31,2.68,2.25,3.61,2.8c0.6,0.36,1.38,0.17,1.75-0.46c1.15-1.92,3.33-6.17,2.21-10.26
			c-0.55-2.1-1.9-3.83-3.35-5.17c5.15,2.85,10.17,5.9,15.03,9.17c-0.41,0.56-1.14,1.65-1.81,3.07
			C328.97,173.95,328.79,174.36,328.63,174.79z"></path><linearGradient id="g" x1="273.773" x2="314.698" y1="207.161" y2="207.161" gradientUnits="userSpaceOnUse"><stop offset=".002" stop-color="#021111" stop-opacity="0"></stop><stop offset=".455" stop-color="#021111"></stop><stop offset="1" stop-color="#021111" stop-opacity="0"></stop></linearGradient><ellipse cx="294.12" cy="207.16" fill="url(#g)" opacity=".15" rx="20.43" ry="1.45"></ellipse><linearGradient id="h" x1="24.557" x2="281.986" y1="207.161" y2="207.161" gradientUnits="userSpaceOnUse"><stop offset=".002" stop-color="#021111" stop-opacity="0"></stop><stop offset=".455" stop-color="#021111"></stop><stop offset="1" stop-color="#021111" stop-opacity="0"></stop></linearGradient><ellipse cx="152.52" cy="207.16" fill="url(#h)" opacity=".15" rx="128.51" ry="2.79"></ellipse><linearGradient id="i" x1="145.39" x2="87.816" y1="111.4" y2="35.059" gradientUnits="userSpaceOnUse"><stop offset="0" stop-color="#007784"></stop><stop offset="1" stop-color="#007e85"></stop></linearGradient><path fill="url(#i)" d="M188.36,134.64c-13.63-5.7-26.72-13.5-38.7-22.97c0.49-0.57,1.34-1.65,2.16-3.08
			c1.24-2.16,2.39-5.08,2.12-8.09c-0.1-1.11-0.39-2.16-0.8-3.13c-0.39-0.99-0.88-1.92-1.43-2.74c-1.08-1.66-2.37-2.91-3.19-3.75
			c-0.54-0.53-1.41-0.5-1.94,0.06c-1.63,1.73-4.87,5.67-4.59,10.26c0.11,1.54,0.61,3,1.3,4.34c0.33,0.63,0.69,1.23,1.08,1.79
			c-4.71-4.03-9.23-8.32-13.51-12.86c-0.12-0.13-0.23-0.26-0.35-0.38c0.56-0.49,1.58-1.45,2.6-2.76c1.52-1.94,3.06-4.66,3.23-7.71
			c0.19-4.46-2.62-8.5-4.1-10.34c-0.47-0.6-1.34-0.69-1.94-0.21c-1.85,1.5-5.59,4.98-5.9,9.56c-0.15,2.28,0.55,4.53,1.54,6.41
			c-4.21-4.78-8.21-9.78-12-14.99c0.62-0.41,1.75-1.23,2.94-2.41c1.77-1.74,3.66-4.26,4.17-7.25c0.37-2.21-0.02-4.42-0.67-6.32
			c-0.67-1.89-1.53-3.52-2.16-4.52c-0.41-0.65-1.26-0.85-1.92-0.44c-2.03,1.27-6.1,4.25-7.01,8.79c-0.31,1.54-0.18,3.07,0.14,4.54
			c0.16,0.72,0.37,1.41,0.62,2.08c-3.59-5.27-6.97-10.73-10.14-16.39c0.66-0.34,1.88-1.02,3.21-2.05c1.96-1.52,4.1-3.78,4.97-6.72
			c0.29-1.01,0.41-2.04,0.42-3.05c-2.74-2.07-5.65-3.9-8.76-5.43c-1.29,1.22-2.45,2.75-3.05,4.64c-0.48,1.49-0.55,3.04-0.39,4.53
			c0.07,0.72,0.2,1.42,0.37,2.1c-1.41-2.7-2.77-5.44-4.08-8.23c0.2-0.68,0.41-1.51,0.58-2.43c0.18-0.97,0.31-2.04,0.35-3.16
			c-3.78-1.25-7.86-2.06-12.3-2.37c0.12,0.47,0.27,0.93,0.46,1.39c1.29,3.1,3.86,5.27,6.11,6.6c0.84,0.5,1.62,0.89,2.29,1.18
			c2.85,6.03,5.92,11.88,9.2,17.54c-1.51-1.59-3.39-3.11-5.65-3.88c-4.43-1.53-9.14,0.34-11.27,1.44c-0.69,0.36-0.9,1.27-0.48,2.06
			c1.29,2.42,4.49,7.29,9.1,8.73c3.07,0.99,6.16,0.24,8.45-0.72c1.55-0.65,2.74-1.39,3.35-1.81c3.47,5.58,7.16,10.96,11.06,16.13
			c-1.68-1.4-3.77-2.66-6.06-3.18c-4.59-1-9.06,1.4-11.04,2.74c-0.64,0.43-0.75,1.37-0.23,2.1c0.81,1.12,2.1,2.82,3.84,4.33
			c1.76,1.5,3.87,2.86,6.24,3.31c3.21,0.6,6.16-0.5,8.32-1.72c1.47-0.84,2.56-1.72,3.12-2.21c3.46,4.29,7.05,8.42,10.81,12.39
			c0.72,0.76,1.45,1.5,2.17,2.25c-1.84-1.17-4.07-2.15-6.43-2.37c-4.67-0.43-8.81,2.5-10.6,4.08c-0.58,0.51-0.57,1.46,0.04,2.13
			c1.82,2.08,6.22,6.05,11.04,6.35c3.28,0.18,6.06-1.3,8.03-2.8c1.34-1.02,2.3-2.03,2.78-2.59c4.78,4.53,9.81,8.78,15.02,12.73
			c-2.03-0.91-4.42-1.58-6.81-1.49c-4.7,0.24-8.4,3.72-9.96,5.54c-0.51,0.59-0.35,1.52,0.35,2.1c1.09,0.88,2.82,2.2,4.92,3.23
			c2.13,0.99,4.59,1.71,6.99,1.53c3.25-0.26,5.83-2.18,7.55-3.95c1.18-1.22,1.99-2.38,2.38-3c9.81,6.85,20.22,12.61,30.96,17.1
			L188.36,134.64z"></path><linearGradient id="j" x1="96.299" x2="24.172" y1="112.757" y2="55.438" gradientUnits="userSpaceOnUse"><stop offset="0" stop-color="#00727b"></stop><stop offset="1" stop-color="#00797f"></stop></linearGradient><path fill="url(#j)" d="M114.19,116.68c0.74-2.38,1.19-5.5,0.13-8.45c-1.61-4.31-5.94-7.3-8.15-8.51
			c-0.7-0.42-1.57-0.21-1.96,0.46c-1.17,2.06-3.38,6.7-1.86,11.15c0.76,2.22,2.32,4.15,4.01,5.61c-5.89-3.11-11.56-6.38-16.99-9.83
			c-0.15-0.1-0.3-0.2-0.45-0.29c0.42-0.61,1.18-1.79,1.84-3.33c0.99-2.28,1.77-5.31,1.05-8.34c-0.52-2.28-1.78-4.23-3.18-5.79
			c-1.37-1.59-2.85-2.83-3.86-3.56c-0.65-0.48-1.55-0.36-2.01,0.27c-1.42,1.93-4.1,6.2-3.14,10.83c0.47,2.36,1.86,4.4,3.39,6.05
			c-5.68-3.85-11.09-7.88-16.2-12.08c0.49-0.55,1.39-1.63,2.25-3.1c1.27-2.15,2.4-5.05,2.08-8.15c-0.21-2.32-1.25-4.37-2.39-6.12
			c-1.13-1.76-2.48-3.11-3.34-3.98c-0.56-0.56-1.46-0.56-2-0.01c-1.64,1.71-4.93,5.64-4.55,10.33c0.13,1.58,0.65,3.11,1.37,4.5
			c0.39,0.71,0.82,1.38,1.28,2.01c-5.16-4.55-10-9.28-14.51-14.19c0.57-0.48,1.6-1.42,2.64-2.74c1.55-1.95,3.09-4.67,3.22-7.76
			c0.19-4.58-2.64-8.76-4.08-10.69c-0.48-0.61-1.33-0.75-1.96-0.28c-1.91,1.45-5.73,4.78-6.1,9.48c-0.18,2.34,0.56,4.67,1.57,6.65
			c-2.08-2.46-4.08-4.95-5.99-7.49c0.04-0.72,0.06-1.59,0.03-2.55c-0.12-2.64-0.58-5.91-2.33-8.62c-0.31-0.48-0.66-0.93-1.02-1.36
			c-2.96,2.79-5.6,5.84-7.95,9.07c1.89,2.21,4.38,3.62,6.53,4.41c0.95,0.36,1.83,0.61,2.55,0.78c4.12,5.44,8.59,10.7,13.43,15.77
			c-0.63-0.41-1.29-0.8-1.99-1.15c-1.4-0.74-2.95-1.31-4.58-1.5c-4.8-0.61-8.98,2.19-10.81,3.75c-0.59,0.5-0.57,1.48,0.06,2.2
			c0.95,1.12,2.57,2.72,4.55,4.14c1.98,1.41,4.39,2.55,6.83,2.81c3.35,0.29,6.18-1.13,8.19-2.6c1.35-0.99,2.32-2,2.82-2.55
			c4.81,4.67,9.92,9.17,15.35,13.47c-2.04-0.98-4.39-1.77-6.83-1.71c-4.82,0.07-8.55,3.45-10.14,5.26
			c-0.52,0.58-0.36,1.54,0.35,2.16c1.08,0.97,2.89,2.31,5.03,3.41c2.12,1.13,4.64,1.92,7.11,1.81c3.32-0.13,5.93-1.91,7.74-3.64
			c1.22-1.17,2.05-2.3,2.47-2.91c4.54,3.36,9.27,6.61,14.2,9.72c0.95,0.6,1.91,1.19,2.87,1.79c-0.75-0.26-1.53-0.5-2.34-0.68
			c-1.55-0.35-3.19-0.49-4.81-0.25c-4.78,0.67-8.03,4.49-9.39,6.48c-0.44,0.64-0.17,1.58,0.6,2.1c1.18,0.83,3.13,1.9,5.37,2.73
			c1.12,0.41,2.32,0.75,3.54,0.95c1.23,0.17,2.48,0.18,3.7-0.02c3.28-0.55,5.66-2.62,7.24-4.53c1.08-1.31,1.77-2.53,2.11-3.18
			c5.8,3.34,11.83,6.51,18.09,9.49c-0.73-0.16-1.49-0.29-2.27-0.36c-1.59-0.15-3.21-0.16-4.78,0.25c-4.67,1.19-7.49,5.4-8.61,7.52
			c-0.37,0.68,0.01,1.57,0.83,1.99c1.27,0.64,3.3,1.55,5.59,2.15c2.32,0.55,4.91,0.76,7.26,0.11c3.18-0.86,5.34-3.18,6.72-5.27
			c0.94-1.42,1.5-2.7,1.77-3.39c10.93,4.86,22.48,9.18,34.62,12.92l0.83-2.68c-15.73-4.85-30.49-10.67-44.12-17.39
			C113.07,119.54,113.69,118.29,114.19,116.68z"></path><linearGradient id="k" x1="90.429" x2="16.705" y1="125.286" y2="124.137" gradientUnits="userSpaceOnUse"><stop offset="0" stop-color="#00727b"></stop><stop offset="1" stop-color="#007d83"></stop></linearGradient><path fill="url(#k)" d="M44.66,122.08c0.83-0.16,1.66-0.29,2.5-0.42c0.47-0.07,0.94-0.15,1.4-0.22l1.88-0.3l2-0.19
			c0.87-0.09,1.75-0.15,2.62-0.21c-0.57,0.22-1.14,0.48-1.69,0.77c-1.18,0.67-2.3,1.47-3.12,2.71c-2.43,3.61-1.81,8.61-1.42,10.97
			c0.13,0.76,0.72,1.3,1.31,1.2c0.92-0.15,2.3-0.54,3.79-1.13c1.49-0.62,3.02-1.77,4.28-3.32c1.68-2.18,2.45-5.2,2.76-7.66
			c0.21-1.65,0.2-3.04,0.18-3.79c5.69-0.04,11.45,0.44,17.24,1.43c-0.68,0.06-1.37,0.16-2.06,0.32c-1.31,0.28-2.61,0.99-3.71,1.92
			c-3.28,2.84-3.98,7.82-4.2,10.21c-0.07,0.77,0.38,1.45,1.01,1.52c0.97,0.1,2.47,0.15,4.13-0.18c1.66-0.21,3.49-0.81,5.13-2.14
			c2.21-1.83,3.64-4.5,4.48-6.83c0.58-1.57,0.88-2.94,1.01-3.67c9.54,2.13,19.2,5.45,29.51,10.15l1.16-2.55
			c-10.65-4.85-20.62-8.26-30.48-10.43c-2.96-0.67-5.93-1.19-8.88-1.6c0.13-0.73,0.32-2.12,0.31-3.8c-0.03-2.47-0.54-5.54-2.62-7.92
			c-0.77-0.88-1.7-1.61-2.7-2.21c-1.01-0.58-2.11-0.95-3.18-1.27c-2.16-0.58-4.24-0.85-5.59-0.8c-0.88,0.01-1.58,0.65-1.56,1.43
			c0.02,1.2,0.18,3.05,0.73,4.99c0.55,1.95,1.5,3.94,3.06,5.62c1.05,1.12,2.29,1.93,3.55,2.53c0.63,0.31,1.27,0.52,1.9,0.75
			c0.03,0.01,0.06,0.02,0.08,0.03c-5.83-0.45-11.61-0.41-17.29,0.16l-0.49,0.05c-0.05-0.74-0.2-2.13-0.63-3.76
			c-0.64-2.4-1.9-5.33-4.56-7.05c-3.96-2.69-9.83-1.82-12.47-1.07c-0.86,0.25-1.37,1.06-1.15,1.8c0.34,1.15,1,2.89,2.07,4.61
			c1.07,1.74,2.52,3.37,4.48,4.59c1.32,0.8,2.73,1.25,4.11,1.49c0.69,0.11,1.37,0.21,2.04,0.27c-0.49,0.08-0.99,0.17-1.5,0.27
			c-0.53,0.12-1.06,0.24-1.59,0.37c-2.06,0.47-4.2,0.95-6.24,1.63c-2.64,0.79-5.21,1.71-7.68,2.72c-0.26-0.69-0.79-1.99-1.66-3.43
			c-1.28-2.11-3.29-4.5-6.38-5.47c-2.3-0.75-4.75-0.41-6.99,0.16c-1.42,0.41-2.7,0.98-3.76,1.53c0.32,2.48,0.77,4.77,1.32,6.83
			c1.48,1.3,3.33,2.49,5.46,3.03c2.21,0.52,4.47,0.37,6.43-0.06c-0.58,0.3-1.18,0.58-1.75,0.89c-2.5,1.33-4.92,2.8-7.28,4.37
			c1.96,5.09,4.14,9.92,6.51,14.5c0.2-0.65,0.35-1.33,0.42-2.07c0.24-2.73-0.71-5.69-1.76-7.94c-0.69-1.5-1.43-2.66-1.85-3.29
			c1.73-1.09,3.48-2.14,5.29-3.1c3.13-1.7,6.5-3.2,10.04-4.49c-0.52,0.37-1.03,0.78-1.51,1.24c-0.98,0.9-1.74,2.16-2.21,3.51
			c-1.36,4.05,0.71,8.76,1.74,10.89c0.35,0.7,1.04,1.02,1.58,0.76c0.84-0.37,2.09-1.05,3.28-2.14c1.23-0.98,2.41-2.41,3.12-4.34
			c0.99-2.53,0.91-5.63,0.54-8.08c-0.25-1.67-0.64-3.02-0.86-3.72c1.58-0.46,3.22-0.84,4.81-1.2
			C43.63,122.32,44.17,122.2,44.66,122.08z"></path><linearGradient id="l" x1="116.734" x2="55.202" y1="109.562" y2="35.264" gradientUnits="userSpaceOnUse"><stop offset="0" stop-color="#004c5e"></stop><stop offset="1" stop-color="#007a81"></stop></linearGradient><path fill="url(#l)" d="M44.66,38.25c0.53,1.13,1.48,2.83,2.81,4.45c1.36,1.61,3.13,3.12,5.29,3.86
			c2.94,0.99,6,0.4,8.34-0.42c1.59-0.56,2.83-1.22,3.47-1.59c2.87,5.43,5.87,10.67,9,15.71c-1.47-1.42-3.3-2.76-5.55-3.33
			c-4.34-1.15-8.95,0.92-11.03,2.1c-0.68,0.38-0.89,1.26-0.48,1.96c0.62,1.09,1.71,2.72,3.22,4.21c1.48,1.5,3.4,2.86,5.63,3.4
			c3.01,0.73,6-0.13,8.26-1.17c1.54-0.71,2.71-1.49,3.31-1.91c2.82,4.29,5.73,8.44,8.74,12.41c0.59,0.78,1.19,1.55,1.79,2.33
			c-1.61-1.25-3.57-2.39-5.86-2.73c-4.47-0.7-8.82,1.8-10.78,3.19c-0.63,0.45-0.76,1.35-0.28,2.02c1.49,2.05,5.07,6.13,9.69,6.73
			c3.09,0.42,5.95-0.77,8.09-2.06c1.44-0.88,2.52-1.78,3.07-2.27c3.89,4.67,8.02,9.15,12.36,13.4c-0.62-0.37-1.28-0.72-1.97-1.02
			c-1.31-0.56-2.76-0.95-4.3-0.99c-4.51-0.16-8.54,2.85-10.32,4.47c-0.58,0.52-0.58,1.44-0.01,2.05c0.86,0.96,2.35,2.33,4.21,3.48
			c0.92,0.58,1.93,1.1,3,1.48c1.08,0.37,2.24,0.59,3.4,0.59c3.15,0.01,5.84-1.57,7.75-3.13c1.31-1.07,2.25-2.12,2.72-2.68
			c8.3,7.5,17.27,13.88,26.68,18.94l1.33-2.47c-9.33-5.02-18.23-11.36-26.44-18.83c-2.23-2.05-4.4-4.17-6.53-6.33
			c0.55-0.5,1.55-1.48,2.56-2.8c1.52-1.97,3.04-4.63,3.26-7.54c0.18-2.17-0.41-4.14-1.21-5.78c-0.77-1.68-1.77-3.03-2.46-3.85
			c-0.45-0.53-1.3-0.56-1.89-0.07c-1.84,1.54-5.49,5.01-5.92,9.41c-0.23,2.23,0.44,4.34,1.37,6.1c-3.9-4.26-7.6-8.71-11.05-13.32
			c-0.1-0.13-0.19-0.26-0.29-0.39c0.61-0.43,1.73-1.26,2.91-2.45c1.75-1.75,3.62-4.23,4.17-7.09c0.43-2.15,0.08-4.21-0.54-5.96
			c-0.59-1.78-1.44-3.26-2.05-4.18c-0.39-0.59-1.23-0.73-1.88-0.31c-2,1.32-6.01,4.37-6.94,8.71c-0.48,2.19-0.06,4.36,0.65,6.23
			c-3.37-4.76-6.62-9.73-9.74-14.91c0.65-0.36,1.85-1.08,3.15-2.14c1.93-1.57,4.03-3.82,4.88-6.65c1.24-4.18-0.62-8.45-1.65-10.43
			c-0.33-0.64-1.15-0.86-1.83-0.5c-2.1,1.12-6.42,3.82-7.74,8.04c-0.44,1.43-0.51,2.9-0.35,4.3c0.08,0.69,0.22,1.36,0.4,2
			c-2.89-5.09-5.66-10.35-8.3-15.8c0.68-0.3,1.94-0.91,3.32-1.84c0.99-0.67,2.05-1.51,2.99-2.5c-1.63,0.21-3.29,0.45-5.01,0.78
			c-1.88,0.36-3.7,0.8-5.47,1.29c1.03,2.2,2.08,4.39,3.15,6.54c-1.33-1.54-3.06-3.01-5.21-3.79c-1.44-0.51-2.94-0.66-4.37-0.59
			c-2.63,1.05-5.13,2.24-7.49,3.57C44.64,38.21,44.65,38.23,44.66,38.25z"></path><linearGradient id="m" x1="83.386" x2="9.471" y1="111.019" y2="94.678" gradientUnits="userSpaceOnUse"><stop offset="0" stop-color="#004757"></stop><stop offset="1" stop-color="#00787e"></stop></linearGradient><path fill="url(#m)" d="M49.61,107.67c0.65-1.54,1-2.89,1.16-3.61c5.46,1.44,11.12,3.21,17.05,5.34
			c-1.99-0.16-4.2,0.07-6.15,1.05c-3.94,1.99-5.82,6.76-6.55,9.02c-0.23,0.74,0.12,1.49,0.8,1.7c1.05,0.35,2.71,0.8,4.59,0.91
			c0.94,0.05,1.94,0.02,2.95-0.15c1.01-0.15,2.04-0.42,3.02-0.9c2.66-1.29,4.54-3.77,5.75-5.94c0.82-1.47,1.32-2.77,1.56-3.47
			c10.6,4.09,21.07,8.72,30.06,12.76l1.15-2.55c-9.14-4.1-19.8-8.82-30.61-12.97c-2.98-1.15-5.89-2.2-8.73-3.18
			c0.27-0.69,0.72-2.01,1.03-3.67c0.45-2.44,0.54-5.57-0.93-8.34c-1.08-2.07-2.96-3.52-4.82-4.62c-1.87-1.1-3.77-1.78-5.05-2.08
			c-0.82-0.21-1.63,0.22-1.82,0.98c-0.6,2.33-1.35,7.3,0.93,11.21c1.15,2.05,2.93,3.52,4.71,4.58c-5.97-1.86-11.69-3.36-17.25-4.51
			c-0.16-0.03-0.32-0.06-0.48-0.09c0.18-0.72,0.46-2.09,0.55-3.77c0.13-2.48-0.19-5.6-2.05-8.17c-2.77-3.66-8.17-5.04-10.71-5.28
			c-0.83-0.1-1.57,0.44-1.65,1.21c-0.28,2.38-0.38,7.44,2.41,10.97c1.41,1.82,3.35,3.07,5.23,3.88c-5.64-0.94-11.64-1.67-18.11-2.2
			c0.09-0.73,0.21-2.13,0.09-3.81c-0.17-2.48-0.84-5.53-2.94-7.86c-0.65-0.71-1.4-1.29-2.2-1.78c-1.16,4.22-2,8.43-2.56,12.54
			c0.45,0.18,0.89,0.34,1.34,0.48c-0.46-0.03-0.93-0.06-1.39-0.08c-0.12,0.93-0.23,1.86-0.32,2.78c3.83,0.21,7.48,0.48,11.01,0.81
			c-1.97,0.34-4.06,1.08-5.72,2.53c-3.33,2.92-4.04,7.99-4.2,10.36c-0.05,0.77,0.5,1.43,1.24,1.46c1.14,0.04,2.85,0.11,4.73-0.26
			c1.86-0.34,3.89-1.14,5.52-2.51c2.22-1.89,3.44-4.76,4.08-7.15c0.44-1.62,0.61-3,0.67-3.74c5.26,0.65,10.21,1.45,14.9,2.43
			c0.89,0.18,1.8,0.39,2.7,0.59c-1.99,0.09-4.15,0.59-5.94,1.82c-3.63,2.53-4.84,7.51-5.25,9.85c-0.13,0.76,0.32,1.47,1.02,1.57
			c1.09,0.13,2.72,0.42,4.56,0.27c1.84-0.14,3.86-0.67,5.66-1.82C47.06,112.64,48.65,109.96,49.61,107.67z"></path><g><path fill="#0B3D59" d="M237.46,159.04c-0.19,0-0.38,0-0.57,0c-18.02,0.3-32.69,15.45-32.69,33.77v12.84v1.5h1.5h63.51h1.5v-1.5
				V192.3C270.71,173.96,255.79,159.04,237.46,159.04L237.46,159.04z"></path><path fill="#FFF" d="M237.46,160.54c17.54,0,31.75,14.22,31.75,31.75v13.36H205.7v-12.84c0-17.41,13.8-31.98,31.21-32.27
				C237.1,160.55,237.28,160.54,237.46,160.54"></path><path fill="#0B3D59" d="M237.46 180.05c6.76 0 12.25 5.49 12.25 12.25h-24.5C225.21 185.53 230.69 180.05 237.46 180.05zM232.79 166.35c-.24 0-.45-.17-.49-.41l-.39-2.19c-.05-.27.13-.53.41-.58.26-.05.53.13.58.41l.39 2.19c.05.27-.13.53-.41.58C232.85 166.35 232.82 166.35 232.79 166.35zM224.03 169.54c-.17 0-.34-.09-.43-.25l-1.11-1.92c-.14-.24-.06-.54.18-.68.24-.14.54-.06.68.18l1.11 1.92c.14.24.06.54-.18.68C224.2 169.52 224.12 169.54 224.03 169.54zM216.89 175.54c-.11 0-.23-.04-.32-.12l-1.7-1.43c-.21-.18-.24-.49-.06-.7s.49-.24.7-.06l1.7 1.43c.21.18.24.49.06.7C217.18 175.48 217.03 175.54 216.89 175.54zM212.21 183.61c-.06 0-.11-.01-.17-.03l-2.09-.76c-.26-.09-.39-.38-.3-.64.1-.26.38-.39.64-.3l2.09.76c.26.09.39.38.3.64C212.61 183.48 212.42 183.61 212.21 183.61zM266.54 192.8h-2.22c-.28 0-.5-.22-.5-.5s.22-.5.5-.5h2.22c.28 0 .5.22.5.5S266.82 192.8 266.54 192.8zM210.59 192.8h-2.22c-.28 0-.5-.22-.5-.5s.22-.5.5-.5h2.22c.28 0 .5.22.5.5S210.87 192.8 210.59 192.8zM262.7 183.61c-.2 0-.4-.13-.47-.33-.09-.26.04-.55.3-.64l2.09-.76c.26-.09.55.04.64.3s-.04.55-.3.64l-2.09.76C262.82 183.6 262.76 183.61 262.7 183.61zM258.02 175.54c-.14 0-.28-.06-.38-.18-.18-.21-.15-.53.06-.7l1.7-1.43c.21-.18.53-.15.7.06.18.21.15.53-.06.7l-1.7 1.43C258.25 175.5 258.14 175.54 258.02 175.54zM250.88 169.54c-.08 0-.17-.02-.25-.07-.24-.14-.32-.44-.18-.68l1.11-1.92c.14-.24.44-.32.68-.18.24.14.32.44.18.68l-1.11 1.92C251.22 169.45 251.05 169.54 250.88 169.54zM242.12 166.35c-.03 0-.06 0-.09-.01-.27-.05-.45-.31-.41-.58l.39-2.19c.05-.27.31-.46.58-.41.27.05.45.31.41.58l-.39 2.19C242.57 166.18 242.36 166.35 242.12 166.35zM237.46 167.27c-.28 0-.5-.22-.5-.5v-3.56c0-.28.22-.5.5-.5s.5.22.5.5v3.56C237.96 167.04 237.73 167.27 237.46 167.27zM228.74 168.85c-.2 0-.4-.13-.47-.33l-1.23-3.38c-.09-.26.04-.55.3-.64.26-.09.55.04.64.3l1.23 3.38c.09.26-.04.55-.3.64C228.86 168.84 228.8 168.85 228.74 168.85zM221.13 173.34c-.14 0-.28-.06-.38-.18l-2.36-2.81c-.18-.21-.15-.53.06-.7.21-.18.53-.15.7.06l2.36 2.81c.18.21.15.53-.06.7C221.36 173.31 221.25 173.34 221.13 173.34zM215.49 180.11c-.08 0-.17-.02-.25-.07l-3.21-1.85c-.24-.14-.32-.44-.18-.68.14-.24.45-.32.68-.18l3.21 1.85c.24.14.32.44.18.68C215.83 180.02 215.66 180.11 215.49 180.11zM212.4 188.38c-.03 0-.06 0-.09-.01l-3.58-.63c-.27-.05-.45-.31-.41-.58.05-.27.31-.46.58-.41l3.58.63c.27.05.45.31.41.58C212.85 188.21 212.64 188.38 212.4 188.38zM262.59 188.37c-.24 0-.45-.17-.49-.41-.05-.27.13-.53.41-.58l3.5-.62c.27-.05.53.13.58.41.05.27-.13.53-.41.58l-3.5.62C262.65 188.36 262.62 188.37 262.59 188.37zM259.56 180.04c-.17 0-.34-.09-.43-.25-.14-.24-.06-.54.18-.68l3.08-1.78c.24-.14.54-.06.68.18.14.24.06.54-.18.68l-3.08 1.78C259.73 180.02 259.64 180.04 259.56 180.04zM253.86 173.25c-.11 0-.23-.04-.32-.12-.21-.18-.24-.49-.06-.7l2.28-2.72c.18-.21.49-.24.7-.06.21.18.24.49.06.7l-2.28 2.72C254.14 173.19 254 173.25 253.86 173.25zM246.19 168.81c-.06 0-.11-.01-.17-.03-.26-.09-.39-.38-.3-.64l1.22-3.34c.09-.26.38-.39.64-.3s.39.38.3.64l-1.22 3.34C246.58 168.68 246.39 168.81 246.19 168.81z"></path><g><path fill="#082947" d="M41.9,186.86c-4.05,0-8.06-1.07-11.58-3.1c-5.38-3.1-9.24-8.12-10.86-14.13
						c-1.62-6.02-0.8-12.29,2.3-17.68c4.14-7.2,11.89-11.67,20.22-11.67c4.05,0,8.06,1.07,11.58,3.11
						c5.38,3.1,9.24,8.12,10.86,14.13c1.62,6.02,0.81,12.29-2.29,17.67C57.98,182.39,50.23,186.86,41.9,186.86
						C41.9,186.86,41.9,186.86,41.9,186.86z"></path><path fill="#CCEDF1" d="M48.64 181.16c-.1 0-.21.03-.29.1-2.31 1.68-4.71 2.88-7.13 3.55-.24.07-.39.3-.36.54s.24.43.48.44c.2 0 .39.01.59.01 3.27 0 6.58-.75 9.56-2.17.17-.08.28-.25.29-.43.01-.19-.09-.36-.25-.45l-2.63-1.51C48.81 181.18 48.72 181.16 48.64 181.16zM43.05 177.95c-.13 0-.26.05-.36.16-2.34 2.46-4.71 4.29-6.84 5.29-.21.1-.32.32-.28.55.04.22.23.39.46.4.27.02.53.02.8.02 3.31 0 6.81-1.18 10.12-3.42.14-.1.23-.26.22-.43-.01-.17-.1-.33-.25-.42l-3.63-2.09C43.22 177.97 43.13 177.95 43.05 177.95zM36.69 174.28c-.17 0-.34.09-.43.25l-4.56 7.91c-.08.15-.09.33-.01.48.08.15.22.25.39.27.13.01.27.02.41.02 2.36 0 5.67-2 9.07-5.48.11-.11.16-.26.14-.42s-.11-.29-.25-.37l-4.51-2.59C36.86 174.31 36.77 174.28 36.69 174.28zM56.52 172.47c-.17 0-.33.08-.43.24-1.7 2.78-3.74 5.2-6.05 7.19-.12.11-.19.26-.17.43.02.16.11.31.25.39l3.03 1.74c.08.04.16.07.25.07.09 0 .18-.03.26-.08 2.85-1.76 5.22-4.13 7.05-7.03.07-.12.09-.25.06-.39s-.12-.25-.24-.31l-3.77-2.17C56.7 172.5 56.61 172.47 56.52 172.47zM30.38 170.65c-.06 0-.13.01-.19.04-.14.06-.25.18-.29.33-1.39 5.01-1.38 8.99.03 10.94.09.13.25.21.4.21.01 0 .02 0 .03 0 .17-.01.32-.1.41-.25l4.55-7.92c.07-.11.08-.25.05-.38-.03-.13-.12-.24-.23-.3l-4.51-2.59C30.55 170.68 30.46 170.65 30.38 170.65zM49.94 168.69c-.17 0-.34.09-.43.25-1.67 2.81-3.49 5.37-5.42 7.62-.1.11-.14.26-.11.41.03.15.11.28.24.35l4.02 2.31c.08.04.16.07.25.07.11 0 .23-.04.32-.11 2.44-2 4.57-4.48 6.34-7.37.07-.12.09-.25.06-.38s-.12-.24-.23-.31l-4.77-2.75C50.11 168.71 50.02 168.69 49.94 168.69zM24.9 167.5c-.08 0-.16.02-.24.06-.15.08-.25.24-.26.41-.29 4.29.62 8.25 2.55 11.15.09.14.25.22.42.22.05 0 .11-.01.17-.03.22-.08.35-.29.33-.51-.2-2.34.2-5.31 1.14-8.57.06-.22-.03-.46-.23-.57l-3.63-2.09C25.07 167.52 24.98 167.5 24.9 167.5zM42.4 164.34c-.04 0-.09.01-.13.02-.13.03-.24.12-.3.23l-4.68 8.14c-.14.24-.06.54.18.68l4.91 2.84c.08.05.16.07.25.07.14 0 .28-.06.38-.17 1.99-2.27 3.86-4.87 5.57-7.74.07-.12.09-.25.05-.38-.03-.13-.12-.24-.23-.31l-5.75-3.31C42.57 164.37 42.49 164.34 42.4 164.34zM20.3 164.86c-.09 0-.19.03-.27.08-.16.1-.25.28-.23.46.3 3.5 1.42 6.91 3.24 9.86.09.15.26.24.43.24.07 0 .13-.01.2-.04.23-.1.35-.35.29-.59-.64-2.45-.81-5.12-.51-7.95.02-.2-.08-.39-.25-.49l-2.64-1.51C20.48 164.88 20.39 164.86 20.3 164.86zM60.68 161.65c-.07 0-.14.02-.21.05-.15.07-.25.21-.28.37-.54 3.05-1.57 6.04-3.08 8.89-.13.24-.04.53.19.67l3.76 2.16c.08.04.16.07.25.07.05 0 .1-.01.14-.02.13-.04.24-.13.3-.25 1.55-3.07 2.35-6.34 2.38-9.71 0-.18-.09-.35-.25-.44l-2.96-1.71C60.85 161.67 60.77 161.65 60.68 161.65zM34.87 160.01c-.04 0-.09.01-.13.02-.13.04-.24.12-.3.24-1.63 2.92-2.95 5.85-3.9 8.7-.08.23.02.47.22.59l4.92 2.83c.08.04.16.07.25.07.17 0 .34-.09.43-.25l4.69-8.14c.07-.12.08-.25.05-.38-.03-.13-.12-.24-.23-.3l-5.74-3.3C35.04 160.03 34.96 160.01 34.87 160.01zM54.82 158.27c-.06 0-.12.01-.18.03-.14.05-.25.17-.3.31-.94 2.78-2.22 5.66-3.81 8.55-.13.24-.05.54.19.67l4.76 2.74c.08.04.16.07.25.07.05 0 .09-.01.14-.02.13-.04.24-.13.3-.25 1.58-3 2.62-6.12 3.08-9.25.03-.2-.07-.4-.25-.51l-3.95-2.28C54.99 158.29 54.9 158.27 54.82 158.27zM28.29 156.22c-.05 0-.09.01-.14.02-.13.04-.24.13-.3.24-1.62 3.01-2.69 6.1-3.19 9.2-.03.21.06.41.24.51l4.02 2.31c.08.04.16.07.25.07.06 0 .12-.01.17-.03.14-.05.25-.16.3-.3.97-2.8 2.27-5.67 3.86-8.52.13-.24.05-.54-.19-.68l-4.78-2.75C28.47 156.24 28.38 156.22 28.29 156.22zM48.12 154.43c-.17 0-.34.09-.43.25L43 162.81c-.07.12-.08.25-.05.38.03.13.12.24.23.3l5.74 3.3c.08.04.16.07.25.07.04 0 .09-.01.13-.02.13-.04.24-.12.3-.24 1.64-2.99 2.94-5.93 3.85-8.72.07-.22-.02-.47-.23-.59l-4.86-2.79C48.29 154.45 48.21 154.43 48.12 154.43zM22.71 153.01c-.05 0-.09.01-.14.02-.13.04-.24.13-.3.25-1.59 3.05-2.44 6.29-2.54 9.62 0 .18.09.36.25.45l3.03 1.74c.08.04.16.07.25.07.07 0 .14-.02.21-.05.15-.07.25-.2.28-.36.57-3.01 1.63-5.98 3.17-8.83.13-.24.04-.54-.19-.67l-3.78-2.17C22.89 153.04 22.8 153.01 22.71 153.01zM41.46 150.59c-.14 0-.27.06-.37.17-1.95 2.17-3.83 4.77-5.61 7.71-.07.12-.09.25-.06.38.03.13.12.24.23.31l5.73 3.3c.08.04.17.07.25.07.17 0 .34-.09.43-.25l4.69-8.14c.07-.12.08-.25.05-.38-.03-.13-.12-.24-.23-.3l-4.87-2.8C41.63 150.61 41.55 150.59 41.46 150.59zM60.42 151.66c-.07 0-.13.01-.2.04-.23.1-.35.35-.29.58.61 2.36.79 4.92.54 7.6-.02.2.08.38.25.48l2.56 1.47c.08.04.16.07.25.07.09 0 .19-.03.27-.08.16-.1.24-.28.22-.47-.35-3.37-1.45-6.63-3.19-9.45C60.75 151.75 60.59 151.66 60.42 151.66zM56.51 147.82c-.06 0-.11.01-.17.03-.22.08-.35.29-.33.52.2 2.24-.16 5.09-1.05 8.25-.06.22.03.45.23.57l3.54 2.05c.08.04.16.07.25.07.08 0 .16-.02.24-.06.15-.08.25-.24.26-.41.23-4.2-.66-7.93-2.57-10.78C56.83 147.9 56.67 147.82 56.51 147.82zM35.68 147.26c-.11 0-.22.04-.31.11-2.42 1.92-4.65 4.44-6.45 7.31-.07.12-.09.25-.06.39.03.13.12.24.24.31l4.76 2.74c.08.04.16.07.25.07.17 0 .33-.09.43-.24 1.67-2.78 3.52-5.33 5.48-7.58.1-.11.14-.26.12-.41-.02-.15-.11-.28-.24-.35l-3.96-2.27C35.85 147.28 35.76 147.26 35.68 147.26zM53.52 144.99c-.17.01-.32.1-.41.25l-4.39 7.64c-.14.24-.06.54.18.68l4.44 2.56c.08.04.16.07.25.07.06 0 .13-.01.19-.04.14-.06.25-.18.29-.33 1.3-4.86 1.26-8.73-.13-10.62-.09-.13-.25-.21-.4-.21C53.54 144.99 53.53 144.99 53.52 144.99zM30.8 144.45c-.09 0-.18.02-.26.07-2.85 1.69-5.34 4.09-7.19 6.94-.08.12-.1.26-.07.39s.12.25.24.32l3.75 2.17c.08.05.17.07.25.07.17 0 .33-.08.42-.23 1.73-2.75 3.79-5.15 6.15-7.12.13-.1.19-.26.18-.43-.01-.16-.11-.31-.25-.39l-2.97-1.71C30.97 144.47 30.88 144.45 30.8 144.45zM51.41 143.94c-2.3 0-5.52 1.91-8.85 5.24-.11.11-.16.27-.14.42.02.15.11.29.25.37l4.44 2.55c.08.04.16.07.25.07.17 0 .34-.09.43-.25l4.4-7.63c.08-.15.09-.33.01-.48-.08-.15-.23-.25-.4-.27C51.68 143.95 51.55 143.94 51.41 143.94zM47.03 142.79c-3.19 0-6.58 1.11-9.79 3.22-.15.1-.23.26-.23.43 0 .17.1.33.25.42l3.55 2.04c.08.04.16.07.25.07.13 0 .26-.05.36-.15 2.26-2.33 4.54-4.08 6.6-5.05.21-.1.32-.32.28-.55-.04-.22-.23-.39-.46-.4C47.58 142.8 47.31 142.79 47.03 142.79zM42.01 141.35c-3.15 0-6.34.69-9.23 2.01-.17.08-.28.24-.29.43-.01.19.09.36.25.46l2.55 1.47c.08.04.16.07.25.07.1 0 .2-.03.29-.09 2.21-1.56 4.51-2.69 6.85-3.35.24-.07.39-.3.36-.54s-.24-.43-.48-.44C42.37 141.36 42.19 141.35 42.01 141.35z"></path><path fill="#082947" d="M27.6,206.3c0,0.48,0.39,0.86,0.86,0.86h42.27c0.48,0,0.86-0.39,0.86-0.86v-2.07
					c0-0.48-0.39-0.87-0.87-0.87H28.46c-0.48,0-0.86,0.39-0.86,0.86V206.3z"></path><path fill="#1CD3D3" d="M34.62,203.36C34.62,203.36,34.62,203.36,34.62,203.36l26.9,0v-1.48c0-1.28-1.04-2.32-2.32-2.32H36.94
					c-1.28,0-2.32,1.04-2.32,2.32V203.36z"></path><rect width="3.8" height="8.51" x="46.16" y="191.05" fill="#082947"></rect><path fill="#A5F2F0" d="M69.54,156.14c-1.92-7.13-6.42-13.12-12.68-16.95c-0.22-0.13-0.43-0.27-0.65-0.39
					c-0.21-0.12-0.44-0.23-0.65-0.35l-0.75,1.3c0.22,0.12,0.44,0.23,0.65,0.35c0.22,0.13,0.43,0.26,0.65,0.39
					c5.92,3.63,10.17,9.29,11.98,16.04c1.89,7,0.94,14.3-2.67,20.56c-4.82,8.37-13.83,13.57-23.52,13.57
					c-4.47,0-8.88-1.13-12.82-3.26c-0.22-0.12-0.44-0.23-0.65-0.35c-0.22-0.13-0.43-0.26-0.65-0.39l-0.75,1.3
					c0.22,0.13,0.43,0.27,0.65,0.39c0.21,0.12,0.44,0.23,0.65,0.35c4.17,2.26,8.84,3.46,13.57,3.46c10.22,0,19.73-5.49,24.82-14.32
					C70.53,171.24,71.53,163.53,69.54,156.14z"></path><path fill="#082947" d="M55.46 140.1c-.21-.12-.44-.23-.65-.35l-1.9 3.29c.22.12.44.23.65.35.22.13.42.28.64.41l1.91-3.31C55.89 140.36 55.68 140.23 55.46 140.1zM29.68 183.35l-1.91 3.31c.22.13.43.27.65.39.21.12.44.23.65.35l1.9-3.29c-.22-.12-.44-.23-.66-.35C30.1 183.63 29.9 183.49 29.68 183.35zM27.67 188.35c-.22-.13-.43-.26-.65-.39l-1.21 2.1 1.29.77 1.23-2.13C28.11 188.59 27.89 188.48 27.67 188.35zM55.55 138.45c.22.12.44.23.65.35.22.13.43.26.65.39l1.23-2.13-1.32-.72L55.55 138.45z"></path><path fill="#A5F2F0" d="M58.82 131.54l-2.43 4.21c-.1.17-.04.38.13.47l1.8.98c.16.09.37.03.46-.13l2.41-4.18c.09-.16.04-.37-.13-.47l-1.79-1.01C59.13 131.32 58.92 131.38 58.82 131.54zM25.11 190.05l-2.43 4.21c-.09.16-.04.37.13.47l1.78 1.02c.16.09.37.04.47-.13l2.41-4.18c.09-.16.04-.37-.12-.46l-1.76-1.05C25.42 189.83 25.21 189.89 25.11 190.05z"></path></g><g><polygon fill="#CCEDF1" points="193.77 112.71 91.18 112.71 105.1 190.55 207.69 190.55"></polygon><path fill="#1CD3D3" d="M142.48 146.17l2.01 11.15c.05.28.3.49.58.49h10.76c.37 0 .65-.33.58-.7l-2.01-11.15c-.05-.28-.3-.49-.58-.49h-10.76C142.69 145.47 142.41 145.8 142.48 146.17zM155.65 146.17l2.01 11.15c.05.28.3.49.58.49h10.76c.37 0 .65-.33.58-.7l-2.01-11.15c-.05-.28-.3-.49-.58-.49h-10.76C155.87 145.47 155.59 145.8 155.65 146.17zM114.29 145.47h-10.76c-.37 0-.65.33-.58.7l2.01 11.15c.05.28.3.49.58.49h10.76c.37 0 .65-.33.58-.7l-2.01-11.15C114.83 145.68 114.58 145.47 114.29 145.47zM116.12 146.17l2.01 11.15c.05.28.3.49.58.49h10.76c.37 0 .65-.33.58-.7l-2.01-11.15c-.05-.28-.3-.49-.58-.49h-10.76C116.34 145.47 116.06 145.8 116.12 146.17z"></path><path fill="#11C1C8" d="M153.98,143.58l-2.01-11.15c-0.05-0.28-0.3-0.49-0.58-0.49h-10.76c-0.37,0-0.65,0.33-0.58,0.7
								l2.01,11.15c0.05,0.28,0.3,0.49,0.58,0.49h10.76C153.77,144.28,154.05,143.95,153.98,143.58z"></path><path fill="#16CACD" d="M167.16,143.58l-2.01-11.15c-0.05-0.28-0.3-0.49-0.58-0.49H153.8c-0.37,0-0.65,0.33-0.58,0.7
								l2.01,11.15c0.05,0.28,0.3,0.49,0.58,0.49h10.76C166.94,144.28,167.22,143.95,167.16,143.58z"></path><path fill="#0BB8C2" d="M140.81,143.58l-2.01-11.15c-0.05-0.28-0.3-0.49-0.58-0.49h-10.76c-0.37,0-0.65,0.33-0.58,0.7
								l2.01,11.15c0.05,0.28,0.3,0.49,0.58,0.49h10.76C140.59,144.28,140.87,143.95,140.81,143.58z"></path><path fill="#1CD3D3" d="M129.3,146.17l2.01,11.15c0.05,0.28,0.3,0.49,0.58,0.49h10.76c0.37,0,0.65-0.33,0.58-0.7l-2.01-11.15
								c-0.05-0.28-0.3-0.49-0.58-0.49h-10.76C129.51,145.47,129.23,145.8,129.3,146.17z"></path><path fill="#06AFBD" d="M127.63,143.58l-2.01-11.15c-0.05-0.28-0.3-0.49-0.58-0.49h-10.76c-0.37,0-0.65,0.33-0.58,0.7
								l2.01,11.15c0.05,0.28,0.3,0.49,0.58,0.49h10.76C127.41,144.28,127.69,143.95,127.63,143.58z"></path><path fill="#0BB8C2" d="M160.52,173.22l2.01,11.15c0.05,0.28,0.3,0.49,0.58,0.49h10.76c0.37,0,0.65-0.33,0.58-0.7
								l-2.01-11.15c-0.05-0.28-0.3-0.49-0.58-0.49h-10.76C160.73,172.52,160.46,172.86,160.52,173.22z"></path><path fill="#11C1C8" d="M147.34,173.22l2.01,11.15c0.05,0.28,0.3,0.49,0.58,0.49h10.76c0.37,0,0.65-0.33,0.58-0.7
								l-2.01-11.15c-0.05-0.28-0.3-0.49-0.58-0.49h-10.76C147.56,172.52,147.28,172.86,147.34,173.22z"></path><path fill="#16CACD" d="M134.17,173.22l2.01,11.15c0.05,0.28,0.3,0.49,0.58,0.49h10.76c0.37,0,0.65-0.33,0.58-0.7
								l-2.01-11.15c-0.05-0.28-0.3-0.49-0.58-0.49h-10.76C134.38,172.52,134.1,172.86,134.17,173.22z"></path><path fill="#06AFBD" d="M173.7,173.22l2.01,11.15c0.05,0.28,0.3,0.49,0.58,0.49h10.76c0.37,0,0.65-0.33,0.58-0.7l-2.01-11.15
								c-0.05-0.28-0.3-0.49-0.58-0.49h-10.76C173.91,172.52,173.63,172.86,173.7,173.22z"></path><path fill="#1CD3D3" d="M182.77 157.11l-2.01-11.15c-.05-.28-.3-.49-.58-.49h-10.76c-.37 0-.65.33-.58.7l2.01 11.15c.05.28.3.49.58.49h10.76C182.55 157.81 182.83 157.47 182.77 157.11zM184.6 157.81h10.75c.37 0 .65-.33.58-.7l-1.99-11.15c-.05-.28-.3-.49-.58-.49h-10.76c-.37 0-.65.33-.58.7l2.01 11.15C184.06 157.6 184.31 157.81 184.6 157.81z"></path><path fill="#00A6B7" d="M111.86,131.94h-10.75c-0.37,0-0.65,0.33-0.58,0.7l2,11.15c0.05,0.28,0.3,0.49,0.58,0.49h10.76
								c0.37,0,0.65-0.33,0.58-0.7l-2.01-11.15C112.39,132.15,112.15,131.94,111.86,131.94z"></path><path fill="#1CD3D3" d="M120.99 173.22l2.01 11.15c.05.28.3.49.58.49h10.76c.37 0 .65-.33.58-.7l-2.01-11.15c-.05-.28-.3-.49-.58-.49h-10.76C121.2 172.52 120.92 172.86 120.99 173.22zM180.34 143.58l-2.01-11.15c-.05-.28-.3-.49-.58-.49h-10.76c-.37 0-.65.33-.58.7l2.01 11.15c.05.28.3.49.58.49h10.76C180.12 144.28 180.4 143.95 180.34 143.58zM107.81 173.22l2.01 11.15c.05.28.3.49.58.49h10.76c.37 0 .65-.33.58-.7l-2.01-11.15c-.05-.28-.3-.49-.58-.49H108.4C108.03 172.52 107.75 172.86 107.81 173.22z"></path><path fill="#00A6B7" d="M198.19,172.52h-10.73c-0.37,0-0.65,0.33-0.58,0.7l2.01,11.15c0.05,0.28,0.3,0.49,0.58,0.49h10.72
								c0.37,0,0.65-0.33,0.58-0.7l-1.99-11.15C198.73,172.73,198.48,172.52,198.19,172.52z"></path><path fill="#1CD3D3" d="M158.85 170.64l-2.01-11.15c-.05-.28-.3-.49-.58-.49h-10.76c-.37 0-.65.33-.58.7l2.01 11.15c.05.28.3.49.58.49h10.76C158.63 171.34 158.91 171 158.85 170.64zM116.73 159h-10.76c-.37 0-.65.33-.58.7l2.01 11.15c.05.28.3.49.58.49h10.76c.37 0 .65-.33.58-.7l-2.01-11.15C117.26 159.2 117.02 159 116.73 159zM145.67 170.64l-2.01-11.15c-.05-.28-.3-.49-.58-.49h-10.76c-.37 0-.65.33-.58.7l2.01 11.15c.05.28.3.49.58.49h10.76C145.46 171.34 145.74 171 145.67 170.64zM132.5 170.64l-2.01-11.15c-.05-.28-.3-.49-.58-.49h-10.76c-.37 0-.65.33-.58.7l2.01 11.15c.05.28.3.49.58.49h10.76C132.28 171.34 132.56 171 132.5 170.64zM172.03 170.64l-2.01-11.15c-.05-.28-.3-.49-.58-.49h-10.76c-.37 0-.65.33-.58.7l2.01 11.15c.05.28.3.49.58.49h10.76C171.81 171.34 172.09 171 172.03 170.64zM185.2 170.64l-2.01-11.15c-.05-.28-.3-.49-.58-.49h-10.76c-.37 0-.65.33-.58.7l2.01 11.15c.05.28.3.49.58.49h10.76C184.99 171.34 185.27 171 185.2 170.64zM193.51 143.58l-2.01-11.15c-.05-.28-.3-.49-.58-.49h-10.76c-.37 0-.65.33-.58.7l2.01 11.15c.05.28.3.49.58.49h10.76C193.3 144.28 193.58 143.95 193.51 143.58zM187.03 171.34h10.74c.37 0 .65-.33.58-.7l-1.99-11.15c-.05-.28-.3-.49-.58-.49h-10.75c-.37 0-.65.33-.58.7l2.01 11.15C186.5 171.13 186.74 171.34 187.03 171.34zM129.08 126.25h30.22c2.45 0 4.3-2.21 3.87-4.62v0c-.34-1.87-1.97-3.24-3.87-3.24h-30.22c-2.45 0-4.3 2.21-3.87 4.62v0C125.55 124.89 127.18 126.25 129.08 126.25z"></path><polygon fill="#1CD3D3" points="77.25 190.55 105.1 190.55 91.18 112.71"></polygon><path fill="#F5F5F5" d="M216.63,198.86c0-2.95,1.7-5.54,4.23-7.01h-71.58c-4.26,0-7.73,3.15-7.73,7.01
					c0,3.87,3.47,7.02,7.73,7.02h71.58C218.32,204.4,216.63,201.8,216.63,198.86z"></path><path fill="#CECECE" d="M217.32,202.03c-6.43-0.05-68.51-0.04-74.93,0c0.05,0.09,0.1,0.18,0.15,0.27
					c6.44,0,68.54,0.04,74.98,0.13C217.44,202.3,217.38,202.16,217.32,202.03z M218.52,203.92c-0.11-0.13-0.22-0.27-0.32-0.41
					c-0.04,0-0.08,0-0.13,0c-6.28,0.05-68.22,0.07-74.5,0.07c0.09,0.09,0.19,0.19,0.29,0.28c6.18,0.04,68.03,0.07,74.21,0.06
					C218.22,203.91,218.37,203.92,218.52,203.92z M219.22,204.66c-6.03,0.01-67.72,0.12-73.75,0.3c0.18,0.09,0.37,0.18,0.57,0.26
					c5.86-0.13,67.38-0.19,73.25-0.16c0.14,0,0.28,0,0.41,0.01C219.53,204.93,219.37,204.8,219.22,204.66z M216.73,200.12
					c-6.47-0.08-68.6-0.08-75.07-0.05c0.02,0.09,0.03,0.18,0.05,0.27c6.48,0.02,68.62,0.06,75.1,0.19
					C216.78,200.39,216.76,200.25,216.73,200.12z M218.26,194.12c-6.25,0.03-68.16-0.06-74.41-0.26c-0.1,0.08-0.18,0.17-0.27,0.26
					c6.24,0.26,68.14,0.38,74.39,0.4C218.06,194.39,218.16,194.25,218.26,194.12z M217.5,195.31c-6.41,0-68.46,0.03-74.87-0.04
					c-0.06,0.09-0.12,0.18-0.18,0.27c6.39,0.12,68.45,0.13,74.84,0.17C217.36,195.58,217.43,195.44,217.5,195.31z M219.19,193.09
					c0.15-0.14,0.31-0.28,0.47-0.41c-0.18,0-0.35,0-0.53,0.01l-73.55,0.02c-0.17,0.08-0.33,0.18-0.49,0.27l74.05,0.12
					C219.14,193.09,219.17,193.09,219.19,193.09z M216.88,196.93c-6.43,0.04-68.51-0.06-74.94-0.28c-0.03,0.09-0.06,0.18-0.09,0.26
					c6.42,0.26,68.51,0.41,74.94,0.42C216.81,197.2,216.84,197.06,216.88,196.93z M216.63,198.86c0-0.1,0.01-0.2,0.01-0.3
					c-6.47-0.02-68.61,0.01-75.08,0.05c0,0.08-0.01,0.17-0.01,0.25c0,0.01,0,0.01,0,0.02c6.48,0,68.61,0.01,75.09,0.08
					C216.63,198.92,216.63,198.89,216.63,198.86z"></path><path fill="#108E8B" d="M222.2,191.2c0-0.36-0.29-0.64-0.64-0.64H64.9c-4.96,0-9.02,3.74-9.02,8.3c0,4.57,4.06,8.3,9.02,8.3
					h156.66c0.36,0,0.64-0.29,0.64-0.64l0,0c0-0.36-0.29-0.64-0.64-0.64h-64.14v0h-8.16c-4.26,0-7.73-3.15-7.73-7.02
					c0-3.87,3.47-7.01,7.73-7.01h72.29C221.92,191.84,222.2,191.55,222.2,191.2L222.2,191.2z"></path><path fill="#006971" d="M222.2,191.2c0-0.36-0.29-0.64-0.64-0.64H64.9c-4.96,0-9.02,3.74-9.02,8.3c0,4.57,4.06,8.3,9.02,8.3
					h156.66c0.36,0,0.64-0.29,0.64-0.64l0,0c0-0.36-0.29-0.64-0.64-0.64h-64.14v0h-8.16c-4.26,0-7.73-3.15-7.73-7.02
					c0-3.87,3.47-7.01,7.73-7.01h72.29C221.92,191.84,222.2,191.55,222.2,191.2L222.2,191.2z"></path><path fill="#002323" d="M157.42 205.87L157.42 205.87l-8.16 0c-4.26 0-7.73-3.15-7.73-7.02 0-3.87 3.47-7.01 7.73-7.01h72.29c.36 0 .64-.29.64-.64v0c0-.36-.29-.64-.64-.64h-72.29c-4.97 0-9.02 3.72-9.02 8.3 0 4.58 4.05 8.3 9.02 8.3h72.29c.36 0 .64-.29.64-.64l0 0c0-.36-.29-.64-.64-.64H157.42zM138.14 198.86c0-2.02.63-3.91 1.7-5.51h-76.6c-.58 0-1.15.14-1.64.45-1.77 1.12-2.94 2.97-2.94 5.06 0 2.09 1.16 3.94 2.94 5.06.49.31 1.06.45 1.64.45h76.6C138.77 202.77 138.14 200.88 138.14 198.86z" opacity=".25"></path></g><g><rect width="75.41" height="43" x="154.98" y="69.85" fill="#D8D8D8"></rect><path fill="#D8D8D8" d="M162.21,62.61L162.21,62.61l75.41,0v0c-3.99,0-7.23,3.24-7.23,7.23h-75.41
				C154.98,65.85,158.22,62.61,162.21,62.61z"></path><path fill="#F5F5F5" d="M245.24,123.79V69.85h-75.41v53.94c0,1.73,0.15,3.45,0.46,5.15l6.28,35.08
					c0.13,0.73,0.77,1.26,1.51,1.26h72.3c0.95,0,1.68-0.85,1.51-1.79c-1.31-7.32-6.18-34.55-6.18-34.55
					C245.39,127.24,245.24,125.51,245.24,123.79z"></path><path fill="#06AFBD" d="M181.03,148.59l1.52,8.52c0.09,0.52,0.59,0.94,1.11,0.94h8.52c0.52,0,0.87-0.42,0.77-0.94l-1.52-8.52
						c-0.09-0.52-0.59-0.94-1.11-0.94h-8.52C181.28,147.65,180.93,148.07,181.03,148.59z M190.97,156.19h-6.77l-1.2-6.68h6.77
						L190.97,156.19z"></path><path fill="#000828" d="M185.04,151.19L185.04,151.19c-0.3,0.36-0.19,0.95,0.24,1.32l3.23,2.74c0.43,0.36,1.02,0.36,1.32,0
							l0,0c0.3-0.36,0.19-0.95-0.24-1.32l-3.23-2.74C185.92,150.83,185.33,150.83,185.04,151.19z"></path><path fill="#000828" d="M194.53,147.91L194.53,147.91c0.43,0.36,0.53,0.95,0.24,1.32l-4.94,6.02c-0.3,0.36-0.89,0.36-1.32,0
							l0,0c-0.43-0.36-0.53-0.95-0.24-1.32l4.94-6.02C193.51,147.55,194.1,147.55,194.53,147.91z"></path><path fill="#06AFBD" d="M208.8,151.92h-9.07c-0.26,0-0.43,0.21-0.38,0.47l0.17,0.93
					c0.05,0.26,0.29,0.47,0.55,0.47h9.07c0.26,0,0.43-0.21,0.38-0.47l-0.17-0.93C209.31,152.13,209.06,151.92,208.8,151.92z
					 M213.41,147.65h-14.45c-0.26,0-0.43,0.21-0.38,0.47l0.17,0.93c0.05,0.26,0.29,0.47,0.55,0.47h14.45c0.26,0,0.43-0.21,0.38-0.47
					l-0.17-0.93C213.91,147.86,213.67,147.65,213.41,147.65z M228.06,147.65H216.2c-0.26,0-0.43,0.21-0.38,0.47l0.17,0.93
					c0.05,0.26,0.29,0.47,0.55,0.47h11.86c0.26,0,0.43-0.21,0.38-0.47l-0.17-0.93C228.57,147.86,228.32,147.65,228.06,147.65z
					 M200.82,158.05h24.04c0.26,0,0.43-0.21,0.38-0.47l-0.17-0.93c-0.05-0.26-0.29-0.47-0.55-0.47h-24.04
					c-0.26,0-0.43,0.21-0.38,0.47l0.17,0.93C200.32,157.84,200.57,158.05,200.82,158.05z M227.66,158.05h9.51
					c0.26,0,0.43-0.21,0.38-0.47l-0.17-0.93c-0.05-0.26-0.29-0.47-0.55-0.47h-9.51c-0.26,0-0.43,0.21-0.38,0.47l0.17,0.93
					C227.15,157.84,227.4,158.05,227.66,158.05z M230.48,148.11l0.17,0.93c0.05,0.26,0.29,0.47,0.55,0.47h10.48
					c0.26,0,0.43-0.21,0.38-0.47l-0.17-0.93c-0.05-0.26-0.29-0.47-0.55-0.47h-10.48C230.6,147.65,230.43,147.86,230.48,148.11z
					 M211.93,153.78h30.51c0.26,0,0.43-0.21,0.38-0.47l-0.17-0.93c-0.05-0.26-0.29-0.47-0.55-0.47H211.6
					c-0.26,0-0.43,0.21-0.38,0.47l0.17,0.93C211.43,153.57,211.67,153.78,211.93,153.78z M239.97,158.05h3.23
					c0.26,0,0.43-0.21,0.38-0.47l-0.17-0.93c-0.05-0.26-0.29-0.47-0.55-0.47h-3.23c-0.26,0-0.43,0.21-0.38,0.47l0.17,0.93
					C239.47,157.84,239.71,158.05,239.97,158.05z" opacity=".25"></path><path fill="#06AFBD" d="M177.87,130.95l1.52,8.52c0.09,0.52,0.59,0.94,1.11,0.94h8.52c0.52,0,0.87-0.42,0.77-0.94l-1.52-8.52
						c-0.09-0.52-0.59-0.94-1.11-0.94h-8.52C178.12,130,177.78,130.43,177.87,130.95z M187.82,138.55h-6.77l-1.2-6.68h6.77
						L187.82,138.55z"></path><path fill="#000828" d="M181.88,133.55L181.88,133.55c-0.3,0.36-0.19,0.95,0.24,1.32l3.23,2.74c0.43,0.36,1.02,0.36,1.32,0
							l0,0c0.3-0.36,0.19-0.95-0.24-1.32l-3.23-2.74C182.77,133.18,182.18,133.18,181.88,133.55z"></path><path fill="#000828" d="M191.37,130.27L191.37,130.27c0.43,0.36,0.53,0.95,0.24,1.32l-4.94,6.02c-0.3,0.36-0.89,0.36-1.32,0
							l0,0c-0.43-0.36-0.53-0.95-0.24-1.32l4.94-6.02C190.35,129.91,190.94,129.91,191.37,130.27z"></path><path fill="#06AFBD" d="M205.64,134.28h-9.07c-0.26,0-0.43,0.21-0.38,0.47l0.17,0.93
					c0.05,0.26,0.29,0.47,0.55,0.47h9.07c0.26,0,0.43-0.21,0.38-0.47l-0.17-0.93C206.15,134.49,205.9,134.28,205.64,134.28z
					 M210.25,130h-14.45c-0.26,0-0.43,0.21-0.38,0.47l0.17,0.93c0.05,0.26,0.29,0.47,0.55,0.47h14.45c0.26,0,0.43-0.21,0.38-0.47
					l-0.17-0.93C210.76,130.21,210.51,130,210.25,130z M224.91,130h-11.86c-0.26,0-0.43,0.21-0.38,0.47l0.17,0.93
					c0.05,0.26,0.29,0.47,0.55,0.47h11.86c0.26,0,0.43-0.21,0.38-0.47l-0.17-0.93C225.41,130.21,225.17,130,224.91,130z
					 M197.67,140.41h24.04c0.26,0,0.43-0.21,0.38-0.47l-0.17-0.93c-0.05-0.26-0.29-0.47-0.55-0.47h-24.04
					c-0.26,0-0.43,0.21-0.38,0.47l0.17,0.93C197.16,140.2,197.41,140.41,197.67,140.41z M224.5,140.41h9.51
					c0.26,0,0.43-0.21,0.38-0.47l-0.17-0.93c-0.05-0.26-0.29-0.47-0.55-0.47h-9.51c-0.26,0-0.43,0.21-0.38,0.47l0.17,0.93
					C224,140.2,224.24,140.41,224.5,140.41z M227.32,130.47l0.17,0.93c0.05,0.26,0.29,0.47,0.55,0.47h10.48
					c0.26,0,0.43-0.21,0.38-0.47l-0.17-0.93c-0.05-0.26-0.29-0.47-0.55-0.47h-10.48C227.45,130,227.28,130.21,227.32,130.47z
					 M208.77,136.14h30.51c0.26,0,0.43-0.21,0.38-0.47l-0.17-0.93c-0.05-0.26-0.29-0.47-0.55-0.47h-30.51
					c-0.26,0-0.43,0.21-0.38,0.47l0.17,0.93C208.27,135.93,208.52,136.14,208.77,136.14z M236.82,140.41h3.23
					c0.26,0,0.43-0.21,0.38-0.47l-0.17-0.93c-0.05-0.26-0.29-0.47-0.55-0.47h-3.23c-0.26,0-0.43,0.21-0.38,0.47l0.17,0.93
					C236.31,140.2,236.56,140.41,236.82,140.41z" opacity=".25"></path><path fill="#06AFBD" d="M177.05,113.3v8.52c0,0.52,0.42,0.94,0.94,0.94h8.52c0.52,0,0.94-0.42,0.94-0.94v-8.52
						c0-0.52-0.42-0.94-0.94-0.94h-8.52C177.47,112.36,177.05,112.78,177.05,113.3z M185.64,120.91h-6.77v-6.68h6.77V120.91z"></path><path fill="#000828" d="M180.6,115.91L180.6,115.91c-0.36,0.36-0.36,0.95,0,1.32l2.74,2.74c0.36,0.36,0.95,0.36,1.32,0l0,0
							c0.36-0.36,0.36-0.95,0-1.32l-2.74-2.74C181.55,115.54,180.96,115.54,180.6,115.91z"></path><path fill="#000828" d="M190.67,112.63L190.67,112.63c0.36,0.36,0.36,0.95,0,1.32l-6.02,6.02c-0.36,0.36-0.95,0.36-1.32,0l0,0
							c-0.36-0.36-0.36-0.95,0-1.32l6.02-6.02C189.72,112.26,190.31,112.26,190.67,112.63z"></path><path fill="#06AFBD" d="M204.23,116.63h-9.07c-0.26,0-0.47,0.21-0.47,0.47v0.93c0,0.26,0.21,0.47,0.47,0.47h9.07
					c0.26,0,0.47-0.21,0.47-0.47v-0.93C204.7,116.84,204.49,116.63,204.23,116.63z M209.6,112.36h-14.45
					c-0.26,0-0.47,0.21-0.47,0.47v0.93c0,0.26,0.21,0.47,0.47,0.47h14.45c0.26,0,0.47-0.21,0.47-0.47v-0.93
					C210.07,112.57,209.86,112.36,209.6,112.36z M224.26,112.36H212.4c-0.26,0-0.47,0.21-0.47,0.47v0.93c0,0.26,0.21,0.47,0.47,0.47
					h11.86c0.26,0,0.47-0.21,0.47-0.47v-0.93C224.73,112.57,224.52,112.36,224.26,112.36z M195.16,122.77h24.04
					c0.26,0,0.47-0.21,0.47-0.47v-0.93c0-0.26-0.21-0.47-0.47-0.47h-24.04c-0.26,0-0.47,0.21-0.47,0.47v0.93
					C194.69,122.56,194.9,122.77,195.16,122.77z M221.99,122.77h9.51c0.26,0,0.47-0.21,0.47-0.47v-0.93c0-0.26-0.21-0.47-0.47-0.47
					h-9.51c-0.26,0-0.47,0.21-0.47,0.47v0.93C221.53,122.56,221.74,122.77,221.99,122.77z M226.59,112.83v0.93
					c0,0.26,0.21,0.47,0.47,0.47h10.48c0.26,0,0.47-0.21,0.47-0.47v-0.93c0-0.26-0.21-0.47-0.47-0.47h-10.48
					C226.8,112.36,226.59,112.57,226.59,112.83z M207.03,118.5h30.51c0.26,0,0.47-0.21,0.47-0.47v-0.93c0-0.26-0.21-0.47-0.47-0.47
					h-30.51c-0.26,0-0.47,0.21-0.47,0.47v0.93C206.56,118.29,206.77,118.5,207.03,118.5z M234.31,122.77h3.23
					c0.26,0,0.47-0.21,0.47-0.47v-0.93c0-0.26-0.21-0.47-0.47-0.47h-3.23c-0.26,0-0.47,0.21-0.47,0.47v0.93
					C233.84,122.56,234.05,122.77,234.31,122.77z" opacity=".25"></path><path fill="#06AFBD" d="M177.05,95.66v8.52c0,0.52,0.42,0.94,0.94,0.94h8.52c0.52,0,0.94-0.42,0.94-0.94v-8.52
						c0-0.52-0.42-0.94-0.94-0.94h-8.52C177.47,94.72,177.05,95.14,177.05,95.66z M185.64,103.26h-6.77v-6.68h6.77V103.26z"></path><path fill="#000828" d="M180.6,98.26L180.6,98.26c-0.36,0.36-0.36,0.95,0,1.32l2.74,2.74c0.36,0.36,0.95,0.36,1.32,0l0,0
							c0.36-0.36,0.36-0.95,0-1.32l-2.74-2.74C181.55,97.9,180.96,97.9,180.6,98.26z"></path><path fill="#000828" d="M190.67,94.99L190.67,94.99c0.36,0.36,0.36,0.95,0,1.32l-6.02,6.02c-0.36,0.36-0.95,0.36-1.32,0l0,0
							c-0.36-0.36-0.36-0.95,0-1.32l6.02-6.02C189.72,94.62,190.31,94.62,190.67,94.99z"></path><path fill="#06AFBD" d="M204.23,98.99h-9.07c-0.26,0-0.47,0.21-0.47,0.47v0.93c0,0.26,0.21,0.47,0.47,0.47h9.07
					c0.26,0,0.47-0.21,0.47-0.47v-0.93C204.7,99.2,204.49,98.99,204.23,98.99z M209.6,94.72h-14.45c-0.26,0-0.47,0.21-0.47,0.47
					v0.93c0,0.26,0.21,0.47,0.47,0.47h14.45c0.26,0,0.47-0.21,0.47-0.47v-0.93C210.07,94.93,209.86,94.72,209.6,94.72z
					 M224.26,94.72H212.4c-0.26,0-0.47,0.21-0.47,0.47v0.93c0,0.26,0.21,0.47,0.47,0.47h11.86c0.26,0,0.47-0.21,0.47-0.47v-0.93
					C224.73,94.93,224.52,94.72,224.26,94.72z M195.16,105.13h24.04c0.26,0,0.47-0.21,0.47-0.47v-0.93c0-0.26-0.21-0.47-0.47-0.47
					h-24.04c-0.26,0-0.47,0.21-0.47,0.47v0.93C194.69,104.92,194.9,105.13,195.16,105.13z M221.99,105.13h9.51
					c0.26,0,0.47-0.21,0.47-0.47v-0.93c0-0.26-0.21-0.47-0.47-0.47h-9.51c-0.26,0-0.47,0.21-0.47,0.47v0.93
					C221.53,104.92,221.74,105.13,221.99,105.13z M226.59,95.19v0.93c0,0.26,0.21,0.47,0.47,0.47h10.48c0.26,0,0.47-0.21,0.47-0.47
					v-0.93c0-0.26-0.21-0.47-0.47-0.47h-10.48C226.8,94.72,226.59,94.93,226.59,95.19z M207.03,100.85h30.51
					c0.26,0,0.47-0.21,0.47-0.47v-0.93c0-0.26-0.21-0.47-0.47-0.47h-30.51c-0.26,0-0.47,0.21-0.47,0.47v0.93
					C206.56,100.64,206.77,100.85,207.03,100.85z M234.31,105.13h3.23c0.26,0,0.47-0.21,0.47-0.47v-0.93c0-0.26-0.21-0.47-0.47-0.47
					h-3.23c-0.26,0-0.47,0.21-0.47,0.47v0.93C233.84,104.92,234.05,105.13,234.31,105.13z" opacity=".25"></path><path fill="#06AFBD" d="M177.05,78.02v8.52c0,0.52,0.42,0.94,0.94,0.94h8.52c0.52,0,0.94-0.42,0.94-0.94v-8.52
						c0-0.52-0.42-0.94-0.94-0.94h-8.52C177.47,77.08,177.05,77.5,177.05,78.02z M185.64,85.62h-6.77v-6.68h6.77V85.62z"></path><path fill="#000828" d="M180.6,80.62L180.6,80.62c-0.36,0.36-0.36,0.95,0,1.32l2.74,2.74c0.36,0.36,0.95,0.36,1.32,0l0,0
							c0.36-0.36,0.36-0.95,0-1.32l-2.74-2.74C181.55,80.26,180.96,80.26,180.6,80.62z"></path><path fill="#000828" d="M190.67,77.34L190.67,77.34c0.36,0.36,0.36,0.95,0,1.32l-6.02,6.02c-0.36,0.36-0.95,0.36-1.32,0l0,0
							c-0.36-0.36-0.36-0.95,0-1.32l6.02-6.02C189.72,76.98,190.31,76.98,190.67,77.34z"></path><path fill="#06AFBD" d="M204.23,81.35h-9.07c-0.26,0-0.47,0.21-0.47,0.47v0.93c0,0.26,0.21,0.47,0.47,0.47h9.07
					c0.26,0,0.47-0.21,0.47-0.47v-0.93C204.7,81.56,204.49,81.35,204.23,81.35z M209.6,77.08h-14.45c-0.26,0-0.47,0.21-0.47,0.47
					v0.93c0,0.26,0.21,0.47,0.47,0.47h14.45c0.26,0,0.47-0.21,0.47-0.47v-0.93C210.07,77.29,209.86,77.08,209.6,77.08z
					 M224.26,77.08H212.4c-0.26,0-0.47,0.21-0.47,0.47v0.93c0,0.26,0.21,0.47,0.47,0.47h11.86c0.26,0,0.47-0.21,0.47-0.47v-0.93
					C224.73,77.29,224.52,77.08,224.26,77.08z M195.16,87.48h24.04c0.26,0,0.47-0.21,0.47-0.47v-0.93c0-0.26-0.21-0.47-0.47-0.47
					h-24.04c-0.26,0-0.47,0.21-0.47,0.47v0.93C194.69,87.27,194.9,87.48,195.16,87.48z M221.99,87.48h9.51
					c0.26,0,0.47-0.21,0.47-0.47v-0.93c0-0.26-0.21-0.47-0.47-0.47h-9.51c-0.26,0-0.47,0.21-0.47,0.47v0.93
					C221.53,87.27,221.74,87.48,221.99,87.48z M226.59,77.54v0.93c0,0.26,0.21,0.47,0.47,0.47h10.48c0.26,0,0.47-0.21,0.47-0.47
					v-0.93c0-0.26-0.21-0.47-0.47-0.47h-10.48C226.8,77.08,226.59,77.29,226.59,77.54z M207.03,83.21h30.51
					c0.26,0,0.47-0.21,0.47-0.47v-0.93c0-0.26-0.21-0.47-0.47-0.47h-30.51c-0.26,0-0.47,0.21-0.47,0.47v0.93
					C206.56,83,206.77,83.21,207.03,83.21z M234.31,87.48h3.23c0.26,0,0.47-0.21,0.47-0.47v-0.93c0-0.26-0.21-0.47-0.47-0.47h-3.23
					c-0.26,0-0.47,0.21-0.47,0.47v0.93C233.84,87.27,234.05,87.48,234.31,87.48z" opacity=".25"></path><path fill="#F5F5F5" d="M238.01,62.61L238.01,62.61l-75.41,0v0c3.99,0,7.23,3.24,7.23,7.23h75.41
				C245.24,65.85,242,62.61,238.01,62.61z"></path></g><g><linearGradient id="n" x1="95.243" x2="109.485" y1="96.069" y2="90.946" gradientUnits="userSpaceOnUse"><stop offset="0" stop-color="#ffd1ae"></stop><stop offset="1" stop-color="#f9ac78"></stop></linearGradient><path fill="url(#n)" d="M104.94,94.21c1.78-1.16,1.88-2.4,0.75-3.62c-0.71-0.77-3.16,0.26-4.76,1.04
				c-3.05,1.49-10.74,5.65-16.03,8.44c-0.6,0.32-0.92,0.94-0.66,1.42v0c0.24,0.45,0.73,0.68,1.32,0.48
				C92.75,99.5,100.64,97,104.94,94.21z"></path><linearGradient id="o" x1="98.65" x2="119.594" y1="94.951" y2="85.904" gradientUnits="userSpaceOnUse"><stop offset="0" stop-color="#fcb888"></stop><stop offset="1" stop-color="#fba970"></stop></linearGradient><path fill="url(#o)" d="M105.69,90.59c-0.71-0.77-3.16,0.26-4.76,1.04c-3.05,1.49-10.74,5.65-16.03,8.44
				c-0.6,0.32-0.92,0.94-0.66,1.42c0.24,0.45,0.73,0.68,1.32,0.48c7.21-2.47,15.09-4.96,19.39-7.76
				C106.72,93.05,106.81,91.81,105.69,90.59z M100.5,95.6c-0.43,0.16-0.43-0.27-0.68-1.38c-0.15-0.65-0.47-1.3,0.32-1.57
				c0.54-0.18,0.46,0.55,0.62,1.62C100.88,95.09,101.05,95.4,100.5,95.6z"></path><linearGradient id="p" x1="6715.881" x2="6722.886" y1="13.389" y2="3.492" gradientTransform="scale(-1 1) rotate(-49.445 3410.315 7461.13)" gradientUnits="userSpaceOnUse"><stop offset="0" stop-color="#ffb680"></stop><stop offset="1" stop-color="#fc9e5e"></stop></linearGradient><path fill="url(#p)" d="M106.2,86.1c0,0,0.35,4.93,0.18,6.41c-0.12,1.06-1.94,1.96-3.26,0.85
				c-0.7-0.59-1.62-3.44-2.01-6.28C100.81,84.91,105.94,85.76,106.2,86.1z"></path><linearGradient id="q" x1="1692.017" x2="1688.333" y1="455.428" y2="464.834" gradientTransform="rotate(-33.436 267.922 2913.007)" gradientUnits="userSpaceOnUse"><stop offset="0" stop-color="#101719"></stop><stop offset="1" stop-color="#243137"></stop></linearGradient><path fill="url(#q)" d="M98.97,77.82c-0.5,4.43-0.11,7.52,0.21,10.76c2.02,1.5,7.36,0.91,9.55-0.92
				c-0.35-2.68-0.72-7.28-1.36-10.64C106.83,74.13,99.63,72,98.97,77.82z"></path><linearGradient id="r" x1="94.953" x2="87.772" y1="111.999" y2="137.851" gradientUnits="userSpaceOnUse"><stop offset="0" stop-color="#101719"></stop><stop offset="1" stop-color="#243137"></stop></linearGradient><path fill="url(#r)" d="M102.17,100.01c1.94-0.21,6.43-1.21,7.46,2.36c1.39,4.81-0.97,9.34-9.24,9.93
				c-14.08,0.99-16.63,0.26-17.12-5.44C82.77,101.15,95.99,100.68,102.17,100.01z"></path><path fill="none" stroke="#00425A" stroke-miterlimit="10" stroke-width=".115" d="M97.01,140.8"></path><path fill="#EF7E67" d="M88.96,145.91c0.49-0.42,1.33-0.82,2.32-1.53c0.05,0.07,0.3,0.28,1-0.02c0.82-0.35,2.11-1.44,2.88-2.55
					c0.78-1.11,1.23-1.35,1.85-1.01c0,0,0.11-0.23,0.12-0.5c0.37,0.16,1.03,0.34,1.77,0.07c0.75-0.28,1.03-0.9,1.29-1.23
					c0.16-0.2,0.31-0.29,0.55-0.13c0.44,0.3,0.84,0.78,1.2,1.79c0.23,0.63,0.43,1.31,0.6,1.88c-0.2,0.06-3.15,1.02-5.59,2.04
					c-2.51,1.05-6.87,2.38-8.44,2.25C88.47,146.6,88.56,146.24,88.96,145.91z"></path><path fill="#E54600" d="M88.51 146.97c1.57.14 5.93-1.19 8.44-2.25 2.44-1.02 5.39-1.98 5.59-2.04.14.48.24.88.31 1.13.15.54.13.99-1.07 1.32-1.2.33-6.99 1.93-9.5 2.63-2.51.7-3.18.99-3.45.27C88.71 147.67 88.56 147.32 88.51 146.97zM97.13 140.38c-.03.23-.12.42-.12.42 0 0 .95.64 2.07.23.83-.31 1-1.37 1.24-1.84.01-.03-.02-.06-.05-.03-.06.07-.12.16-.19.26-.23.34-.55.8-1.16 1.03-.06.02-.13.04-.19.06l0 0C98.06 140.68 97.48 140.53 97.13 140.38z"></path><path fill="#BC5000" d="M95.8,141.02c0.02-0.02,0.04-0.04,0.06-0.06c0,0,0,0,0,0c0,0,0,0,0,0
					C95.84,140.98,95.82,141,95.8,141.02C95.8,141.02,95.8,141.02,95.8,141.02z"></path><path fill="#E54600" d="M93.04,144.89c-0.17,0.42-0.63,0.74-1.35,0.94c-0.03,0.01-0.05,0.01-0.08,0.02
					c-1.86,0.51-2.82,0.53-3.03,0.52c0.07-0.16,0.19-0.32,0.37-0.47c0.49-0.42,1.33-0.82,2.32-1.53c0.05,0.07,0.3,0.28,1-0.02
					c0.21-0.09,0.46-0.23,0.72-0.41c0,0,0,0,0,0c0,0,0,0,0,0C93.06,144.08,93.2,144.48,93.04,144.89z"></path><path fill="#BC5000" d="M102.24 141.69L102.24 141.69c-.01-.04-.02-.07-.03-.11C102.22 141.62 102.23 141.65 102.24 141.69zM95.73 141.09C95.73 141.09 95.73 141.09 95.73 141.09c-.02.02-.04.04-.06.07 0 0 0 0 0 0C95.69 141.13 95.71 141.11 95.73 141.09z"></path><linearGradient id="s" x1="-439.684" x2="-450.289" y1="136.67" y2="147.612" gradientTransform="matrix(-1 0 0 1 -342.656 0)" gradientUnits="userSpaceOnUse"><stop offset="0" stop-color="#ffd1ae"></stop><stop offset="1" stop-color="#f9ac78"></stop></linearGradient><path fill="url(#s)" d="M99.08,141.02c-1.12,0.42-2.07-0.23-2.07-0.23c-0.16-0.08-0.26-0.16-0.35-0.23l-0.25-5.16
					c0,0,4.06-0.09,4.03,0.6c-0.03,0.5-0.1,2.27-0.13,3.22C100.08,139.71,99.9,140.72,99.08,141.02z"></path><path fill="#243137" d="M95.16,141.8c-0.78,1.11-2.06,2.2-2.88,2.55c-0.7,0.3-0.95,0.08-1,0.02c0.55-0.4,1.14-0.9,1.75-1.56
						c1.69-1.84,2.44-3.12,3.11-3.3c0.67-0.19,1.03,0.35,1,0.79c-0.02,0.27-0.12,0.5-0.12,0.5C96.39,140.45,95.94,140.7,95.16,141.8
						z"></path><path fill="#7C8689" d="M94.16,141.5l0.91,0.44c0.03-0.04,0.06-0.09,0.09-0.13c0.05-0.06,0.09-0.13,0.13-0.19l-0.92-0.45
							c-0.04-0.02-0.08-0.01-0.1,0.02c-0.05,0.05-0.09,0.11-0.14,0.17C94.09,141.41,94.11,141.47,94.16,141.5z M93.67,142.03
							c-0.04-0.02-0.08-0.02-0.11,0.02c-0.05,0.05-0.09,0.11-0.14,0.16c-0.04,0.04-0.03,0.1,0.02,0.13l0.84,0.52
							c0.09-0.09,0.18-0.19,0.27-0.28L93.67,142.03z M94.84,140.68l0.91,0.39c0.11-0.12,0.22-0.21,0.33-0.28l-1.02-0.45
							c-0.03-0.02-0.08-0.01-0.1,0.02c-0.05,0.05-0.09,0.11-0.14,0.17C94.77,140.59,94.79,140.66,94.84,140.68z M92.94,142.85
							c-0.04-0.03-0.09-0.03-0.12,0.01c-0.05,0.05-0.1,0.1-0.15,0.15c-0.04,0.04-0.03,0.1,0.01,0.13l0.67,0.55
							c0.1-0.08,0.2-0.16,0.3-0.25L92.94,142.85z M91.97,143.67c-0.05,0.05-0.11,0.09-0.16,0.14c-0.04,0.03-0.04,0.1,0,0.13
							l0.47,0.42c0.11-0.05,0.24-0.11,0.37-0.19l-0.55-0.5C92.06,143.64,92.01,143.64,91.97,143.67z"></path><linearGradient id="t" x1="110.625" x2="100.38" y1="104.448" y2="114.086" gradientUnits="userSpaceOnUse"><stop offset="0" stop-color="#101719"></stop><stop offset="1" stop-color="#243137"></stop></linearGradient><path fill="url(#t)" d="M114.06,100.6c1.95-0.12,6.48-0.9,7.34,2.71c1.16,4.87-1.41,9.29-9.7,9.47
				c-14.11,0.32-16.62-0.53-16.84-6.25C94.63,100.82,107.86,100.98,114.06,100.6z"></path><linearGradient id="u" x1="112.929" x2="102.685" y1="106.898" y2="116.536" gradientUnits="userSpaceOnUse"><stop offset="0" stop-color="#101719"></stop><stop offset="1" stop-color="#243137"></stop></linearGradient><path fill="url(#u)" d="M100.52,137.53c0,0,1.8-16.98,2.42-22.29c0.62-5.22,1.13-12.98-4.32-12.51
				c-5.44,0.48-4.89,8.17-4.34,15.67c0.56,7.5,1.91,19.12,1.91,19.12H100.52z"></path><path fill="none" stroke="#00425A" stroke-miterlimit="10" stroke-width=".115" d="M83.27,140.96"></path><path fill="#EF7E67" d="M74.93,145.6c0.52-0.39,1.38-0.74,2.4-1.4c0.05,0.07,0.28,0.3,1,0.04c0.84-0.3,2.18-1.32,3.03-2.38
					c0.84-1.06,1.31-1.28,1.9-0.9c0,0,0.12-0.23,0.15-0.49c0.36,0.18,1.01,0.4,1.76,0.17c0.76-0.23,1.08-0.84,1.36-1.15
					c0.17-0.19,0.32-0.27,0.55-0.09c0.43,0.33,0.79,0.83,1.1,1.85c0.19,0.65,0.36,1.33,0.49,1.91c-0.2,0.05-3.2,0.84-5.69,1.72
					c-2.57,0.91-7,1.98-8.56,1.76C74.41,146.26,74.52,145.91,74.93,145.6z"></path><path fill="#E54600" d="M74.43 146.63c1.56.23 5.99-.85 8.56-1.76 2.49-.88 5.49-1.66 5.69-1.72.11.49.19.9.25 1.15.12.55.07.99-1.14 1.26-1.21.26-7.09 1.53-9.64 2.08-2.55.55-3.24.81-3.46.07C74.59 147.35 74.45 146.98 74.43 146.63zM83.41 140.55c-.04.23-.14.41-.14.41 0 0 .91.7 2.06.34.85-.26 1.08-1.31 1.35-1.77.02-.03-.02-.06-.04-.03-.06.07-.13.15-.2.25-.25.32-.59.76-1.22.96-.06.02-.13.04-.19.05l0 0C84.33 140.91 83.75 140.72 83.41 140.55z"></path><path fill="#BC5000" d="M82.05,141.11c0.02-0.02,0.04-0.04,0.06-0.05c0,0,0,0,0,0c0,0,0,0,0,0
					C82.09,141.08,82.07,141.1,82.05,141.11C82.05,141.12,82.05,141.11,82.05,141.11z"></path><path fill="#E54600" d="M79.07,144.82c-0.2,0.41-0.67,0.7-1.4,0.86c-0.03,0.01-0.05,0.01-0.08,0.02
					c-1.89,0.41-2.85,0.36-3.05,0.35c0.08-0.16,0.2-0.31,0.39-0.45c0.52-0.39,1.38-0.74,2.4-1.4c0.05,0.07,0.28,0.3,1,0.04
					c0.22-0.08,0.47-0.21,0.74-0.37c0,0,0,0,0,0c0,0,0,0,0,0C79.14,144.02,79.26,144.42,79.07,144.82z"></path><path fill="#BC5000" d="M88.44 142.16L88.44 142.16c-.01-.04-.02-.07-.03-.11C88.43 142.08 88.43 142.12 88.44 142.16zM81.98 141.18C81.98 141.18 81.98 141.18 81.98 141.18c-.02.02-.04.04-.07.06 0 0 0 0 0 0C81.93 141.22 81.96 141.2 81.98 141.18z"></path><linearGradient id="v" x1="-423.601" x2="-434.207" y1="161.797" y2="172.738" gradientTransform="scale(-1 1) rotate(-3.302 -686.388 -5749.874)" gradientUnits="userSpaceOnUse"><stop offset="0" stop-color="#ffd1ae"></stop><stop offset="1" stop-color="#f9ac78"></stop></linearGradient><path fill="url(#v)" d="M85.33,141.31c-1.15,0.35-2.06-0.34-2.06-0.34c-0.16-0.09-0.25-0.18-0.33-0.25l0.05-5.17
					c0,0,4.06,0.14,3.99,0.83c-0.06,0.5-0.23,2.26-0.32,3.2C86.4,140.05,86.16,141.05,85.33,141.31z"></path><path fill="#243137" d="M81.36,141.86c-0.84,1.06-2.19,2.08-3.03,2.38c-0.72,0.26-0.95,0.03-1-0.04
						c0.57-0.37,1.19-0.83,1.83-1.45c1.8-1.74,2.61-2.97,3.3-3.12c0.68-0.15,1.01,0.41,0.95,0.84c-0.03,0.27-0.15,0.49-0.15,0.49
						C82.67,140.58,82.21,140.8,81.36,141.86z"></path><path fill="#7C8689" d="M80.38,141.5l0.88,0.49c0.03-0.04,0.07-0.08,0.1-0.13c0.05-0.06,0.1-0.12,0.14-0.18l-0.89-0.5
							c-0.03-0.02-0.08-0.01-0.11,0.02c-0.05,0.05-0.1,0.11-0.15,0.16C80.32,141.4,80.34,141.47,80.38,141.5z M79.86,142
							c-0.03-0.02-0.08-0.02-0.11,0.01c-0.05,0.05-0.1,0.1-0.15,0.15c-0.04,0.04-0.03,0.1,0.01,0.13l0.8,0.57
							c0.1-0.09,0.19-0.18,0.29-0.27L79.86,142z M81.11,140.72l0.88,0.45c0.12-0.11,0.24-0.2,0.34-0.26l-1-0.5
							c-0.03-0.02-0.07-0.01-0.1,0.02c-0.05,0.05-0.1,0.11-0.15,0.16C81.05,140.63,81.06,140.69,81.11,140.72z M79.09,142.78
							c-0.03-0.03-0.08-0.03-0.12,0c-0.05,0.05-0.1,0.1-0.15,0.14c-0.04,0.03-0.04,0.09,0,0.13l0.64,0.58
							c0.1-0.07,0.21-0.15,0.32-0.23L79.09,142.78z M78.08,143.54c-0.06,0.04-0.11,0.09-0.17,0.13c-0.04,0.03-0.05,0.09-0.01,0.13
							l0.44,0.45c0.12-0.04,0.24-0.1,0.38-0.16l-0.52-0.53C78.16,143.52,78.11,143.51,78.08,143.54z"></path><linearGradient id="w" x1="84.771" x2="77.59" y1="135.161" y2="161.012" gradientTransform="rotate(3.302 515.077 194.068)" gradientUnits="userSpaceOnUse"><stop offset="0" stop-color="#101719"></stop><stop offset="1" stop-color="#243137"></stop></linearGradient><path fill="url(#w)" d="M86.96,137.9c0,0,2.77-16.84,3.7-22.11c0.92-5.18,1.87-12.9-3.59-12.73
				c-5.46,0.17-5.36,7.88-5.24,15.4c0.13,7.52,0.81,19.2,0.81,19.2L86.96,137.9z"></path><path fill="#E93701" d="M117.74,101.55c-0.79-0.61-2.85-0.98-3.89-0.91c-1.54,0.09-4.05,0.19-6.26,0.28
				c-2.2,0.08-3.6-0.86-5.87-0.86c0.13-0.75,0.19-2.19,0.07-4.24c-0.24-3.99-1.2-10.55-1.62-14.51c-0.42-3.96-0.37-4.12-0.34-5.23
				c0.09-3.89,16.14-3.42,17.54-2.27c2.1,1.72,2.74,4.4,3.71,9.88c0.97,5.48,2.42,14.47,1.98,17.82c-0.42,3.2-0.96,5.57-2.24,7.17
				C121.26,106.82,121.04,104.11,117.74,101.55z"></path><path fill="#E93701" d="M117.74,101.55c-0.79-0.61-2.85-0.98-3.89-0.91c-1.54,0.09-4.05,0.19-6.26,0.28
				c-2.2,0.08-3.6-0.86-5.87-0.86c0.13-0.75,0.19-2.19,0.07-4.24c-0.24-3.99-1.2-10.55-1.62-14.51c-0.42-3.96-0.37-4.12-0.34-5.23
				c0.09-3.89,16.14-3.42,17.54-2.27c2.1,1.72,2.74,4.4,3.71,9.88c0.97,5.48,2.42,14.47,1.98,17.82c-0.42,3.2-0.96,5.57-2.24,7.17
				C121.26,106.82,121.04,104.11,117.74,101.55z"></path><linearGradient id="x" x1="110.24" x2="112.346" y1="71.101" y2="100.639" gradientUnits="userSpaceOnUse"><stop offset="0" stop-color="#e72100"></stop><stop offset="1" stop-color="#8e0303"></stop></linearGradient><path fill="url(#x)" d="M121.41,98.91c-2.99-2.57-7.49-2.27-11.07-1.73c-3.73,0.57-6.86-0.07-8.5-0.55
				c0.02,0.59,0.03,1.11,0.02,1.57c1.87,0.5,5,1.03,8.71,0.46c3.27-0.5,7.35-0.79,9.87,1.38c1.08,0.93,1.82,2.28,2.22,4.04
				c0.16-0.79,0.29-1.64,0.42-2.58c0.02-0.14,0.03-0.3,0.04-0.45C122.66,100.22,122.1,99.5,121.41,98.91z M107.77,80.71
				c4.91-0.18,9.13-1.13,12.27-2.11c-0.14-0.52-0.29-1-0.45-1.44c-3.04,0.95-7.14,1.88-11.87,2.05c-3.54,0.13-6.03-0.05-7.78-0.34
				c0.04,0.42,0.09,0.92,0.15,1.54c1.4,0.2,3.16,0.34,5.39,0.34C106.19,80.75,106.96,80.74,107.77,80.71z M114.43,89.39
				c3.22-0.37,5.69-0.29,7.61,0c-0.08-0.53-0.16-1.04-0.25-1.56c-1.99-0.25-4.46-0.28-7.53,0.07c-6.56,0.74-10.81,0.35-13.31-0.15
				c0.06,0.52,0.13,1.05,0.19,1.57C103.84,89.8,108.11,90.11,114.43,89.39z M112.49,94.03c4.58-0.58,8.1-0.23,10.31,0.98
				c-0.07-0.58-0.14-1.17-0.21-1.77c-2.48-1.01-5.92-1.25-10.29-0.7c-5.16,0.65-8.75,0.18-10.83-0.32c0.06,0.54,0.11,1.07,0.16,1.58
				C103.91,94.29,107.5,94.66,112.49,94.03z M111.1,85.19c4.29-0.34,7.64-0.49,10.15-0.54c-0.06-0.33-0.11-0.65-0.17-0.96
				c-0.03-0.19-0.07-0.36-0.1-0.54c-2.5,0.06-5.8,0.22-10.01,0.55c-5.06,0.4-8.41,0.12-10.57-0.28c0.06,0.5,0.12,1.02,0.19,1.56
				c1.45,0.24,3.33,0.41,5.72,0.41C107.74,85.38,109.32,85.33,111.1,85.19z" opacity=".5"></path><path fill="#8E0303" d="M112.58,73.04c-2.92-0.13-6.54,0.01-9.18,0.62c-0.09,1.15,0.06,3.65,3.21,3.53
				C110.64,77.03,112.39,76.1,112.58,73.04z"></path><path fill="#FCBC8F" d="M110.26,72.99c0,0-0.8-3.64-1.27-5.66c0-0.01,0-0.02,0-0.03c-0.26-2.02-1.04-4.59-1.56-6.15
				c-0.29-0.89-1.09-1.51-2.02-1.58c-2.91-0.19-8.84,0.01-7.53,5.12c0.54,2.1,2.14,6.4,3.92,7.37c0.58,0.32,1.65,0.22,2.78-0.15
				c0.19,0.6,0.4,1.43,0.55,2.45c0.2,1.35,1.94,1.04,3.34,0.81C110.8,74.8,110.26,72.99,110.26,72.99z"></path><path fill="#E93701" d="M110.13,61.15c-1.03-3.78-3.69-4.66-8.2-3.43c-3.89,1.06-10.8,0.59-5.62,6.43
				c0.93,1.05,2.17,0.62,4.31-0.4c1.84-0.88,2.9-1.08,3.46-1.09c0.33-0.01,0.62,0.22,0.71,0.54c0.32,1.14,0.77,3.63-0.15,4.63
				c-1.02,1.1-1.42,1.13-3.21,1.47c-1.43,0.27-1.79,0.08-1.79,0.52c0,0.44,0.86,1.39,1.01,1.62c0.2,0.27,1.1,0.99,1.52,1.08
				c0.77,0.16,3.16-0.28,3.88-0.94c0.73-0.66,1.02-1.07,0.44-5.13c-0.06-0.46-0.36-1.36-0.55-1.93c-0.14-0.37-0.1-0.57,0.11-0.85
				c0.4-0.46,1.17-1.08,1.83-0.18c0.49,0.66,0.05,1.47-0.33,1.97c-0.27,0.36-0.27,0.85-0.01,1.22c0.32,0.46,0.83,0.93,1.52,0.78
				C109.57,67.36,111.11,64.74,110.13,61.15z"></path><path fill="#E2E2E2" d="M100.09,101.4c0.08,0.47-0.24,0.83-0.72,0.83H82.06c-0.48,0-0.95-0.36-1.03-0.83l-2.21-12.35
					c-0.08-0.47,0.24-0.86,0.72-0.86h17.31c0.48,0,0.94,0.39,1.03,0.86L100.09,101.4z"></path><path fill="#E2E2E2" d="M78.96,88.47c0.01-0.01,0.01-0.02,0.01-0.02L78.96,88.47L78.96,88.47z M111.47,101.38h-10.83l-0.53-2.94
					h0l-1.78-9.94c-0.08-0.47-0.55-0.86-1.03-0.86H80c-0.23,0-0.42,0.09-0.55,0.24l-0.01,0l-0.01,0.01c0,0,0,0,0,0l-0.45,0.54
					c0.13-0.16,0.33-0.25,0.57-0.25h17.31c0.48,0,0.94,0.39,1.03,0.86l2.21,12.35c0.08,0.47-0.24,0.83-0.72,0.83l0.97,0v0h11.14
					c0.17,0,0.31-0.09,0.31-0.27v-0.22C111.78,101.56,111.65,101.38,111.47,101.38z"></path><linearGradient id="y" x1="89.453" x2="89.453" y1="103.409" y2="88.894" gradientUnits="userSpaceOnUse"><stop offset="0" stop-color="#d2d4d5"></stop><stop offset="1" stop-color="#d9dadb"></stop></linearGradient><path fill="url(#y)" d="M100.09,101.4c0.08,0.47-0.24,0.83-0.72,0.83H82.06c-0.48,0-0.95-0.36-1.03-0.83l-2.21-12.35
					c-0.08-0.47,0.24-0.86,0.72-0.86h17.31c0.48,0,0.94,0.39,1.03,0.86L100.09,101.4z"></path><path fill="#FFF" d="M91.96,95.2c0.24,1.39-0.69,2.51-2.08,2.51c-1.38,0-2.7-1.12-2.94-2.51c-0.24-1.38,0.69-2.51,2.08-2.51
						C90.41,92.7,91.72,93.82,91.96,95.2z"></path><linearGradient id="z" x1="88.45" x2="89.694" y1="92.927" y2="97.832" gradientUnits="userSpaceOnUse"><stop offset="0" stop-color="#ccc"></stop><stop offset="1" stop-color="#ededed"></stop></linearGradient><path fill="url(#z)" d="M90.23,97.37c-1.38,0-2.7-1.12-2.94-2.51c-0.12-0.67,0.05-1.28,0.4-1.73
					c-0.59,0.45-0.9,1.21-0.75,2.08c0.24,1.39,1.55,2.51,2.94,2.51c0.71,0,1.3-0.3,1.67-0.77C91.2,97.21,90.75,97.37,90.23,97.37z" opacity=".25"></path><path fill="#FCBC8F" d="M126.71,90.96c1.75-1.21,1.81-2.45,0.64-3.64c-0.73-0.75-3.15,0.35-4.73,1.18
				c-3,1.57-10.57,5.96-15.78,8.9c-0.59,0.33-0.89,0.96-0.62,1.44v0c0.25,0.44,0.75,0.66,1.33,0.44
				C114.68,96.6,122.49,93.88,126.71,90.96z"></path><path fill="#FCBC8F" d="M124.41,82.75c0,0,2.89,4.02,3.52,5.36c0.46,0.96-0.62,2.69-2.33,2.44c-0.9-0.13-3.18-2.07-5.01-4.29
				C119.2,84.57,124.01,82.59,124.41,82.75z"></path><linearGradient id="A" x1="106.009" x2="128.86" y1="96.417" y2="85.279" gradientUnits="userSpaceOnUse"><stop offset="0" stop-color="#fcb888"></stop><stop offset="1" stop-color="#fba970"></stop></linearGradient><path fill="url(#A)" d="M127.94,88.11c-0.64-1.34-3.52-5.36-3.52-5.36c-0.4-0.16-5.22,1.82-3.82,3.51
				c0.66,0.8,1.38,1.56,2.07,2.21c1.34-0.71,2-1.09,2.57-1.53c0.57-0.44,1.21,0.32,1.58,1.2c0.37,0.87-5.76,4.72-11.33,7.14
				s-5.92,2.54-6.24,2.63c-0.32,0.08-0.09-0.3-0.16-0.92c-0.07-0.57-0.22-0.69,0.19-0.98c-0.85,0.48-1.67,0.95-2.44,1.38
				c-0.59,0.33-0.89,0.96-0.62,1.44c0.25,0.44,0.75,0.66,1.33,0.44c7.13-2.67,14.94-5.39,19.16-8.31c1.34-0.93,1.68-1.88,1.24-2.81
				C127.95,88.14,127.95,88.13,127.94,88.11z"></path><linearGradient id="B" x1="1664.349" x2="1660.523" y1="496.429" y2="506.195" gradientTransform="rotate(-59.669 524.882 1636.447)" gradientUnits="userSpaceOnUse"><stop offset="0" stop-color="#101719"></stop><stop offset="1" stop-color="#243137"></stop></linearGradient><path fill="url(#B)" d="M114.75,78.36c1.51,4.2,2.83,7.18,4.54,9.94c2.47,0.45,6.27-1.56,7.43-4.18
				c-1.49-2.25-2.11-3.17-4.04-5.99c-2.04-2.97-3.9-4.54-6.54-4.6C114.42,73.49,113.89,75.97,114.75,78.36z"></path><path fill="#FCBC8F" d="M103.79,98.92c-0.6-0.25-1.76-0.76-1.74-1.27c0.04-0.8,1.42-0.36,2.94-0.57
				c0.98-0.14,2.44,2.43,1.58,2.43C105.89,99.51,104.85,99.36,103.79,98.92z"></path><linearGradient id="C" x1="105.931" x2="103.082" y1="98.829" y2="96.722" gradientUnits="userSpaceOnUse"><stop offset="0" stop-color="#fcb888"></stop><stop offset="1" stop-color="#fba970"></stop></linearGradient><path fill="url(#C)" d="M104.99,97.07c-1.23,0.17-2.36-0.08-2.77,0.25c0.3-0.18,0.97,0,1.15,0.54
				c0.19,0.55,0.8,1.17,1.83,1.49c0.52,0.11,1,0.16,1.36,0.16C107.43,99.51,105.97,96.94,104.99,97.07z"></path><path fill="#FCBC8F" d="M107.23,99.43c1.6-0.37,1.41-2.55,0.81-3.62c-0.7-1.25-6.26-0.94-6.14,0.42
				c0.05,0.62,1.28,0.32,1.43,0.31C103.47,98.11,105,99.94,107.23,99.43z"></path><linearGradient id="D" x1="105.872" x2="105.289" y1="99.192" y2="96.049" gradientUnits="userSpaceOnUse"><stop offset="0" stop-color="#fcb888"></stop><stop offset="1" stop-color="#fba970"></stop></linearGradient><path fill="url(#D)" d="M107.11,96.53c-0.43-0.43-1.89-0.21-3.78,0c0.14,1.58,1.68,3.41,3.9,2.9
				C108.15,98.51,107.54,96.96,107.11,96.53z"></path><linearGradient id="E" x1="100.711" x2="108.371" y1="75.832" y2="63.322" gradientUnits="userSpaceOnUse"><stop offset="0" stop-color="#d90000"></stop><stop offset="1" stop-color="#e93701"></stop></linearGradient><path fill="url(#E)" d="M106.5,66.46c-0.04-0.27-0.16-0.7-0.29-1.12c0.49,1.89,0.55,5.29-1.62,6
				c-2.17,0.71-3.27,0.79-4.03,0c0.04,0.05,0.07,0.08,0.09,0.11c0.2,0.27,1.1,0.99,1.52,1.08c0.77,0.16,3.16-0.28,3.88-0.94
				C106.79,70.93,107.07,70.52,106.5,66.46z"></path></g><g><path fill="#FCBC8F" d="M279.45,110.01c0,0-8.01,15.41-8.84,17.43c-0.44,1.06,0.98,2.46,2.69,2.24c1.56-0.2,2.14-2.77,4.04-8.13
				c1.63-4.59,3.57-11.07,3.57-11.07L279.45,110.01z"></path><path fill="#FCBC8F" d="M279.45,110.01c0,0-8.01,15.41-8.84,17.43c-0.44,1.06,0.98,2.46,2.69,2.24c1.56-0.2,2.14-2.77,4.04-8.13
				c1.63-4.59,3.57-11.07,3.57-11.07L279.45,110.01z"></path><linearGradient id="F" x1="278.503" x2="276.261" y1="114.061" y2="119.822" gradientUnits="userSpaceOnUse"><stop offset="0" stop-color="#fcb888"></stop><stop offset="1" stop-color="#fba970"></stop></linearGradient><path fill="url(#F)" d="M278.27,118.82c0.12-0.35,0.24-0.7,0.35-1.06c-0.09,0.27-0.38,0.19-0.93-0.04
				c-0.55-0.23-0.85-0.31-0.71-0.68c0.14-0.37,0.26-0.73,0.97-1.08c0.72-0.35,1.43-0.56,1.28-0.09c0.94-2.95,1.68-5.4,1.68-5.4
				l-1.47-0.46c0,0-1.95,3.76-4.03,7.81C276.24,117.94,277.38,118.21,278.27,118.82z"></path><path fill="#FCBC8F" d="M291.74,132.82c-1.88,1-15.9-2.21-18.57-2.79c-2.67-0.58-3.16-1.97-2.21-3.22
				c0.6-0.79,1.65-1.03,3.83-0.89c11.51,0.75,18.59,0.17,18.54,2.92C293.25,132.91,292.48,132.43,291.74,132.82z"></path><path fill="#E93701" d="M292.14,126.84c-1.87-0.03-6.65-0.51-9.85-0.64c-1.91-0.08-4.04-0.17-6.36-0.31
				c0.2-0.55,0.4-1.15,0.64-1.82c0.26-0.75,0.54-1.58,0.86-2.48c0.3-0.85,0.62-1.77,0.93-2.71c-0.94-0.68-2.19-0.96-3.05-1.07
				c-1.98,3.87-4.08,7.99-4.69,9.35c-0.02,0.03-0.03,0.06-0.04,0.1c-0.02,0.06-0.05,0.11-0.07,0.16c-0.02,0.04-0.02,0.09-0.03,0.14
				c-0.01,0.04-0.02,0.08-0.03,0.13c-0.01,0.05-0.01,0.09-0.01,0.14c-0.02,0.23-0.01,0.45,0.07,0.66c0.2,0.54,0.82,1.26,2.64,1.65
				l0.75,0.17c3.49,0.77,12.14,2.38,14.94,2.9c0.67,0.12,2.68-0.14,2.94-0.28c0.11-0.06,0.22-0.1,0.33-0.13
				c0.64-0.22,1.24-0.43,1.31-3.94C293.45,127.62,293.44,126.86,292.14,126.84z"></path><linearGradient id="G" x1="285.512" x2="275.171" y1="135.406" y2="122.241" gradientUnits="userSpaceOnUse"><stop offset="0" stop-color="#e93701"></stop><stop offset="1" stop-color="#d42b01"></stop></linearGradient><path fill="url(#G)" d="M291.79,132.91c0.11-0.06,0.22-0.1,0.33-0.13c0.57-0.2,0.35-0.26,0.38-0.76
				c-4.78-0.52-18.39-2.83-19.54-3.05c-1.41-0.26-0.45-2.06-0.22-2.78c0.23-0.72,2.78-6.24,2.99-6.68s0.35-0.43,0.76-0.31
				c0.45,0.13,1.62,0.42,1.38,1.14c0.16-0.48,0.33-0.97,0.49-1.46c-0.94-0.68-2.19-0.96-3.05-1.07c-1.98,3.87-4.08,7.99-4.69,9.35
				c-0.02,0.03-0.03,0.06-0.04,0.1c-0.02,0.06-0.05,0.11-0.07,0.16c-0.02,0.04-0.02,0.09-0.03,0.14c-0.01,0.04-0.02,0.08-0.03,0.13
				c-0.01,0.05-0.01,0.09-0.01,0.14c-0.02,0.23-0.01,0.45,0.07,0.66c0.2,0.54,0.82,1.26,2.64,1.65l0.75,0.17
				c3.49,0.77,12.14,2.38,14.94,2.9C289.52,133.31,291.53,133.05,291.79,132.91z" opacity=".5"></path><rect width="91.43" height="6.46" x="234.72" y="107.46" fill="#68DDDA" transform="rotate(-22.5 280.417 110.69)"></rect><path fill="#FE7D7C" d="M330.53,93.44l-4.82,2l-2.47-5.97l4.82-2c0.26-0.11,0.55,0.02,0.65,0.27l2.09,5.05
					C330.91,93.04,330.78,93.33,330.53,93.44z"></path><path fill="#000923" d="M325.6,96.47l-0.89,0.37c-0.26,0.11-0.55-0.02-0.65-0.27l-2.79-6.74c-0.11-0.26,0.02-0.55,0.27-0.65
					l0.89-0.37c0.26-0.11,0.55,0.02,0.65,0.27l2.79,6.74C325.98,96.07,325.86,96.37,325.6,96.47z"></path><polygon fill="#0F968F" points="230.99 131.17 239.43 131.17 236.96 125.2"></polygon><polygon fill="#000923" points="232.86 129.31 230.99 131.17 233.63 131.17"></polygon><linearGradient id="H" x1="364.3" x2="267.502" y1="-58.052" y2="-58.052" gradientTransform="rotate(-22.5 722.506 116.498)" gradientUnits="userSpaceOnUse"><stop offset="0" stop-color="#0f968f" stop-opacity=".3"></stop><stop offset="1" stop-color="#0f968f" stop-opacity="0"></stop></linearGradient><polygon fill="url(#H)" points="323.05 94.14 238.59 129.13 237.8 127.24 322.27 92.26"></polygon><linearGradient id="I" x1="310.055" x2="314.651" y1="118.071" y2="146.411" gradientUnits="userSpaceOnUse"><stop offset="0" stop-color="#101719"></stop><stop offset="1" stop-color="#243137"></stop></linearGradient><path fill="url(#I)" d="M303.35,117.2c-1.14-3.46,0.62-6.36,3.29-6.43c2.67-0.07,4.64,0.98,5.54,4.04
				c1.04,3.54-0.74,5-0.74,5s5.5-0.88,8.1,4.77c2.78,6.03-0.47,9.68-0.47,9.68s6.37,3.31,3.24,10.11
				c-3.28,7.12-16.73,7.94-18.03-3.18C303.12,131.31,307.47,129.71,303.35,117.2z"></path><path fill="#FCBC8F" d="M287.22,149.48c-1.42,5.61-3.74,17.95-4.08,19.69c-0.54,2.15,0.4,3.92,2.38,4.64
				c2.01,0.73,3.18-0.32,4.06-1.57c3.27-4.63,4.3-6.3,8.93-17.53C300.31,150.36,289.85,139.07,287.22,149.48z"></path><path fill="#EFEFEF" d="M288.58,168.78"></path><path fill="#FCBC8F" d="M291.24,151.69c0.56,5.76,2.22,16.06,2.5,17.81c0.22,2.2,1.71,3.55,3.81,3.56
				c2.14,0.01,2.89-1.38,3.29-2.85c1.51-5.47,3.06-14.58,2.47-19.52C302.75,146.02,290.19,141,291.24,151.69z"></path><linearGradient id="J" x1="301.535" x2="300.677" y1="198.845" y2="207.607" gradientUnits="userSpaceOnUse"><stop offset="0" stop-color="#101719"></stop><stop offset="1" stop-color="#243137"></stop></linearGradient><path fill="url(#J)" d="M302.14,197.7c0.08,0.31-0.13,5.12-0.28,7.15c-0.07,1-1.96,1.45-2.02,0.33
				c0-0.08-0.01-0.17-0.01-0.26c0-0.01,0-0.01,0-0.02c0,0,0,0,0,0c-0.07-2,0.08-5.44,0.07-6.76c-0.33,0.03-0.55,0.49-0.58,1.01
				c-0.09,1.58,0.53,3.58-0.18,6.67c-0.22,0.96,0.02,1.33,0.6,1.33h2.59c1.08,0,0.62-2.82,0.6-4.73c-0.02-1.92,0.15-2.15,0.24-2.78
				C303.34,198.5,302.86,197.81,302.14,197.7z"></path><linearGradient id="K" x1="301.034" x2="301.034" y1="207.629" y2="205.429" gradientUnits="userSpaceOnUse"><stop offset="0" stop-color="#101719"></stop><stop offset="1" stop-color="#243137"></stop></linearGradient><path fill="url(#K)" d="M300.87,206.51c-0.48,0-0.67,0.65-1.13,0.65h2.59C301.7,207.16,301.35,206.51,300.87,206.51z"></path><linearGradient id="L" x1="345.601" x2="344.8" y1="244.494" y2="252.68" gradientTransform="matrix(1 .00709 -.00709 1 -54.005 -47.39)" gradientUnits="userSpaceOnUse"><stop offset="0" stop-color="#101719"></stop><stop offset="1" stop-color="#243137"></stop></linearGradient><path fill="url(#L)" d="M292.57,201.56c-0.08-1.43-0.23-2.68-1.14-2.97c0.02,0.27-0.25,1.46-0.39,1.88
				c-0.58,1.7-1.13,3.42-2.02,4.42c-0.59,0.67-2.42,0.6-1.81-0.09l0,0c0-0.01,0.01-0.01,0.01-0.02c-0.62,0.72-1.26,1.27-1.2,2.01
				c0.02,0.23,0.11,0.32,0.51,0.34c0.37,0.02,1,0.02,2.07,0.02c2.24-0.01,2.34-4.54,2.92-4.51c0.59,0.03,0.07,4.44,0.07,4.44l0.52,0
				C292.12,207.09,292.66,203.16,292.57,201.56z"></path><path fill="#FCBC8F" d="M297.06,165.91c-1.92,0-3.61,1.9-3.25,4.09c1.23,7.43,5.49,25.6,6.17,28.48l2.16-0.78
					c-0.25-4.52-1-20.85-1.39-27.71C300.59,167.01,298.98,165.9,297.06,165.91z"></path><path fill="#FCBC8F" d="M299.9 198.12c.01 1.35-.16 5.11-.06 7.07.05 1.12 1.94.67 2.02-.33.15-2.04.37-6.88.28-7.16C301.47 197.2 299.9 198.12 299.9 198.12zM286.29 167c-1.92 0-3.61 1.9-3.25 4.09 1.23 7.43 5.49 25.6 6.17 28.48l2.16-.78c-.25-4.52-1-20.85-1.39-27.71C289.82 168.11 288.21 167 286.29 167z"></path><path fill="#FCBC8F" d="M289.05,198.12c0.04,0.44,0.08,0.79,0.1,1.01c-0.01,1.06-0.33,3.54-1.94,5.67l0,0
					c-0.61,0.69,1.21,0.76,1.81,0.09c0.89-1.01,1.45-2.73,2.02-4.42c0.14-0.42,0.42-1.62,0.39-1.88c-0.06-0.02-0.14-0.03-0.21-0.04
					c0.01-0.13,0.02-0.27,0.03-0.42H289.05z"></path><linearGradient id="M" x1="300.143" x2="297.653" y1="207.42" y2="174.914" gradientUnits="userSpaceOnUse"><stop offset="0" stop-color="#fcb888"></stop><stop offset="1" stop-color="#fba970"></stop></linearGradient><path fill="url(#M)" d="M302.14,197.7c-0.25-4.52-1-20.85-1.39-27.71c-0.17-2.97-1.78-4.08-3.69-4.08
				c-1.92,0-3.61,1.9-3.25,4.09c0.41,2.45,1.14,6.06,1.97,9.91c-0.19-0.9,1.55-1.02,2.53-1.08c0.98-0.06,1,0.6,1.5,4.74
				c0.5,4.14,1.55,12.95,1.68,14.23c0.13,1.28,0.22,5.86,0.1,6.73c-0.12,0.88-0.71,0.97-0.96,0.97c-0.24,0-0.73-0.12-0.8-0.74
				c0,0.15,0.01,0.3,0.01,0.44c0.05,1.12,1.94,0.67,2.02-0.33C302.01,202.81,302.23,197.98,302.14,197.7z"></path><linearGradient id="N" x1="288.173" x2="286.737" y1="206.314" y2="173.713" gradientUnits="userSpaceOnUse"><stop offset="0" stop-color="#fcb888"></stop><stop offset="1" stop-color="#fba970"></stop></linearGradient><path fill="url(#N)" d="M289.99,171.08c-0.17-2.97-1.78-4.08-3.69-4.08c-1.92,0-3.61,1.9-3.25,4.09
				c0.34,2.06,0.92,4.95,1.58,8.11c-0.26-1.24,1.59-1.03,3.17-0.69c1.58,0.34,1.26,0.97,1.39,3.4c0.13,2.43,1.74,16.13,1.7,16.9
				c-0.04,0.77-1.16,4.66-2.03,5.53c-0.87,0.87-1.81,0.79-1.4,0.13c0.01-0.02,0.01-0.03,0.02-0.05c-0.09,0.13-0.16,0.26-0.26,0.39
				l0,0c-0.61,0.69,1.21,0.76,1.81,0.09c0.89-1.01,1.45-2.73,2.02-4.42c0.14-0.42,0.42-1.62,0.39-1.88
				c-0.02-0.01-0.05-0.01-0.07-0.02C291.1,193.77,290.37,177.84,289.99,171.08z"></path><linearGradient id="O" x1="292.2" x2="295.393" y1="174.041" y2="134.969" gradientUnits="userSpaceOnUse"><stop offset="0" stop-color="#101719"></stop><stop offset="1" stop-color="#243137"></stop></linearGradient><path fill="url(#O)" d="M283.92,176.8c2.91,0.51,9.31,1.47,14.17,0.9l-0.03-1.99c0-1.71-0.19-3.45,0.05-5.2
				c0.2-1.47,0.32-1.84,0.75-3.5c-0.22,1.71-0.16,2.39-0.12,3.53c0.06,1.68,0.37,3.36,0.58,5.08l0.26,1.85
				c0.6-0.12,1.16-0.28,1.68-0.47l-0.38-6.42c0,0,2.09-7.22,2.58-14.5s-0.35-7.23-3.06-9.36c-2.7-2.13-12.5-2.05-13.4,2.36
				c0,0-2.92,14.34-3.61,17.45c-0.69,3.11-0.63,3.43-0.56,4.21C282.85,171.2,283.43,174.3,283.92,176.8z"></path><path fill="#E93701" d="M302.78,120.33l1.81,0.11c0.54,0.03,1.05-0.29,1.22-0.81c0.65-1.96,0.19-3.73-0.4-4.95
				c-0.19-0.39-0.58-0.63-1-0.66l-1.24-0.07L302.78,120.33z"></path><linearGradient id="P" x1="287.25" x2="287.25" y1="120.933" y2="181.628" gradientTransform="rotate(3.438 413.496 301.149)" gradientUnits="userSpaceOnUse"><stop offset="0" stop-color="#101719"></stop><stop offset="1" stop-color="#243137"></stop></linearGradient><path fill="url(#P)" d="M302.87,122.46c4-4.26,1.21-8.46,0.4-9.36c-3.25-3.61-9.68-2.8-11.33,0.88
				c-1.14,2.55-1.1,5.75-0.45,8.59C292.05,125.01,298.38,127.25,302.87,122.46z"></path><path fill="#FCBC8F" d="M303.64,134.34c0.12-0.72,0.22-1.43,0.29-2.11c0.29-2.71-0.18-4.05-1.41-4.67
				c-0.43-0.22-1.02-0.31-1.63-0.41c-1.09-0.17-2.42-0.16-4.02-0.25c-2.82-0.15-4.24-0.03-5.41,0.1c-0.83,0.09-1.7,0.58-1.85,1.39
				c-0.33,1.77-0.58,3.33-0.77,4.79C290.8,133.49,298.26,134.56,303.64,134.34z"></path><linearGradient id="Q" x1="292.431" x2="295.942" y1="176.937" y2="133.98" gradientUnits="userSpaceOnUse"><stop offset="0" stop-color="#101719"></stop><stop offset="1" stop-color="#243137"></stop></linearGradient><path fill="url(#Q)" d="M288.85,133.19c-0.72,5.36-0.76,9.21-1.87,15.88c0,0,5.62,1.28,10.51,1.16
				c5.03-0.12,4.55-1.78,4.5-2.22c-0.04-0.4-0.06-0.81-0.08-1.22c-0.06-2.47,0.37-5.11,0.86-7.72c0.08-0.43,0.17-0.87,0.25-1.3
				c0.22-1.16,0.44-2.3,0.62-3.42C298.26,134.56,290.8,133.49,288.85,133.19z"></path><path fill="#FCBC8F" d="M299.5,122.93c0.03-0.5,0.37-0.74,0.58-0.98c0.95-1.12,1.47-1.94,0.56-2.6
				c-0.59-0.43-1.18,0.48-1.74,0.59c-0.28,0.05-0.31-2.51-0.3-3.38c-0.42,0.97-0.66,1.92-0.66,1.92s-5.5-0.88-5.67-0.75
				c-0.16,0.96-0.26,2.06-0.32,3.39c-0.16,3.54,0.34,4.32,2.41,4.49c0.19,0.02,0.55,0.03,0.55,0.03s-0.56,1.99-0.65,2.79
				c-0.11,0.97,0.81,0.95,3.07,1.19c1.48,0.16,1.75-0.55,1.86-1.87C299.24,126.97,299.31,126.25,299.5,122.93z"></path><linearGradient id="R" x1="297.286" x2="294.557" y1="114.645" y2="134.249" gradientUnits="userSpaceOnUse"><stop offset="0" stop-color="#fcb888"></stop><stop offset="1" stop-color="#fba970"></stop></linearGradient><path fill="url(#R)" d="M300.08,121.95c0.95-1.12,1.47-1.94,0.56-2.6c-0.59-0.43-1.18,0.48-1.74,0.59
				c-0.28,0.05-0.31-2.51-0.3-3.38c-0.42,0.97-0.66,1.92-0.66,1.92s-5.5-0.88-5.67-0.75c-0.09,0.54-0.16,1.13-0.22,1.78
				c0.19-1.49,1.76-0.93,3.92-0.65c2.17,0.29,2.15,0.57,2.24,1.32c0.1,0.75,0.68,0.29,1.11,0c0.43-0.29,1.05-0.7,1.35-0.1
				c0.3,0.6-1.39,1.7-1.68,2.15c-0.11,0.17-0.17,0.77-0.22,1.52c0,0,0,0,0,0c-0.04,0.52-0.46,0.78-0.95,0.86
				c-1.88,0.27-5.24,0.59-5.74-0.56c0.29,1.1,0.97,1.45,2.26,1.55c0.19,0.02,0.55,0.03,0.55,0.03c1.1,0,2.39-0.1,3.23-0.21l0,0
				c0.43-0.07,0.57,0.15,0.55,0.6c-0.02,0.63-0.04,1.18-0.07,1.54c-0.1,1.21-0.02,1.44-0.24,3.29c-0.22,1.85-0.64,2.44-2.06,2.33
				c-2.06-0.17-3.16-0.03-2.87-1.74c0.29-1.71,0.84-4.12,1.01-4.61c-0.1,0-0.19,0-0.29,0c-0.75,1.37-1.4,3.8-2,6.8
				c1.92,0.24,4.35,0.49,6.78,0.63c0.01-0.06,0.02-0.14,0.02-0.2c0.44-3.92,1.44-5.99,0.88-7.03c-0.2-0.01-0.39-0.03-0.6-0.04
				c0.06-0.69,0.14-1.73,0.27-4.07C299.53,122.43,299.87,122.19,300.08,121.95z"></path><path fill="#FCBC8F" d="M303.63,134.71c2.11-0.28,11.64-11.05,13.47-13.08c1.83-2.02,1.42-3.44-0.08-3.91
				c-0.95-0.29-1.94,0.13-3.63,1.51c-5.08,4.16-8.73,6.92-10.36,8.54c-1.23,1.22-1,1.49-1.05,2.91
				C301.83,134.75,302.8,134.82,303.63,134.71z"></path><path fill="#FCBC8F" d="M309.55,101.1c0,0,7.7,14.83,8.51,16.86c0.82,2.03-0.43,3.45-2.13,3.23c-1.56-0.2-2.34-3.06-4.24-8.42
					c-1.63-4.59-3.57-11.07-3.57-11.07L309.55,101.1z"></path><path fill="#FCBC8F" d="M310.5,100.09c0.29-1.06-0.04-2.7-0.63-2.81c-0.62-0.12-0.5,0.85-0.79,2.05
						c-0.18,0.78-0.22,1.44,0.16,1.83C309.55,101.48,310.39,100.5,310.5,100.09z"></path><path fill="#FCBC8F" d="M308.05,101.82c-1.21,0.4-1.19-0.24-1.66-1.2c-0.23-0.47-0.51-1.03-0.96-1.58
						c-0.64-0.78,2.85-2.67,3.53-1.92c0.73,0.8,1,1.98,1.1,2.26C310.63,101.01,309.42,101.37,308.05,101.82z"></path><path fill="#E93701" d="M318.41,119.23c0-0.1-0.01-0.19-0.02-0.27c-0.03-0.34-0.09-0.68-0.24-1.05
				c-0.41-1.03-2.61-5.36-4.67-9.36c-1.28,0.26-2.28,0.82-2.9,1.28c0.34,1.02,0.68,2.03,1.01,2.96c0.25,0.7,0.47,1.35,0.69,1.96
				c0.59,1.68,1.06,3.01,1.5,4.04c-0.15,0.11-0.29,0.23-0.45,0.36c-1.79,1.47-3.41,2.76-4.82,3.89c-2.61,2.09-4.49,3.6-5.55,4.65
				c-1.06,1.06-1.07,1.44-1.07,2.38c0,0.17-0.03,0.37-0.01,0.6c0.28,3.78,1.48,5.34,1.56,5.26c6.13-6.13,10.49-10.62,13.21-13.65
				l0.53-0.58c0.64-0.71,0.97-1.3,1.13-1.79c0.01-0.03,0.01-0.05,0.02-0.08c0.06-0.2,0.09-0.38,0.09-0.54
				C318.42,119.27,318.41,119.25,318.41,119.23z"></path><path fill="#FFF" d="M299.02,149.12c-0.43,0.05-0.93,0.1-1.56,0.11c-0.21,0-0.42,0.01-0.63,0.01c0,0,0,0,0,0
				c-3.22,0-6.66-0.56-8.43-0.9l-0.15,0.99c1.94,0.37,5.77,0.99,9.23,0.9c0.63-0.02,1.18-0.06,1.65-0.11L299.02,149.12z"></path><path fill="#E93701" d="M303.12 137.77c.1-.53.2-1.06.3-1.57.26-1.37.48-2.68.61-3.96.28-2.68 1.31-6.5.13-5.64-1 .73-4.21.46-4.34.44.57 1.04-.43 3.11-.87 7.04-.51 4.51-2.62 18.24-3.28 28.11-.04.63.44 1.17 1.07 1.21 1.79.11 3.72.2 5.8.24.42-2.29.81-4.92.99-7.55.37-5.58-.03-6.89-1.45-8.15-.04-.38-.06-.77-.07-1.16-.07-2.56.41-5.32.86-7.7L303.12 137.77zM294.16 126.84c-.72-.04-2.06 0-2.7.07-.84.09-1.77.58-1.94 1.47-.83 4.39-1.12 7.52-1.43 10.82-.27 2.88-.55 5.87-1.21 9.85l-.01.08c-.15.76-1.59 7.82-2.64 12.86 1 .18 1.41.25 2.03.34.41.06.81-.19.92-.59C289.92 151.87 291.35 131.98 294.16 126.84z"></path><path fill="#E93701" d="M294.16,126.84c-0.72-0.04-2.06,0-2.7,0.07c-0.84,0.09-1.77,0.58-1.94,1.47
				c-0.83,4.39-1.12,7.52-1.43,10.82c-0.27,2.88-0.55,5.87-1.21,9.85l-0.01,0.08c-0.15,0.76-1.59,7.82-2.64,12.86
				c1,0.18,1.41,0.25,2.03,0.34c0.41,0.06,0.81-0.19,0.92-0.59C289.92,151.87,291.35,131.98,294.16,126.84z"></path><linearGradient id="S" x1="293.365" x2="293.365" y1="134.564" y2="170.56" gradientUnits="userSpaceOnUse"><stop offset="0" stop-color="#1f2b30"></stop><stop offset="1" stop-color="#0d1113"></stop></linearGradient><path fill="url(#S)" d="M296.75,163.4c-0.63-0.04-1.11-0.58-1.07-1.21c0.65-9.72,2.69-23.05,3.25-27.91
				c-2.43-0.14-4.86-0.39-6.78-0.63c-1.66,8.25-2.96,20.86-4.98,28.1c-0.11,0.4-0.51,0.65-0.92,0.59c-0.59-0.08-1.01-0.16-1.93-0.32
				c-0.01,0.06-0.03,0.13-0.04,0.19c0.49,0.1,1.54,0.3,2.29,0.39c0.99,0.12,1.34-0.35,2.01-4.32c0.67-3.97,1.99-11.26,2.39-14.03
				c0.33-2.29,0.75-4.91,0.85-5.68c0.1-0.77,0.45-0.94,1.44-0.83c0.99,0.11,2.81,0.34,3.32,0.46c0.51,0.13,0.51,0.24,0.16,2.78
				c-0.35,2.54-1.27,8.23-1.73,11.03c-0.46,2.81-0.79,9.04-1.05,10.57c-0.26,1.53,0.87,1.46,2.5,1.56c1.84,0.12,4.62,0.14,5.86,0.15
				c0.04-0.21,0.08-0.43,0.12-0.64C300.41,163.59,298.51,163.5,296.75,163.4z" opacity=".5"></path><linearGradient id="T" x1="304.331" x2="316.874" y1="128.588" y2="107.141" gradientUnits="userSpaceOnUse"><stop offset="0" stop-color="#e93701"></stop><stop offset="1" stop-color="#d42b01"></stop></linearGradient><path fill="url(#T)" d="M314.08,109.72c-0.2-0.39-0.4-0.78-0.6-1.16c-1.28,0.26-2.28,0.82-2.9,1.28
				c0.34,1.02,0.68,2.03,1.01,2.96c0.25,0.7,0.47,1.35,0.69,1.96c0.59,1.68,1.06,3.01,1.5,4.04c-0.15,0.11-0.29,0.23-0.45,0.36
				c-1.79,1.47-3.41,2.76-4.82,3.89c-1.81,1.45-3.26,2.61-4.34,3.55c0,0,0,0-0.01,0c-1,0.73-4.21,0.46-4.34,0.44
				c0.18,0.33,0.19,0.77,0.13,1.33c1.09,0.07,4.11,0.22,4.76-0.19c0.8-0.5,9.17-8.15,10.25-8.99c0.71-0.55,0.99-0.79,0.35-2.08
				c-0.64-1.29-2.95-6.36-3.06-6.7C312.14,110.06,313.66,108.9,314.08,109.72z" opacity=".5"></path><linearGradient id="U" x1="301.141" x2="299.194" y1="136.564" y2="165.256" gradientUnits="userSpaceOnUse"><stop offset="0" stop-color="#e93701"></stop><stop offset="1" stop-color="#d42b01"></stop></linearGradient><path fill="url(#U)" d="M302.09,147.94c-0.04-0.38-0.06-0.77-0.07-1.16c-0.07-2.56,0.41-5.32,0.86-7.7
				l0.25-1.32c0.1-0.52,0.2-1.04,0.3-1.54h-0.38l-0.47,2.45c-0.46,2.42-0.94,5.22-0.87,7.86c0.01,0.41,0.04,0.82,0.08,1.22
				l0.03,0.29l0.22,0.2c1.14,1.01,1.57,1.98,1.2,7.53c-0.12,1.81-0.36,3.78-0.7,5.87c-0.09,0.55-0.58,0.95-1.14,0.94
				c-1.4-0.05-2.79-0.11-4.15-0.2c-0.11-0.01-0.2-0.05-0.27-0.13c-0.04-0.04-0.1-0.14-0.1-0.28c0.47-7.07,1.71-16.28,2.53-22.37
				c0.17-1.25,0.32-2.39,0.45-3.37h-1.15c-0.76,5.8-2.44,17.35-3.01,25.96c-0.04,0.63,0.44,1.17,1.07,1.21
				c1.79,0.11,3.72,0.2,5.8,0.25c0.42-2.29,0.81-4.92,0.99-7.55C303.91,150.51,303.51,149.2,302.09,147.94z" opacity=".5"></path><linearGradient id="V" x1="290.274" x2="285.966" y1="134.561" y2="161.13" gradientUnits="userSpaceOnUse"><stop offset="0" stop-color="#e93701"></stop><stop offset="1" stop-color="#d42b01"></stop></linearGradient><path fill="url(#V)" d="M291.98,133.22c-0.69,3.37-1.32,7.5-1.97,11.77c-0.92,6.08-1.88,12.37-3.08,16.68
				c-0.04,0.14-0.17,0.23-0.32,0.23l-0.05,0c-0.2-0.03-0.38-0.06-0.57-0.09c-0.51-0.08-0.85-0.57-0.75-1.08
				c0.95-4.62,2.09-10.18,2.32-11.3l0.03-0.14c0.68-4.11,0.96-7.09,1.24-9.98c0.19-1.99,0.37-3.91,0.66-6.09h-0.75
				c-0.29,2.13-0.47,4.03-0.65,5.98c-0.27,2.88-0.55,5.87-1.21,9.85l-0.01,0.08c-0.15,0.76-1.59,7.82-2.64,12.86
				c1,0.18,1.41,0.25,2.03,0.34c0.41,0.06,0.81-0.19,0.92-0.59c2.05-7.36,3.37-20.29,5.06-28.52H291.98z" opacity=".5"></path><linearGradient id="W" x1="307.301" x2="311.721" y1="98.336" y2="109.793" gradientUnits="userSpaceOnUse"><stop offset="0" stop-color="#fcb888"></stop><stop offset="1" stop-color="#fba970"></stop></linearGradient><path fill="url(#W)" d="M306.39,100.61c0.47,0.96,0.45,1.6,1.66,1.2c0.03-0.01,0.06-0.02,0.09-0.03
				c0.19,0.63,1.32,4.35,2.52,7.99c0.61-0.44,1.55-0.94,2.73-1.2c-0.23-0.45-0.46-0.89-0.68-1.33c0.28,0.52-0.03,0.67-0.45,0.82
				c-0.42,0.15-1.08,0.32-1.19,0.1c-0.11-0.22-2.31-5.72-2.5-6.48c-0.19-0.75-0.26-0.69-0.86-0.53c-0.6,0.16-0.77-0.75-1.36-1.75
				c-0.59-0.99-0.68-1.22-0.23-1.54c-0.57,0.41-0.93,0.87-0.69,1.17C305.89,99.59,306.16,100.14,306.39,100.61z"></path></g><g><path fill="#0B3D59" d="M72.93,89.96c-0.55,0-1.07-0.22-1.46-0.61l-4.88-4.88H47.76c-1.55,0-2.8-1.26-2.8-2.8V59.93
				c0-1.55,1.26-2.8,2.8-2.8h34.96c1.55,0,2.8,1.26,2.8,2.8v21.74c0,1.55-1.26,2.8-2.8,2.8h-7.7v3.41
				C75.02,89.03,74.08,89.96,72.93,89.96z"></path><path fill="#FFF" d="M82.71,58.63c0.72,0,1.3,0.58,1.3,1.3v21.74c0,0.72-0.58,1.3-1.3,1.3h-9.2v4.91
				c0,0.35-0.28,0.58-0.58,0.58c-0.14,0-0.29-0.05-0.4-0.17l-5.32-5.32H47.76c-0.72,0-1.3-0.58-1.3-1.3V59.93
				c0-0.72,0.58-1.3,1.3-1.3H82.71"></path><circle cx="71.84" cy="70.8" r="7.67" fill="#1CD3D3"></circle><path fill="#1CD3D3" d="M75.93 66.86l1.59 3.84 2.98-1.72c.16-.09.23-.29.16-.46l-.96-2.32c-.07-.17-.26-.27-.44-.22L75.93 66.86zM67.76 74.74l-1.59-3.84-2.98 1.72c-.16.09-.23.29-.16.46l.96 2.32c.07.17.26.27.44.22L67.76 74.74zM77.52 70.91l-1.59 3.84 3.33.89c.18.05.37-.04.44-.22l.96-2.32c.07-.17 0-.37-.16-.46L77.52 70.91zM66.17 70.7l1.59-3.84-3.33-.89c-.18-.05-.37.04-.44.22l-.96 2.32c-.07.17 0 .37.16.46L66.17 70.7zM75.78 74.89l-3.84 1.59 1.72 2.98c.09.16.29.23.46.16l2.32-.96c.17-.07.27-.26.22-.44L75.78 74.89zM67.9 66.72l3.84-1.59-1.72-2.98c-.09-.16-.29-.23-.46-.16l-2.32.96c-.17.07-.27.26-.22.44L67.9 66.72zM71.74 76.48l-3.84-1.59-.89 3.33c-.05.18.04.37.22.44l2.32.96c.17.07.37 0 .46-.16L71.74 76.48zM71.95 65.13l3.84 1.59.89-3.33c.05-.18-.04-.37-.22-.44l-2.32-.96c-.17-.07-.37 0-.46.16L71.95 65.13z"></path><circle cx="71.84" cy="70.8" r="3.74" fill="#FFF" opacity=".5"></circle><g><circle cx="56.2" cy="70.8" r="5.5" fill="#1CD3D3"></circle><path fill="#1CD3D3" d="M59.95 69.35v2.9l2.43-.32c.13-.02.23-.13.23-.26v-1.74c0-.13-.1-.24-.23-.26L59.95 69.35zM52.44 72.25v-2.9l-2.43.32c-.13.02-.23.13-.23.26v1.74c0 .13.1.24.23.26L52.44 72.25zM59.88 72.43l-2.05 2.05 1.94 1.49c.11.08.25.07.35-.02l1.23-1.23c.09-.09.1-.24.02-.35L59.88 72.43zM52.52 69.18l2.05-2.05-1.94-1.49c-.11-.08-.25-.07-.35.02l-1.23 1.23c-.09.09-.1.24-.02.35L52.52 69.18zM57.65 74.56h-2.9l.32 2.43c.02.13.13.23.26.23h1.74c.13 0 .24-.1.26-.23L57.65 74.56zM54.74 67.05h2.9l-.32-2.43c-.02-.13-.13-.23-.26-.23h-1.74c-.13 0-.24.1-.26.23L54.74 67.05zM54.57 74.48l-2.05-2.05-1.49 1.94c-.08.11-.07.25.02.35l1.23 1.23c.09.09.24.1.35.02L54.57 74.48zM57.82 67.12l2.05 2.05 1.49-1.94c.08-.11.07-.25-.02-.35l-1.23-1.23c-.09-.09-.24-.1-.35-.02L57.82 67.12z"></path><circle cx="56.2" cy="70.8" r="2.8" fill="#FFF" opacity=".5"></circle></g></g></g></svg>